<svg width="672" height="132" viewBox="0 0 672 132" fill="none" xmlns="http://www.w3.org/2000/svg">
<path d="M28.8902 41.3261L45.4281 71.1363H35.0351L23.7067 50.6969L12.4432 71.1752H2.05017L18.5881 41.365L2.05017 11.6843H12.4432L23.7067 32.072L35.0221 11.6843H45.4151L28.8902 41.3261Z" fill="white"/>
<path d="M85.8331 11.7493C88.8314 11.7493 90.9041 12.5155 92.0904 14.0738C93.2767 15.6322 93.8503 18.0477 93.8503 21.3462V71.1752H84.4513V43.4621H63.8546V71.1103H54.5079V21.2813C54.5003 19.865 54.5961 18.4501 54.7947 17.0477C54.8924 15.9661 55.2502 14.9238 55.8376 14.0089C55.8376 13.879 55.9549 13.7492 56.1765 13.6323C57.1933 12.3336 59.2747 11.6843 62.4207 11.6843L85.8331 11.7493ZM84.4513 35.3586V20.5151H63.8546V35.2937L84.4513 35.3586Z" fill="white"/>
<path d="M133.086 71.1103L112.881 44.4737V71.1103H102.929V11.6843H112.881V35.9973L130.194 11.6843H141.644L120.768 39.4632L145.298 71.1752L133.086 71.1103Z" fill="white"/>
<path d="M178.634 11.7493C181.635 11.7493 183.71 12.5155 184.897 14.0738C186.085 15.6322 186.659 18.0477 186.659 21.3462V71.1752H177.329V43.4621H156.712V71.1103H147.316V21.2813C147.309 19.865 147.405 18.4501 147.603 17.0477C147.708 15.9675 148.065 14.9266 148.647 14.0089C148.647 13.879 148.765 13.7492 148.987 13.6323C150.004 12.3336 152.088 11.6843 155.237 11.6843L178.634 11.7493ZM177.329 35.2937V20.5151H156.712V35.2937H177.329Z" fill="white"/>
<path d="M217.687 20.3649V71.1752H207.997V20.3649H193.72V11.6843H232.054V20.4299L217.687 20.3649Z" fill="white"/>
<path d="M281.455 62.2438C281.455 62.4258 281.455 62.8938 281.352 63.6479C281.248 64.4019 281.196 65.1689 281.066 65.975C280.96 66.7174 280.787 67.4485 280.548 68.1591C280.327 68.8091 280.068 69.1341 279.796 69.1341C278.62 70.4948 276.515 71.1752 273.481 71.1752H250.142C246.943 71.1752 244.839 70.4948 243.827 69.1341C243.631 68.8996 243.458 68.6471 243.309 68.3801C242.426 66.4244 242.035 64.2821 242.168 62.1398V20.6288C242.219 19.2407 242.344 17.8563 242.544 16.4816C242.664 15.4455 243.119 14.4774 243.84 13.7255C244.981 12.3561 247.086 11.6757 250.155 11.6844H273.494C276.619 11.6844 278.68 12.3604 279.809 13.7255C280.03 13.9088 280.207 14.1399 280.327 14.4015C281.183 16.3928 281.574 18.554 281.468 20.7198L281.455 62.2438ZM251.633 61.8148H272.171V20.4338H251.62L251.633 61.8148Z" fill="white"/>
<path d="M323.064 71.1103V46.1353H302.451V71.1103H292.582V11.6843H302.451V39.2036H323.064V11.6843H332.933V71.1752L323.064 71.1103Z" fill="white"/>
<path d="M0.032959 115.069L9.03116 103.441H13.1224L4.31842 115.069L13.1224 126.633H9.03116L0.032959 115.069ZM11.0768 115.069L20.1397 103.441H24.2439L15.427 115.069L24.2439 126.633H20.1397L11.0768 115.069Z" fill="white"/>
<path d="M69.6392 88.3167V131.674H65.1383V92.283H37.8238V131.674H33.3228V88.3167H69.6392Z" fill="white"/>
<path d="M80.736 109.491C80.736 96.782 90.5857 87.3083 103.978 87.3083C117.37 87.3083 127.14 96.717 127.14 109.491C127.14 122.266 117.225 131.674 103.978 131.674C90.7305 131.674 80.736 122.201 80.736 109.491ZM122.466 109.491C122.466 99.0951 114.565 91.4279 104.03 91.4279C93.4958 91.4279 85.3974 99.0821 85.3974 109.491C85.3974 119.901 93.2983 127.555 104.03 127.555C114.762 127.555 122.466 119.901 122.466 109.491Z" fill="white"/>
<path d="M151.761 111.791H141.733V131.674H137.228V88.3167H141.733V107.696H151.761L166.595 88.3167H171.596L155.326 109.375L172.536 131.674H167.222L151.761 111.791Z" fill="white"/>
<path d="M175.562 109.491C175.562 96.782 185.412 87.3083 198.791 87.3083C212.169 87.3083 221.966 96.717 221.966 109.491C221.966 122.266 212.051 131.674 198.791 131.674C185.53 131.674 175.562 122.201 175.562 109.491ZM217.292 109.491C217.292 99.0951 209.391 91.4279 198.856 91.4279C188.322 91.4279 180.237 99.0821 180.237 109.491C180.237 119.901 188.138 127.555 198.856 127.555C209.575 127.555 217.292 119.901 217.292 109.491Z" fill="white"/>
<path d="M265.344 88.3167V131.24H260.854V92.2432H240.069L239.568 106.593C238.952 123.757 236.245 131.674 228.431 131.674C227.272 131.669 226.117 131.523 224.993 131.24L225.365 127.198C226.028 127.36 226.709 127.442 227.392 127.441C232.871 127.441 234.962 121.187 235.514 106.709L236.13 88.3167H265.344Z" fill="white"/>
<path d="M310.74 127.707V131.674H280.476V88.3167H309.784V92.2841H285V107.715H307.108V111.592H285V127.707H310.74Z" fill="white"/>
<path d="M358.153 88.3167V131.674H353.496V111.662H325.552V131.674H320.828V88.3167H325.552V107.696H353.496V88.3167H358.153Z" fill="white"/>
<path d="M372.276 88.3167H376.785V124.246L404.457 88.3167H408.593V131.674H404.084V95.81L376.424 131.674H372.276V88.3167Z" fill="white"/>
<path d="M453.988 127.707V131.674H423.724V88.3167H453.045V92.2841H428.25V107.715H450.38V111.592H428.25V127.707H453.988Z" fill="white"/>
<path d="M480.217 88.3167H485.261V131.674H480.217V88.3167Z" fill="white"/>
<path d="M507.683 92.283H492.323V88.3167H527.63V92.283H512.257V131.674H507.631L507.683 92.283Z" fill="white"/>
<path d="M529.647 126.633L538.469 115.069L529.647 103.441H533.741L542.809 115.069L533.741 126.633H529.647ZM540.697 126.633L549.519 115.069L540.684 103.441H544.791L553.858 115.069L544.791 126.633H540.697Z" fill="white"/>
<path d="M358 9.37684C358 4.45899 362.402 0.709676 367.257 1.49238L409.9 8.36691C431.876 11.9097 454.175 13.0238 476.394 11.6894L662.56 0.508402C667.151 0.23269 671.026 3.88133 671.026 8.48029V65.367C671.026 70.1055 666.923 73.8018 662.211 73.3101L604.059 67.2434C589.43 65.7172 574.709 65.2565 560.014 65.865L366.317 73.8854C361.78 74.0732 358 70.4463 358 65.906V9.37684Z" fill="white"/>
<path d="M376.169 47.2679V44.5685H380.256V32.207H381.82L376.573 35.3352V32.2574L381.189 29.4824H383.51V44.5685H387.345V47.2679H376.169ZM397.477 47.2679V43.7864H389.53V41.516L397.981 29.4824H400.605V41.3141H403.153V43.7864H400.605V47.2679H397.477ZM397.477 41.3141V33.317H398.082L391.952 42.071V41.3141H397.477ZM417.357 47.5201C416.247 47.5201 415.271 47.2594 414.43 46.7381C413.589 46.1999 412.933 45.4346 412.462 44.4424C411.991 43.4501 411.756 42.2644 411.756 40.8853C411.756 39.5062 411.991 38.3289 412.462 37.3534C412.933 36.3611 413.589 35.6043 414.43 35.0829C415.271 34.5447 416.247 34.2756 417.357 34.2756C418.433 34.2756 419.375 34.5447 420.182 35.0829C421.006 35.6043 421.553 36.3107 421.822 37.202H421.544L421.822 34.5279H424.849C424.799 35.0493 424.748 35.5791 424.698 36.1172C424.664 36.6554 424.647 37.1852 424.647 37.7066V47.2679H421.519L421.494 44.6442H421.797C421.528 45.5187 420.981 46.2167 420.157 46.7381C419.333 47.2594 418.399 47.5201 417.357 47.5201ZM418.24 45.0983C419.232 45.0983 420.031 44.7535 420.636 44.0639C421.242 43.3576 421.544 42.298 421.544 40.8853C421.544 39.4725 421.242 38.4214 420.636 37.7318C420.031 37.0423 419.232 36.6975 418.24 36.6975C417.247 36.6975 416.448 37.0423 415.843 37.7318C415.237 38.4214 414.935 39.4725 414.935 40.8853C414.935 42.298 415.229 43.3576 415.818 44.0639C416.423 44.7535 417.23 45.0983 418.24 45.0983ZM428.325 47.2679V34.5279H440.258V47.2679H437.13V36.9498H431.453V47.2679H428.325ZM443.947 52.717V37.7066C443.947 37.1852 443.93 36.6554 443.897 36.1172C443.863 35.5791 443.812 35.0493 443.745 34.5279H446.798L447.075 37.202H446.798C447.05 36.3107 447.58 35.6043 448.387 35.0829C449.211 34.5447 450.161 34.2756 451.238 34.2756C452.365 34.2756 453.349 34.5447 454.189 35.0829C455.03 35.6043 455.686 36.3611 456.157 37.3534C456.628 38.3289 456.864 39.5062 456.864 40.8853C456.864 42.2644 456.628 43.4501 456.157 44.4424C455.686 45.4346 455.03 46.1999 454.189 46.7381C453.349 47.2594 452.365 47.5201 451.238 47.5201C450.178 47.5201 449.245 47.2594 448.438 46.7381C447.63 46.2167 447.092 45.5187 446.823 44.6442H447.1V52.717H443.947ZM450.355 45.0983C451.364 45.0983 452.171 44.7535 452.777 44.0639C453.382 43.3576 453.685 42.298 453.685 40.8853C453.685 39.4725 453.382 38.4214 452.777 37.7318C452.171 37.0423 451.364 36.6975 450.355 36.6975C449.363 36.6975 448.564 37.0423 447.958 37.7318C447.353 38.4214 447.05 39.4725 447.05 40.8853C447.05 42.298 447.353 43.3576 447.958 44.0639C448.564 44.7535 449.363 45.0983 450.355 45.0983ZM466.092 47.5201C463.956 47.5201 462.282 46.9315 461.071 45.7542C459.86 44.5769 459.255 42.9623 459.255 40.9105C459.255 39.5818 459.516 38.4214 460.037 37.4291C460.558 36.4368 461.281 35.6632 462.207 35.1081C463.148 34.5531 464.242 34.2756 465.486 34.2756C466.714 34.2756 467.74 34.5363 468.564 35.0577C469.388 35.5791 470.01 36.3107 470.431 37.2525C470.868 38.1943 471.087 39.2959 471.087 40.5573V41.3898H461.803V39.7248H468.841L468.413 40.078C468.413 38.9007 468.16 38.0009 467.656 37.3786C467.168 36.7563 466.453 36.4452 465.511 36.4452C464.469 36.4452 463.661 36.8152 463.089 37.5552C462.534 38.2952 462.257 39.3296 462.257 40.6582V40.9862C462.257 42.3653 462.593 43.3996 463.266 44.0892C463.956 44.7619 464.923 45.0983 466.167 45.0983C466.89 45.0983 467.563 45.0058 468.185 44.8208C468.825 44.619 469.43 44.2994 470.002 43.8621L470.935 45.9812C470.33 46.469 469.607 46.8474 468.766 47.1165C467.925 47.3856 467.033 47.5201 466.092 47.5201ZM473.673 47.621L472.689 45.1487C473.244 44.9469 473.707 44.6862 474.077 44.3667C474.464 44.0303 474.766 43.6098 474.985 43.1053C475.22 42.5839 475.389 41.9448 475.489 41.188C475.59 40.4144 475.641 39.4977 475.641 38.4382V34.5279H485.782V47.2679H482.654V36.9498H478.517V38.5391C478.517 40.3723 478.349 41.9112 478.012 43.1558C477.676 44.3835 477.154 45.359 476.448 46.0822C475.742 46.8053 474.817 47.3183 473.673 47.621ZM488.315 47.2679L490.257 43.9126C490.593 43.3408 491.005 42.8867 491.493 42.5503C491.998 42.1971 492.519 42.0205 493.057 42.0205H493.612L493.587 42.298C492.09 42.298 490.938 41.9701 490.131 41.3141C489.324 40.6582 488.92 39.6996 488.92 38.4382C488.92 37.1936 489.332 36.235 490.156 35.5622C490.997 34.8727 492.225 34.5279 493.839 34.5279H500.171V47.2679H497.296V42.7773H495.858C495.336 42.7773 494.874 42.9203 494.47 43.2062C494.083 43.4921 493.755 43.8621 493.486 44.3162L491.821 47.2679H488.315ZM494.445 40.7339H497.296V36.5713H494.445C493.587 36.5713 492.94 36.7563 492.502 37.1264C492.082 37.4964 491.872 38.0009 491.872 38.64C491.872 39.3127 492.082 39.8341 492.502 40.2041C492.94 40.5573 493.587 40.7339 494.445 40.7339ZM510.584 41.5664V39.0689H518.253V41.5664H510.584ZM529.678 47.2679V44.5685H533.765V32.207H535.329L530.082 35.3352V32.2574L534.698 29.4824H537.019V44.5685H540.854V47.2679H529.678ZM549.699 47.5201C548.925 47.5201 548.152 47.436 547.378 47.2679C546.621 47.0997 545.906 46.8642 545.234 46.5615C544.578 46.2587 544.014 45.8972 543.543 45.4767L544.603 43.0296C545.393 43.6183 546.201 44.0639 547.025 44.3667C547.866 44.6526 548.74 44.7955 549.649 44.7955C550.742 44.7955 551.591 44.5265 552.197 43.9883C552.819 43.4333 553.13 42.6932 553.13 41.7682C553.13 40.8264 552.836 40.0696 552.247 39.4977C551.658 38.9091 550.851 38.6148 549.825 38.6148C549.102 38.6148 548.438 38.7577 547.832 39.0437C547.244 39.3127 546.714 39.7332 546.243 40.305H544.098V29.4824H555.148V32.1565H547.176V37.8075H546.394C546.831 37.2189 547.412 36.7648 548.135 36.4452C548.875 36.1257 549.699 35.9659 550.607 35.9659C551.751 35.9659 552.743 36.2013 553.584 36.6723C554.425 37.1432 555.081 37.8075 555.552 38.6652C556.023 39.5062 556.258 40.4984 556.258 41.6421C556.258 42.8026 555.989 43.8285 555.451 44.7199C554.93 45.5944 554.173 46.284 553.18 46.7885C552.205 47.2763 551.044 47.5201 549.699 47.5201ZM570.866 47.5201C569.756 47.5201 568.78 47.2594 567.939 46.7381C567.098 46.1999 566.442 45.4346 565.971 44.4424C565.5 43.4501 565.265 42.2644 565.265 40.8853C565.265 39.5062 565.5 38.3289 565.971 37.3534C566.442 36.3611 567.098 35.6043 567.939 35.0829C568.78 34.5447 569.756 34.2756 570.866 34.2756C571.942 34.2756 572.884 34.5447 573.691 35.0829C574.515 35.6043 575.062 36.3107 575.331 37.202H575.053L575.331 34.5279H578.358C578.308 35.0493 578.257 35.5791 578.207 36.1172C578.173 36.6554 578.156 37.1852 578.156 37.7066V47.2679H575.028L575.003 44.6442H575.306C575.037 45.5187 574.49 46.2167 573.666 46.7381C572.842 47.2594 571.908 47.5201 570.866 47.5201ZM571.749 45.0983C572.741 45.0983 573.54 44.7535 574.145 44.0639C574.751 43.3576 575.053 42.298 575.053 40.8853C575.053 39.4725 574.751 38.4214 574.145 37.7318C573.54 37.0423 572.741 36.6975 571.749 36.6975C570.756 36.6975 569.957 37.0423 569.352 37.7318C568.746 38.4214 568.444 39.4725 568.444 40.8853C568.444 42.298 568.738 43.3576 569.327 44.0639C569.932 44.7535 570.739 45.0983 571.749 45.0983ZM581.834 47.2679V34.5279H593.767V47.2679H590.639V36.9498H584.962V47.2679H581.834ZM597.456 52.717V37.7066C597.456 37.1852 597.439 36.6554 597.406 36.1172C597.372 35.5791 597.322 35.0493 597.254 34.5279H600.307L600.584 37.202H600.307C600.559 36.3107 601.089 35.6043 601.896 35.0829C602.72 34.5447 603.67 34.2756 604.747 34.2756C605.874 34.2756 606.858 34.5447 607.698 35.0829C608.539 35.6043 609.195 36.3611 609.666 37.3534C610.137 38.3289 610.373 39.5062 610.373 40.8853C610.373 42.2644 610.137 43.4501 609.666 44.4424C609.195 45.4346 608.539 46.1999 607.698 46.7381C606.858 47.2594 605.874 47.5201 604.747 47.5201C603.687 47.5201 602.754 47.2594 601.947 46.7381C601.139 46.2167 600.601 45.5187 600.332 44.6442H600.61V52.717H597.456ZM603.864 45.0983C604.873 45.0983 605.68 44.7535 606.286 44.0639C606.891 43.3576 607.194 42.298 607.194 40.8853C607.194 39.4725 606.891 38.4214 606.286 37.7318C605.68 37.0423 604.873 36.6975 603.864 36.6975C602.872 36.6975 602.073 37.0423 601.467 37.7318C600.862 38.4214 600.559 39.4725 600.559 40.8853C600.559 42.298 600.862 43.3576 601.467 44.0639C602.073 44.7535 602.872 45.0983 603.864 45.0983ZM619.601 47.5201C617.465 47.5201 615.791 46.9315 614.58 45.7542C613.369 44.5769 612.764 42.9623 612.764 40.9105C612.764 39.5818 613.025 38.4214 613.546 37.4291C614.067 36.4368 614.791 35.6632 615.716 35.1081C616.657 34.5531 617.751 34.2756 618.995 34.2756C620.223 34.2756 621.249 34.5363 622.073 35.0577C622.897 35.5791 623.519 36.3107 623.94 37.2525C624.377 38.1943 624.596 39.2959 624.596 40.5573V41.3898H615.312V39.7248H622.35L621.922 40.078C621.922 38.9007 621.669 38.0009 621.165 37.3786C620.677 36.7563 619.962 36.4452 619.02 36.4452C617.978 36.4452 617.17 36.8152 616.598 37.5552C616.043 38.2952 615.766 39.3296 615.766 40.6582V40.9862C615.766 42.3653 616.102 43.3996 616.775 44.0892C617.465 44.7619 618.432 45.0983 619.676 45.0983C620.399 45.0983 621.072 45.0058 621.694 44.8208C622.334 44.619 622.939 44.2994 623.511 43.8621L624.444 45.9812C623.839 46.469 623.116 46.8474 622.275 47.1165C621.434 47.3856 620.542 47.5201 619.601 47.5201ZM627.182 47.621L626.198 45.1487C626.753 44.9469 627.216 44.6862 627.586 44.3667C627.973 44.0303 628.275 43.6098 628.494 43.1053C628.729 42.5839 628.898 41.9448 628.998 41.188C629.099 40.4144 629.15 39.4977 629.15 38.4382V34.5279H639.291V47.2679H636.163V36.9498H632.026V38.5391C632.026 40.3723 631.858 41.9112 631.521 43.1558C631.185 44.3835 630.663 45.359 629.957 46.0822C629.251 46.8053 628.326 47.3183 627.182 47.621ZM641.824 47.2679L643.766 43.9126C644.102 43.3408 644.514 42.8867 645.002 42.5503C645.507 42.1971 646.028 42.0205 646.566 42.0205H647.121L647.096 42.298C645.599 42.298 644.447 41.9701 643.64 41.3141C642.833 40.6582 642.429 39.6996 642.429 38.4382C642.429 37.1936 642.841 36.235 643.665 35.5622C644.506 34.8727 645.734 34.5279 647.348 34.5279H653.68V47.2679H650.805V42.7773H649.367C648.845 42.7773 648.383 42.9203 647.979 43.2062C647.592 43.4921 647.264 43.8621 646.995 44.3162L645.33 47.2679H641.824ZM647.954 40.7339H650.805V36.5713H647.954C647.096 36.5713 646.449 36.7563 646.011 37.1264C645.591 37.4964 645.381 38.0009 645.381 38.64C645.381 39.3127 645.591 39.8341 646.011 40.2041C646.449 40.5573 647.096 40.7339 647.954 40.7339Z" fill="black"/>
</svg>
