<svg width="310" height="61" viewBox="0 0 310 61" fill="none" xmlns="http://www.w3.org/2000/svg">
<path d="M14.2221 19.1513L21.8402 32.8968H17.0527L11.8343 23.4722L6.64589 32.9147H1.8584L9.47648 19.1692L1.8584 5.48353H6.64589L11.8343 14.8842L17.0467 5.48353H21.8342L14.2221 19.1513Z" fill="white"/>
<path d="M40.4524 5.51347C41.8336 5.51347 42.7884 5.86676 43.3348 6.58532C43.8813 7.30389 44.1455 8.41767 44.1455 9.93863V32.9147H39.8159V20.1363H30.3282V32.8848H26.0227V9.90869C26.0191 9.25565 26.0633 8.60323 26.1548 7.95659C26.1998 7.45785 26.3646 6.97724 26.6352 6.55539C26.6352 6.49551 26.6892 6.43563 26.7913 6.38173C27.2597 5.78293 28.2185 5.48353 29.6676 5.48353L40.4524 5.51347ZM39.8159 16.3997V9.55539H30.3282V16.3698L39.8159 16.3997Z" fill="white"/>
<path d="M62.2191 32.8848L52.9117 20.6027V32.8848H48.3276V5.48353H52.9117V16.6942L60.8869 5.48353H66.1613L56.545 18.2923L67.8447 32.9147L62.2191 32.8848Z" fill="white"/>
<path d="M83.2002 5.51347C84.5827 5.51347 85.5385 5.86676 86.0855 6.58532C86.6324 7.30389 86.8969 8.41767 86.8969 9.93863V32.9147H82.5991V20.1363H73.102V32.8848H68.7741V9.90869C68.7706 9.25565 68.8148 8.60323 68.9064 7.95659C68.9544 7.45847 69.1191 6.97854 69.3872 6.55539C69.3872 6.49551 69.4413 6.43563 69.5435 6.38173C70.0124 5.78293 70.9721 5.48353 72.4227 5.48353L83.2002 5.51347ZM82.5991 16.3698V9.55539H73.102V16.3698H82.5991Z" fill="white"/>
<path d="M101.19 9.48615V32.9147H96.7264V9.48615H90.1499V5.48353H107.808V9.51611L101.19 9.48615Z" fill="white"/>
<path d="M130.564 28.7964C130.564 28.8804 130.564 29.0962 130.517 29.4439C130.469 29.7915 130.445 30.1452 130.385 30.5169C130.336 30.8592 130.256 31.1963 130.146 31.524C130.045 31.8237 129.925 31.9736 129.8 31.9736C129.258 32.601 128.289 32.9147 126.891 32.9147H116.14C114.667 32.9147 113.697 32.601 113.231 31.9736C113.141 31.8654 113.061 31.749 112.992 31.6259C112.586 30.7241 112.405 29.7363 112.467 28.7485V9.60782C112.49 8.96775 112.548 8.32942 112.64 7.69556C112.695 7.21781 112.905 6.77141 113.237 6.42471C113.763 5.79328 114.732 5.47957 116.146 5.48357H126.897C128.336 5.48357 129.286 5.79528 129.806 6.42471C129.908 6.50922 129.989 6.61579 130.045 6.73643C130.439 7.65458 130.619 8.65114 130.57 9.64979L130.564 28.7964ZM116.827 28.5986H126.288V9.51791H116.821L116.827 28.5986Z" fill="white"/>
<path d="M149.731 32.8848V21.3688H140.236V32.8848H135.69V5.48353H140.236V18.1726H149.731V5.48353H154.278V32.9147L149.731 32.8848Z" fill="white"/>
<path d="M0.928711 53.1541L5.07367 47.7927H6.95829L2.90278 53.1541L6.95829 58.4862H5.07367L0.928711 53.1541ZM6.01597 53.1541L10.1907 47.7927H12.0813L8.01987 53.1541L12.0813 58.4862H10.1907L6.01597 53.1541Z" fill="white"/>
<path d="M32.9926 40.8186V60.8109H30.9193V42.6475H18.337V60.8109H16.2637V40.8186H32.9926Z" fill="white"/>
<path d="M38.1045 50.5823C38.1045 44.722 42.6417 40.3537 48.8106 40.3537C54.9795 40.3537 59.4803 44.692 59.4803 50.5823C59.4803 56.4725 54.9128 60.8109 48.8106 60.8109C42.7084 60.8109 38.1045 56.4426 38.1045 50.5823ZM57.327 50.5823C57.327 45.7886 53.6875 42.2532 48.8349 42.2532C43.9822 42.2532 40.2518 45.7826 40.2518 50.5823C40.2518 55.382 43.8913 58.9114 48.8349 58.9114C53.7785 58.9114 57.327 55.382 57.327 50.5823Z" fill="white"/>
<path d="M70.8215 51.6428H66.2021V60.8109H64.127V40.8186H66.2021V49.7544H70.8215L77.6544 40.8186H79.9581L72.4636 50.5288L80.3912 60.8109H77.9431L70.8215 51.6428Z" fill="white"/>
<path d="M81.7852 50.5823C81.7852 44.722 86.3224 40.3537 92.4852 40.3537C98.6481 40.3537 103.161 44.692 103.161 50.5823C103.161 56.4725 98.5935 60.8109 92.4852 60.8109C86.377 60.8109 81.7852 56.4426 81.7852 50.5823ZM101.008 50.5823C101.008 45.7886 97.3682 42.2532 92.5155 42.2532C87.6629 42.2532 83.9385 45.7826 83.9385 50.5823C83.9385 55.382 87.578 58.9114 92.5155 58.9114C97.4531 58.9114 101.008 55.382 101.008 50.5823Z" fill="white"/>
<path d="M123.143 40.8186V60.6103H121.074V42.6291H111.5L111.269 49.246C110.986 57.1603 109.738 60.8109 106.139 60.8109C105.605 60.8086 105.073 60.7412 104.555 60.6103L104.727 58.7468C105.032 58.8216 105.346 58.8592 105.66 58.8588C108.184 58.8588 109.147 55.975 109.402 49.2991L109.685 40.8186H123.143Z" fill="white"/>
<path d="M144.054 58.9815V60.8109H130.113V40.8186H143.613V42.648H132.197V49.763H142.381V51.5507H132.197V58.9815H144.054Z" fill="white"/>
<path d="M165.895 40.8186V60.8109H163.749V51.5832H150.877V60.8109H148.701V40.8186H150.877V49.7544H163.749V40.8186H165.895Z" fill="white"/>
<path d="M172.4 40.8186H174.477V57.3855L187.224 40.8186H189.129V60.8109H187.052V44.2738L174.311 60.8109H172.4V40.8186Z" fill="white"/>
<path d="M210.041 58.9815V60.8109H196.1V40.8186H209.606V42.648H198.185V49.763H208.379V51.5507H198.185V58.9815H210.041Z" fill="white"/>
<path d="M222.123 40.8186H224.446V60.8109H222.123V40.8186Z" fill="white"/>
<path d="M234.775 42.6475H227.699V40.8186H243.963V42.6475H236.881V60.8109H234.751L234.775 42.6475Z" fill="white"/>
<path d="M244.893 58.4862L248.956 53.1541L244.893 47.7927H246.778L250.955 53.1541L246.778 58.4862H244.893ZM249.983 58.4862L254.046 53.1541L249.977 47.7927H251.868L256.045 53.1541L251.868 58.4862H249.983Z" fill="white"/>
<path d="M165.807 4.31938C165.807 2.05401 167.834 0.326908 170.071 0.687457L189.714 3.85416C199.837 5.48611 210.109 5.99935 220.344 5.38463L306.1 0.234192C308.215 0.107187 310 1.78791 310 3.90639V30.1109C310 32.2936 308.11 33.9963 305.939 33.7698L279.152 30.9752C272.413 30.2722 265.632 30.06 258.863 30.3403L169.638 34.0348C167.548 34.1214 165.807 32.4506 165.807 30.3592V4.31938Z" fill="white"/>
<path d="M174.195 21.7969V20.5535H176.078V14.8592H176.798L174.381 16.3002V14.8824L176.508 13.6041H177.577V20.5535H179.343V21.7969H174.195ZM184.01 21.7969V20.1932H180.35V19.1473L184.243 13.6041H185.451V19.0543H186.625V20.1932H185.451V21.7969H184.01ZM184.01 19.0543V15.3705H184.289L181.465 19.403V19.0543H184.01ZM193.168 21.9131C192.657 21.9131 192.207 21.793 191.82 21.5529C191.433 21.3049 191.13 20.9524 190.913 20.4953C190.697 20.0383 190.588 19.4921 190.588 18.8568C190.588 18.2215 190.697 17.6792 190.913 17.2299C191.13 16.7728 191.433 16.4241 191.82 16.184C192.207 15.9361 192.657 15.8121 193.168 15.8121C193.664 15.8121 194.098 15.9361 194.469 16.184C194.849 16.4241 195.101 16.7495 195.225 17.1601H195.097L195.225 15.9283H196.619C196.596 16.1685 196.573 16.4125 196.55 16.6604C196.534 16.9084 196.526 17.1524 196.526 17.3926V21.7969H195.085L195.074 20.5883H195.213C195.089 20.9912 194.837 21.3127 194.458 21.5529C194.078 21.793 193.648 21.9131 193.168 21.9131ZM193.575 20.7975C194.032 20.7975 194.4 20.6387 194.679 20.321C194.958 19.9956 195.097 19.5076 195.097 18.8568C195.097 18.206 194.958 17.7218 194.679 17.4042C194.4 17.0865 194.032 16.9277 193.575 16.9277C193.118 16.9277 192.75 17.0865 192.471 17.4042C192.192 17.7218 192.052 18.206 192.052 18.8568C192.052 19.5076 192.188 19.9956 192.459 20.321C192.738 20.6387 193.11 20.7975 193.575 20.7975ZM198.221 21.7969V15.9283H203.717V21.7969H202.276V17.0439H199.662V21.7969H198.221ZM205.417 24.307V17.3926C205.417 17.1524 205.409 16.9084 205.393 16.6604C205.378 16.4125 205.355 16.1685 205.324 15.9283H206.73L206.858 17.1601H206.73C206.846 16.7495 207.09 16.4241 207.462 16.184C207.842 15.9361 208.279 15.8121 208.775 15.8121C209.294 15.8121 209.747 15.9361 210.135 16.184C210.522 16.4241 210.824 16.7728 211.041 17.2299C211.258 17.6792 211.367 18.2215 211.367 18.8568C211.367 19.4921 211.258 20.0383 211.041 20.4953C210.824 20.9524 210.522 21.3049 210.135 21.5529C209.747 21.793 209.294 21.9131 208.775 21.9131C208.287 21.9131 207.857 21.793 207.485 21.5529C207.113 21.3127 206.865 20.9912 206.741 20.5883H206.869V24.307H205.417ZM208.368 20.7975C208.833 20.7975 209.205 20.6387 209.484 20.321C209.763 19.9956 209.902 19.5076 209.902 18.8568C209.902 18.206 209.763 17.7218 209.484 17.4042C209.205 17.0865 208.833 16.9277 208.368 16.9277C207.911 16.9277 207.543 17.0865 207.264 17.4042C206.985 17.7218 206.846 18.206 206.846 18.8568C206.846 19.5076 206.985 19.9956 207.264 20.321C207.543 20.6387 207.911 20.7975 208.368 20.7975ZM215.617 21.9131C214.633 21.9131 213.863 21.6419 213.305 21.0996C212.747 20.5573 212.468 19.8136 212.468 18.8684C212.468 18.2564 212.588 17.7218 212.828 17.2647C213.069 16.8076 213.402 16.4513 213.828 16.1956C214.262 15.9399 214.765 15.8121 215.338 15.8121C215.904 15.8121 216.377 15.9322 216.756 16.1724C217.136 16.4125 217.423 16.7495 217.616 17.1834C217.818 17.6172 217.918 18.1247 217.918 18.7057V19.0892H213.642V18.3222H216.884L216.687 18.4849C216.687 17.9426 216.57 17.5281 216.338 17.2415C216.113 16.9548 215.784 16.8115 215.35 16.8115C214.87 16.8115 214.498 16.9819 214.234 17.3228C213.979 17.6637 213.851 18.1402 213.851 18.7522V18.9033C213.851 19.5386 214.006 20.015 214.316 20.3327C214.633 20.6425 215.079 20.7975 215.652 20.7975C215.985 20.7975 216.295 20.7549 216.582 20.6697C216.876 20.5767 217.155 20.4295 217.419 20.2281L217.849 21.2042C217.57 21.4289 217.237 21.6032 216.849 21.7272C216.462 21.8511 216.051 21.9131 215.617 21.9131ZM219.11 21.9596L218.657 20.8207C218.912 20.7278 219.125 20.6077 219.296 20.4605C219.474 20.3055 219.613 20.1119 219.714 19.8794C219.822 19.6393 219.9 19.3449 219.946 18.9962C219.993 18.6399 220.016 18.2176 220.016 17.7296V15.9283H224.688V21.7969H223.247V17.0439H221.341V17.776C221.341 18.6205 221.263 19.3294 221.109 19.9027C220.954 20.4682 220.713 20.9176 220.388 21.2507C220.063 21.5838 219.637 21.8201 219.11 21.9596ZM225.854 21.7969L226.749 20.2513C226.904 19.9879 227.094 19.7787 227.318 19.6238C227.551 19.4611 227.791 19.3797 228.039 19.3797H228.295L228.283 19.5076C227.594 19.5076 227.063 19.3565 226.691 19.0543C226.319 18.7522 226.133 18.3106 226.133 17.7296C226.133 17.1563 226.323 16.7147 226.703 16.4048C227.09 16.0871 227.655 15.9283 228.399 15.9283H231.316V21.7969H229.991V19.7284H229.329C229.089 19.7284 228.876 19.7942 228.69 19.9259C228.512 20.0576 228.36 20.2281 228.237 20.4372L227.47 21.7969H225.854ZM228.678 18.7871H229.991V16.8696H228.678C228.283 16.8696 227.985 16.9548 227.783 17.1253C227.59 17.2957 227.493 17.5281 227.493 17.8225C227.493 18.1324 227.59 18.3726 227.783 18.543C227.985 18.7057 228.283 18.7871 228.678 18.7871ZM236.112 19.1706V18.0201H239.645V19.1706H236.112ZM244.908 21.7969V20.5535H246.791V14.8592H247.511L245.094 16.3002V14.8824L247.221 13.6041H248.29V20.5535H250.056V21.7969H244.908ZM254.131 21.9131C253.774 21.9131 253.418 21.8744 253.061 21.7969C252.713 21.7194 252.384 21.611 252.074 21.4715C251.772 21.3321 251.512 21.1655 251.295 20.9718L251.783 19.8446C252.147 20.1157 252.519 20.321 252.899 20.4605C253.286 20.5922 253.689 20.658 254.107 20.658C254.611 20.658 255.002 20.5341 255.281 20.2862C255.568 20.0305 255.711 19.6896 255.711 19.2635C255.711 18.8297 255.575 18.4811 255.304 18.2176C255.033 17.9465 254.661 17.8109 254.189 17.8109C253.856 17.8109 253.55 17.8768 253.271 18.0085C253 18.1324 252.755 18.3261 252.539 18.5895H251.551V13.6041H256.641V14.836H252.969V17.439H252.608C252.81 17.1679 253.077 16.9587 253.41 16.8115C253.751 16.6643 254.131 16.5907 254.549 16.5907C255.076 16.5907 255.533 16.6992 255.92 16.9161C256.308 17.133 256.61 17.439 256.827 17.8342C257.044 18.2215 257.152 18.6786 257.152 19.2054C257.152 19.74 257.028 20.2126 256.78 20.6232C256.54 21.026 256.191 21.3437 255.734 21.5761C255.285 21.8008 254.75 21.9131 254.131 21.9131ZM263.881 21.9131C263.37 21.9131 262.92 21.793 262.533 21.5529C262.145 21.3049 261.843 20.9524 261.626 20.4953C261.409 20.0383 261.301 19.4921 261.301 18.8568C261.301 18.2215 261.409 17.6792 261.626 17.2299C261.843 16.7728 262.145 16.4241 262.533 16.184C262.92 15.9361 263.37 15.8121 263.881 15.8121C264.377 15.8121 264.811 15.9361 265.182 16.184C265.562 16.4241 265.814 16.7495 265.938 17.1601H265.81L265.938 15.9283H267.332C267.309 16.1685 267.286 16.4125 267.263 16.6604C267.247 16.9084 267.239 17.1524 267.239 17.3926V21.7969H265.798L265.787 20.5883H265.926C265.802 20.9912 265.55 21.3127 265.171 21.5529C264.791 21.793 264.361 21.9131 263.881 21.9131ZM264.288 20.7975C264.745 20.7975 265.113 20.6387 265.392 20.321C265.67 19.9956 265.81 19.5076 265.81 18.8568C265.81 18.206 265.67 17.7218 265.392 17.4042C265.113 17.0865 264.745 16.9277 264.288 16.9277C263.83 16.9277 263.462 17.0865 263.184 17.4042C262.905 17.7218 262.765 18.206 262.765 18.8568C262.765 19.5076 262.901 19.9956 263.172 20.321C263.451 20.6387 263.823 20.7975 264.288 20.7975ZM268.934 21.7969V15.9283H274.43V21.7969H272.989V17.0439H270.375V21.7969H268.934ZM276.13 24.307V17.3926C276.13 17.1524 276.122 16.9084 276.106 16.6604C276.091 16.4125 276.068 16.1685 276.037 15.9283H277.443L277.571 17.1601H277.443C277.559 16.7495 277.803 16.4241 278.175 16.184C278.554 15.9361 278.992 15.8121 279.488 15.8121C280.007 15.8121 280.46 15.9361 280.848 16.184C281.235 16.4241 281.537 16.7728 281.754 17.2299C281.971 17.6792 282.08 18.2215 282.08 18.8568C282.08 19.4921 281.971 20.0383 281.754 20.4953C281.537 20.9524 281.235 21.3049 280.848 21.5529C280.46 21.793 280.007 21.9131 279.488 21.9131C279 21.9131 278.57 21.793 278.198 21.5529C277.826 21.3127 277.578 20.9912 277.454 20.5883H277.582V24.307H276.13ZM279.081 20.7975C279.546 20.7975 279.918 20.6387 280.197 20.321C280.476 19.9956 280.615 19.5076 280.615 18.8568C280.615 18.206 280.476 17.7218 280.197 17.4042C279.918 17.0865 279.546 16.9277 279.081 16.9277C278.624 16.9277 278.256 17.0865 277.977 17.4042C277.698 17.7218 277.559 18.206 277.559 18.8568C277.559 19.5076 277.698 19.9956 277.977 20.321C278.256 20.6387 278.624 20.7975 279.081 20.7975ZM286.33 21.9131C285.346 21.9131 284.576 21.6419 284.018 21.0996C283.46 20.5573 283.181 19.8136 283.181 18.8684C283.181 18.2564 283.301 17.7218 283.541 17.2647C283.781 16.8076 284.115 16.4513 284.541 16.1956C284.975 15.9399 285.478 15.8121 286.051 15.8121C286.617 15.8121 287.09 15.9322 287.469 16.1724C287.849 16.4125 288.135 16.7495 288.329 17.1834C288.531 17.6172 288.631 18.1247 288.631 18.7057V19.0892H284.355V18.3222H287.597L287.399 18.4849C287.399 17.9426 287.283 17.5281 287.051 17.2415C286.826 16.9548 286.497 16.8115 286.063 16.8115C285.583 16.8115 285.211 16.9819 284.947 17.3228C284.692 17.6637 284.564 18.1402 284.564 18.7522V18.9033C284.564 19.5386 284.719 20.015 285.029 20.3327C285.346 20.6425 285.792 20.7975 286.365 20.7975C286.698 20.7975 287.008 20.7549 287.295 20.6697C287.589 20.5767 287.868 20.4295 288.132 20.2281L288.562 21.2042C288.283 21.4289 287.949 21.6032 287.562 21.7272C287.175 21.8511 286.764 21.9131 286.33 21.9131ZM289.823 21.9596L289.369 20.8207C289.625 20.7278 289.838 20.6077 290.009 20.4605C290.187 20.3055 290.326 20.1119 290.427 19.8794C290.535 19.6393 290.613 19.3449 290.659 18.9962C290.706 18.6399 290.729 18.2176 290.729 17.7296V15.9283H295.401V21.7969H293.96V17.0439H292.054V17.776C292.054 18.6205 291.976 19.3294 291.821 19.9027C291.667 20.4682 291.426 20.9176 291.101 21.2507C290.776 21.5838 290.349 21.8201 289.823 21.9596ZM296.567 21.7969L297.462 20.2513C297.617 19.9879 297.807 19.7787 298.031 19.6238C298.264 19.4611 298.504 19.3797 298.752 19.3797H299.008L298.996 19.5076C298.306 19.5076 297.776 19.3565 297.404 19.0543C297.032 18.7522 296.846 18.3106 296.846 17.7296C296.846 17.1563 297.036 16.7147 297.416 16.4048C297.803 16.0871 298.368 15.9283 299.112 15.9283H302.029V21.7969H300.704V19.7284H300.042C299.802 19.7284 299.589 19.7942 299.403 19.9259C299.224 20.0576 299.073 20.2281 298.949 20.4372L298.182 21.7969H296.567ZM299.391 18.7871H300.704V16.8696H299.391C298.996 16.8696 298.698 16.9548 298.496 17.1253C298.303 17.2957 298.206 17.5281 298.206 17.8225C298.206 18.1324 298.303 18.3726 298.496 18.543C298.698 18.7057 298.996 18.7871 299.391 18.7871Z" fill="black"/>
</svg>
