<svg width="303" height="60" viewBox="0 0 303 60" fill="none" xmlns="http://www.w3.org/2000/svg">
<path d="M13.4032 18.6065L20.8492 32.0281H16.1699L11.0694 22.8256L5.99817 32.0456H1.31885L8.76481 18.624L1.31885 5.2607H5.99817L11.0694 14.4399L16.164 5.2607H20.8433L13.4032 18.6065Z" fill="white"/>
<path d="M39.0405 5.28993C40.3904 5.28993 41.3236 5.6349 41.8577 6.33654C42.3918 7.03817 42.6501 8.12571 42.6501 9.61084V32.0456H38.4183V19.5682H29.145V32.0164H24.9367V9.5816C24.9333 8.94395 24.9764 8.3069 25.0658 7.6755C25.1099 7.1885 25.2709 6.71922 25.5354 6.30731C25.5354 6.24884 25.5882 6.19036 25.688 6.13774C26.1458 5.55304 27.0829 5.2607 28.4993 5.2607L39.0405 5.28993ZM38.4183 15.9197V9.23663H29.145V15.8905L38.4183 15.9197Z" fill="white"/>
<path d="M60.3159 32.0164L51.2188 20.0237V32.0164H46.7383V5.2607H51.2188V16.2073L59.0138 5.2607H64.169L54.77 17.7677L65.8144 32.0456L60.3159 32.0164Z" fill="white"/>
<path d="M80.823 5.28993C82.1743 5.28993 83.1084 5.6349 83.6431 6.33654C84.1777 7.03817 84.4362 8.12571 84.4362 9.61084V32.0456H80.2355V19.5682H70.9529V32.0164H66.7228V9.5816C66.7194 8.94395 66.7626 8.3069 66.8521 7.6755C66.899 7.18911 67.06 6.72049 67.3221 6.30731C67.3221 6.24884 67.375 6.19036 67.4749 6.13774C67.9331 5.55304 68.8712 5.2607 70.289 5.2607L80.823 5.28993ZM80.2355 15.8905V9.23663H70.9529V15.8905H80.2355Z" fill="white"/>
<path d="M98.4065 9.16902V32.0456H94.0436V9.16902H87.6157V5.2607H104.875V9.19828L98.4065 9.16902Z" fill="white"/>
<path d="M127.117 28.0244C127.117 28.1063 127.117 28.3171 127.07 28.6566C127.024 28.9961 127 29.3414 126.942 29.7043C126.894 30.0386 126.816 30.3677 126.708 30.6877C126.609 30.9803 126.492 31.1267 126.37 31.1267C125.841 31.7393 124.893 32.0456 123.527 32.0456H113.019C111.579 32.0456 110.631 31.7393 110.176 31.1267C110.087 31.0211 110.009 30.9074 109.942 30.7872C109.545 29.9067 109.369 28.9421 109.428 27.9776V9.28783C109.452 8.66284 109.508 8.03954 109.598 7.42062C109.652 6.95412 109.857 6.51824 110.182 6.1797C110.695 5.56315 111.643 5.25683 113.025 5.26073H123.533C124.94 5.26073 125.868 5.5651 126.376 6.1797C126.475 6.26223 126.555 6.36628 126.609 6.48408C126.995 7.3806 127.17 8.35368 127.123 9.32881L127.117 28.0244ZM113.69 27.8312H122.937V9.20003H113.684L113.69 27.8312Z" fill="white"/>
<path d="M145.851 32.0164V20.7718H136.571V32.0164H132.127V5.2607H136.571V17.6509H145.851V5.2607H150.295V32.0456L145.851 32.0164Z" fill="white"/>
<path d="M0.410156 51.8083L4.46147 46.5731H6.30351L2.33963 51.8083L6.30351 57.0147H4.46147L0.410156 51.8083ZM5.38248 51.8083L9.46294 46.5731H11.3108L7.34111 51.8083L11.3108 57.0147H9.46294L5.38248 51.8083Z" fill="white"/>
<path d="M31.7499 39.7634V59.2846H29.7234V41.5491H17.4254V59.2846H15.3989V39.7634H31.7499Z" fill="white"/>
<path d="M36.7461 49.297C36.7461 43.5747 41.1808 39.3094 47.2103 39.3094C53.2399 39.3094 57.639 43.5455 57.639 49.297C57.639 55.0485 53.1747 59.2846 47.2103 59.2846C41.246 59.2846 36.7461 55.0192 36.7461 49.297ZM55.5343 49.297C55.5343 44.6162 51.9771 41.1641 47.2341 41.1641C42.4911 41.1641 38.8449 44.6104 38.8449 49.297C38.8449 53.9836 42.4021 57.4298 47.2341 57.4298C52.066 57.4298 55.5343 53.9836 55.5343 49.297Z" fill="white"/>
<path d="M68.724 50.3325H64.2089V59.2846H62.1807V39.7634H64.2089V48.4886H68.724L75.4025 39.7634H77.6542L70.3289 49.2448L78.0775 59.2846H75.6847L68.724 50.3325Z" fill="white"/>
<path d="M79.4399 49.297C79.4399 43.5747 83.8747 39.3094 89.8983 39.3094C95.9219 39.3094 100.333 43.5455 100.333 49.297C100.333 55.0485 95.8685 59.2846 89.8983 59.2846C83.928 59.2846 79.4399 55.0192 79.4399 49.297ZM98.2282 49.297C98.2282 44.6162 94.6709 41.1641 89.9279 41.1641C85.1849 41.1641 81.5447 44.6104 81.5447 49.297C81.5447 53.9836 85.1019 57.4298 89.9279 57.4298C94.7539 57.4298 98.2282 53.9836 98.2282 49.297Z" fill="white"/>
<path d="M119.864 39.7634V59.0888H117.842V41.5312H108.483L108.258 47.9922C107.981 55.7201 106.762 59.2846 103.244 59.2846C102.722 59.2824 102.202 59.2166 101.696 59.0888L101.863 57.2691C102.162 57.3422 102.468 57.3789 102.776 57.3785C105.243 57.3785 106.184 54.5626 106.433 48.044L106.71 39.7634H119.864Z" fill="white"/>
<path d="M140.301 57.4983V59.2846H126.675V39.7634H139.871V41.5497H128.712V48.497H138.666V50.2426H128.712V57.4983H140.301Z" fill="white"/>
<path d="M161.649 39.7634V59.2846H159.553V50.2744H146.971V59.2846H144.844V39.7634H146.971V48.4886H159.553V39.7634H161.649Z" fill="white"/>
<path d="M168.007 39.7634H170.037V55.9399L182.496 39.7634H184.358V59.2846H182.328V43.1371L169.875 59.2846H168.007V39.7634Z" fill="white"/>
<path d="M204.798 57.4983V59.2846H191.172V39.7634H204.373V41.5497H193.209V48.497H203.173V50.2426H193.209V57.4983H204.798Z" fill="white"/>
<path d="M216.606 39.7634H218.877V59.2846H216.606V39.7634Z" fill="white"/>
<path d="M228.973 41.5491H222.057V39.7634H237.953V41.5491H231.032V59.2846H228.949L228.973 41.5491Z" fill="white"/>
<path d="M238.862 57.0147L242.834 51.8083L238.862 46.5731H240.705L244.788 51.8083L240.705 57.0147H238.862ZM243.837 57.0147L247.809 51.8083L243.831 46.5731H245.68L249.763 51.8083L245.68 57.0147H243.837Z" fill="white"/>
<path d="M161.563 4.22179C161.563 2.0076 163.545 0.319522 165.731 0.671925L184.93 3.76709C194.825 5.36216 204.864 5.86381 214.868 5.26297L298.687 0.228902C300.754 0.104766 302.498 1.74752 302.498 3.81814V29.4306C302.498 31.564 300.652 33.2283 298.53 33.0069L272.348 30.2754C265.761 29.5883 259.133 29.3808 252.517 29.6548L165.307 33.2659C163.265 33.3505 161.563 31.7175 161.563 29.6733V4.22179Z" fill="white"/>
<path d="M169.762 20.5755V19.3602H171.602V13.7946H172.306L169.943 15.203V13.8173L172.022 12.5679H173.067V19.3602H174.794V20.5755H169.762ZM179.355 20.5755V19.0081H175.777V17.9858L179.582 12.5679H180.764V17.895H181.911V19.0081H180.764V20.5755H179.355ZM179.355 17.895V14.2944H179.628L176.868 18.2357V17.895H179.355ZM188.306 20.6891C187.806 20.6891 187.367 20.5718 186.988 20.337C186.61 20.0947 186.314 19.7502 186.102 19.3034C185.89 18.8566 185.784 18.3228 185.784 17.7019C185.784 17.0809 185.89 16.5509 186.102 16.1117C186.314 15.6649 186.61 15.3242 186.988 15.0894C187.367 14.8471 187.806 14.726 188.306 14.726C188.79 14.726 189.215 14.8471 189.578 15.0894C189.949 15.3242 190.195 15.6422 190.316 16.0436H190.191L190.316 14.8396H191.679C191.657 15.0743 191.634 15.3128 191.611 15.5551C191.596 15.7975 191.588 16.036 191.588 16.2707V20.5755H190.18L190.169 19.3943H190.305C190.184 19.788 189.938 20.1023 189.567 20.337C189.196 20.5718 188.775 20.6891 188.306 20.6891ZM188.703 19.5987C189.15 19.5987 189.51 19.4435 189.782 19.133C190.055 18.815 190.191 18.3379 190.191 17.7019C190.191 17.0658 190.055 16.5925 189.782 16.2821C189.51 15.9716 189.15 15.8164 188.703 15.8164C188.257 15.8164 187.897 15.9716 187.624 16.2821C187.352 16.5925 187.215 17.0658 187.215 17.7019C187.215 18.3379 187.348 18.815 187.613 19.133C187.886 19.4435 188.249 19.5987 188.703 19.5987ZM193.244 20.5755V14.8396H198.617V20.5755H197.208V15.93H194.653V20.5755H193.244ZM200.278 23.029V16.2707C200.278 16.036 200.27 15.7975 200.255 15.5551C200.24 15.3128 200.217 15.0743 200.187 14.8396H201.561L201.686 16.0436H201.561C201.675 15.6422 201.913 15.3242 202.277 15.0894C202.648 14.8471 203.076 14.726 203.56 14.726C204.068 14.726 204.511 14.8471 204.889 15.0894C205.268 15.3242 205.563 15.6649 205.775 16.1117C205.987 16.5509 206.093 17.0809 206.093 17.7019C206.093 18.3228 205.987 18.8566 205.775 19.3034C205.563 19.7502 205.268 20.0947 204.889 20.337C204.511 20.5718 204.068 20.6891 203.56 20.6891C203.083 20.6891 202.663 20.5718 202.3 20.337C201.936 20.1023 201.694 19.788 201.573 19.3943H201.698V23.029H200.278ZM203.163 19.5987C203.617 19.5987 203.981 19.4435 204.253 19.133C204.526 18.815 204.662 18.3379 204.662 17.7019C204.662 17.0658 204.526 16.5925 204.253 16.2821C203.981 15.9716 203.617 15.8164 203.163 15.8164C202.716 15.8164 202.356 15.9716 202.084 16.2821C201.811 16.5925 201.675 17.0658 201.675 17.7019C201.675 18.3379 201.811 18.815 202.084 19.133C202.356 19.4435 202.716 19.5987 203.163 19.5987ZM210.248 20.6891C209.286 20.6891 208.533 20.4241 207.988 19.894C207.443 19.364 207.17 18.637 207.17 17.7132C207.17 17.115 207.287 16.5925 207.522 16.1458C207.757 15.699 208.082 15.3507 208.499 15.1008C208.923 14.8509 209.415 14.726 209.975 14.726C210.528 14.726 210.99 14.8433 211.361 15.0781C211.732 15.3128 212.012 15.6422 212.202 16.0663C212.399 16.4903 212.497 16.9863 212.497 17.5542V17.929H208.317V17.1794H211.486L211.293 17.3384C211.293 16.8083 211.179 16.4032 210.952 16.1231C210.733 15.8429 210.411 15.7028 209.987 15.7028C209.517 15.7028 209.154 15.8694 208.896 16.2026C208.647 16.5357 208.522 17.0014 208.522 17.5996V17.7473C208.522 18.3682 208.673 18.8339 208.976 19.1444C209.286 19.4473 209.722 19.5987 210.282 19.5987C210.608 19.5987 210.911 19.5571 211.191 19.4738C211.479 19.3829 211.751 19.239 212.009 19.0422L212.429 19.9963C212.156 20.2159 211.831 20.3862 211.452 20.5074C211.073 20.6286 210.672 20.6891 210.248 20.6891ZM213.662 20.7346L213.219 19.6214C213.468 19.5306 213.677 19.4132 213.843 19.2693C214.017 19.1179 214.154 18.9286 214.252 18.7014C214.358 18.4667 214.434 18.1789 214.479 17.8382C214.525 17.4899 214.548 17.0772 214.548 16.6001V14.8396H219.114V20.5755H217.705V15.93H215.842V16.6455C215.842 17.4709 215.767 18.1638 215.615 18.7241C215.464 19.2769 215.229 19.7161 214.911 20.0417C214.593 20.3673 214.176 20.5983 213.662 20.7346ZM220.254 20.5755L221.128 19.0649C221.28 18.8074 221.465 18.603 221.685 18.4515C221.912 18.2925 222.147 18.213 222.389 18.213H222.639L222.628 18.3379C221.954 18.3379 221.435 18.1903 221.071 17.895C220.708 17.5996 220.526 17.168 220.526 16.6001C220.526 16.0398 220.712 15.6081 221.083 15.3053C221.461 14.9948 222.014 14.8396 222.741 14.8396H225.592V20.5755H224.297V18.5538H223.65C223.415 18.5538 223.207 18.6181 223.025 18.7468C222.851 18.8756 222.703 19.0422 222.582 19.2466L221.832 20.5755H220.254ZM223.014 17.6337H224.297V15.7596H223.014C222.628 15.7596 222.336 15.8429 222.139 16.0095C221.95 16.1761 221.855 16.4032 221.855 16.691C221.855 16.9939 221.95 17.2286 222.139 17.3952C222.336 17.5542 222.628 17.6337 223.014 17.6337ZM230.28 18.0086V16.8841H233.733V18.0086H230.28ZM238.877 20.5755V19.3602H240.717V13.7946H241.421L239.059 15.203V13.8173L241.137 12.5679H242.182V19.3602H243.909V20.5755H238.877ZM247.891 20.6891C247.543 20.6891 247.195 20.6513 246.846 20.5755C246.505 20.4998 246.184 20.3938 245.881 20.2575C245.585 20.1212 245.332 19.9584 245.12 19.7691L245.597 18.6673C245.953 18.9324 246.316 19.133 246.687 19.2693C247.066 19.3981 247.46 19.4624 247.868 19.4624C248.361 19.4624 248.743 19.3413 249.016 19.099C249.296 18.8491 249.436 18.5159 249.436 18.0994C249.436 17.6754 249.303 17.3346 249.038 17.0772C248.773 16.8121 248.41 16.6796 247.948 16.6796C247.622 16.6796 247.323 16.744 247.051 16.8727C246.786 16.9939 246.547 17.1832 246.335 17.4406H245.37V12.5679H250.345V13.7719H246.755V16.3162H246.403C246.6 16.0511 246.861 15.8467 247.187 15.7028C247.52 15.5589 247.891 15.487 248.3 15.487C248.815 15.487 249.262 15.593 249.64 15.805C250.019 16.017 250.314 16.3162 250.526 16.7023C250.738 17.0809 250.844 17.5277 250.844 18.0426C250.844 18.5651 250.723 19.027 250.481 19.4283C250.246 19.8221 249.905 20.1326 249.459 20.3597C249.019 20.5793 248.497 20.6891 247.891 20.6891ZM257.421 20.6891C256.921 20.6891 256.482 20.5718 256.104 20.337C255.725 20.0947 255.43 19.7502 255.218 19.3034C255.006 18.8566 254.9 18.3228 254.9 17.7019C254.9 17.0809 255.006 16.5509 255.218 16.1117C255.43 15.6649 255.725 15.3242 256.104 15.0894C256.482 14.8471 256.921 14.726 257.421 14.726C257.906 14.726 258.33 14.8471 258.693 15.0894C259.064 15.3242 259.31 15.6422 259.432 16.0436H259.307L259.432 14.8396H260.795C260.772 15.0743 260.749 15.3128 260.726 15.5551C260.711 15.7975 260.704 16.036 260.704 16.2707V20.5755H259.295L259.284 19.3943H259.42C259.299 19.788 259.053 20.1023 258.682 20.337C258.311 20.5718 257.891 20.6891 257.421 20.6891ZM257.819 19.5987C258.265 19.5987 258.625 19.4435 258.898 19.133C259.17 18.815 259.307 18.3379 259.307 17.7019C259.307 17.0658 259.17 16.5925 258.898 16.2821C258.625 15.9716 258.265 15.8164 257.819 15.8164C257.372 15.8164 257.012 15.9716 256.74 16.2821C256.467 16.5925 256.331 17.0658 256.331 17.7019C256.331 18.3379 256.463 18.815 256.728 19.133C257.001 19.4435 257.364 19.5987 257.819 19.5987ZM262.36 20.5755V14.8396H267.732V20.5755H266.324V15.93H263.768V20.5755H262.36ZM269.393 23.029V16.2707C269.393 16.036 269.386 15.7975 269.37 15.5551C269.355 15.3128 269.333 15.0743 269.302 14.8396H270.677L270.802 16.0436H270.677C270.79 15.6422 271.029 15.3242 271.392 15.0894C271.763 14.8471 272.191 14.726 272.676 14.726C273.183 14.726 273.626 14.8471 274.005 15.0894C274.383 15.3242 274.679 15.6649 274.891 16.1117C275.103 16.5509 275.209 17.0809 275.209 17.7019C275.209 18.3228 275.103 18.8566 274.891 19.3034C274.679 19.7502 274.383 20.0947 274.005 20.337C273.626 20.5718 273.183 20.6891 272.676 20.6891C272.199 20.6891 271.778 20.5718 271.415 20.337C271.051 20.1023 270.809 19.788 270.688 19.3943H270.813V23.029H269.393ZM272.278 19.5987C272.733 19.5987 273.096 19.4435 273.369 19.133C273.641 18.815 273.777 18.3379 273.777 17.7019C273.777 17.0658 273.641 16.5925 273.369 16.2821C273.096 15.9716 272.733 15.8164 272.278 15.8164C271.831 15.8164 271.472 15.9716 271.199 16.2821C270.927 16.5925 270.79 17.0658 270.79 17.7019C270.79 18.3379 270.927 18.815 271.199 19.133C271.472 19.4435 271.831 19.5987 272.278 19.5987ZM279.363 20.6891C278.402 20.6891 277.648 20.4241 277.103 19.894C276.558 19.364 276.285 18.637 276.285 17.7132C276.285 17.115 276.403 16.5925 276.637 16.1458C276.872 15.699 277.198 15.3507 277.614 15.1008C278.038 14.8509 278.53 14.726 279.091 14.726C279.644 14.726 280.106 14.8433 280.477 15.0781C280.848 15.3128 281.128 15.6422 281.317 16.0663C281.514 16.4903 281.612 16.9863 281.612 17.5542V17.929H277.433V17.1794H280.601L280.408 17.3384C280.408 16.8083 280.295 16.4032 280.068 16.1231C279.848 15.8429 279.526 15.7028 279.102 15.7028C278.633 15.7028 278.269 15.8694 278.012 16.2026C277.762 16.5357 277.637 17.0014 277.637 17.5996V17.7473C277.637 18.3682 277.788 18.8339 278.091 19.1444C278.402 19.4473 278.837 19.5987 279.398 19.5987C279.723 19.5987 280.026 19.5571 280.306 19.4738C280.594 19.3829 280.867 19.239 281.124 19.0422L281.544 19.9963C281.272 20.2159 280.946 20.3862 280.567 20.5074C280.189 20.6286 279.787 20.6891 279.363 20.6891ZM282.777 20.7346L282.334 19.6214C282.584 19.5306 282.792 19.4132 282.959 19.2693C283.133 19.1179 283.269 18.9286 283.368 18.7014C283.474 18.4667 283.549 18.1789 283.595 17.8382C283.64 17.4899 283.663 17.0772 283.663 16.6001V14.8396H288.229V20.5755H286.82V15.93H284.958V16.6455C284.958 17.4709 284.882 18.1638 284.731 18.7241C284.579 19.2769 284.344 19.7161 284.026 20.0417C283.708 20.3673 283.292 20.5983 282.777 20.7346ZM289.369 20.5755L290.244 19.0649C290.395 18.8074 290.581 18.603 290.8 18.4515C291.027 18.2925 291.262 18.213 291.504 18.213H291.754L291.743 18.3379C291.069 18.3379 290.55 18.1903 290.187 17.895C289.823 17.5996 289.642 17.168 289.642 16.6001C289.642 16.0398 289.827 15.6081 290.198 15.3053C290.577 14.9948 291.13 14.8396 291.856 14.8396H294.707V20.5755H293.413V18.5538H292.765C292.53 18.5538 292.322 18.6181 292.14 18.7468C291.966 18.8756 291.819 19.0422 291.697 19.2466L290.948 20.5755H289.369ZM292.129 17.6337H293.413V15.7596H292.129C291.743 15.7596 291.451 15.8429 291.255 16.0095C291.065 16.1761 290.971 16.4032 290.971 16.691C290.971 16.9939 291.065 17.2286 291.255 17.3952C291.451 17.5542 291.743 17.6337 292.129 17.6337Z" fill="black"/>
</svg>
