<svg width="270" height="54" viewBox="0 0 270 54" fill="none" xmlns="http://www.w3.org/2000/svg">
<path d="M12.3865 17.3169L19.0217 29.2798H14.8519L10.3069 21.0775L5.78792 29.2954H1.61816L8.25327 17.3326L1.61816 5.42168H5.78792L10.3069 13.6033L14.8467 5.42168H19.0164L12.3865 17.3169Z" fill="white"/>
<path d="M35.2321 5.44774C36.435 5.44774 37.2666 5.75521 37.7426 6.38059C38.2185 7.00596 38.4486 7.9753 38.4486 9.29901V29.2954H34.6777V18.1742H26.4142V29.2694H22.6642V9.27295C22.6612 8.70461 22.6996 8.1368 22.7793 7.57402C22.8185 7.13995 22.962 6.72168 23.1977 6.35453C23.1977 6.30242 23.2448 6.2503 23.3337 6.2034C23.7416 5.68225 24.5767 5.42168 25.8389 5.42168L35.2321 5.44774ZM34.6777 14.9222V8.96548H26.4142V14.8961L34.6777 14.9222Z" fill="white"/>
<path d="M54.1903 29.2694L46.0839 18.5801V29.2694H42.0913V5.42168H46.0839V15.1785L53.03 5.42168H57.6238L49.2484 16.5694L59.0901 29.2954L54.1903 29.2694Z" fill="white"/>
<path d="M72.4648 5.44774C73.6689 5.44774 74.5013 5.75521 74.9777 6.38059C75.4541 7.00596 75.6845 7.9753 75.6845 9.29901V29.2954H71.9412V18.1742H63.6695V29.2694H59.9001V9.27295C59.897 8.70461 59.9355 8.1368 60.0152 7.57402C60.0571 7.1405 60.2005 6.72281 60.4341 6.35453C60.4341 6.30242 60.4812 6.2503 60.5702 6.2034C60.9785 5.68225 61.8144 5.42168 63.0779 5.42168L72.4648 5.44774ZM71.9412 14.8961V8.96548H63.6695V14.8961H71.9412Z" fill="white"/>
<path d="M88.1327 8.90522V29.2954H84.245V8.90522H78.5171V5.42168H93.8969V8.93129L88.1327 8.90522Z" fill="white"/>
<path d="M113.717 25.7112C113.717 25.7843 113.717 25.9721 113.675 26.2747C113.634 26.5773 113.613 26.8851 113.561 27.2086C113.518 27.5065 113.449 27.7999 113.353 28.0851C113.264 28.3459 113.16 28.4763 113.051 28.4763C112.579 29.0224 111.735 29.2954 110.518 29.2954H101.154C99.8706 29.2954 99.0261 29.0224 98.6204 28.4763C98.5418 28.3822 98.4721 28.2809 98.4123 28.1737C98.0583 27.3889 97.9011 26.5292 97.9545 25.6695V9.01111C97.9751 8.45405 98.0255 7.8985 98.1054 7.34684C98.1536 6.93105 98.3363 6.54254 98.6256 6.2408C99.0834 5.69126 99.9279 5.41823 101.159 5.42171H110.523C111.777 5.42171 112.604 5.693 113.056 6.2408C113.145 6.31435 113.216 6.4071 113.264 6.51209C113.608 7.31117 113.764 8.1785 113.722 9.04763L113.717 25.7112ZM101.752 25.5391H109.992V8.93286H101.747L101.752 25.5391Z" fill="white"/>
<path d="M130.411 29.2694V19.2469H122.141V29.2694H118.182V5.42168H122.141V16.4652H130.411V5.42168H134.371V29.2954L130.411 29.2694Z" fill="white"/>
<path d="M0.808594 46.9101L4.41872 42.244H6.06016L2.52795 46.9101L6.06016 51.5507H4.41872L0.808594 46.9101ZM5.23944 46.9101L8.87553 42.244H10.5222L6.98477 46.9101L10.5222 51.5507H8.87553L5.23944 46.9101Z" fill="white"/>
<path d="M28.7354 36.1743V53.5739H26.9296V37.766H15.9709V53.5739H14.165V36.1743H28.7354Z" fill="white"/>
<path d="M33.1875 44.6718C33.1875 39.5715 37.1393 35.7697 42.5122 35.7697C47.8851 35.7697 51.8052 39.5454 51.8052 44.6718C51.8052 49.7982 47.827 53.5739 42.5122 53.5739C37.1974 53.5739 33.1875 49.7721 33.1875 44.6718ZM49.9297 44.6718C49.9297 40.4997 46.7598 37.4229 42.5333 37.4229C38.3068 37.4229 35.0577 40.4945 35.0577 44.6718C35.0577 48.849 38.2276 51.9207 42.5333 51.9207C46.8391 51.9207 49.9297 48.849 49.9297 44.6718Z" fill="white"/>
<path d="M61.6823 45.5948H57.6589V53.5739H55.8516V36.1743H57.6589V43.9513H61.6823L67.6336 36.1743H69.64L63.1125 44.6253L70.0172 53.5739H67.885L61.6823 45.5948Z" fill="white"/>
<path d="M71.2319 44.6718C71.2319 39.5715 75.1837 35.7697 80.5514 35.7697C85.919 35.7697 89.8496 39.5454 89.8496 44.6718C89.8496 49.7982 85.8715 53.5739 80.5514 53.5739C75.2313 53.5739 71.2319 49.7721 71.2319 44.6718ZM87.9741 44.6718C87.9741 40.4997 84.8043 37.4229 80.5778 37.4229C76.3513 37.4229 73.1074 40.4945 73.1074 44.6718C73.1074 48.849 76.2773 51.9207 80.5778 51.9207C84.8782 51.9207 87.9741 48.849 87.9741 44.6718Z" fill="white"/>
<path d="M107.253 36.1743V53.3993H105.452V37.7501H97.1124L96.9117 43.5088C96.6646 50.3968 95.5784 53.5739 92.4435 53.5739C91.9783 53.5719 91.515 53.5133 91.064 53.3993L91.2132 51.7775C91.4794 51.8426 91.7525 51.8753 92.0266 51.875C94.2246 51.875 95.0637 49.3651 95.285 43.555L95.5321 36.1743H107.253Z" fill="white"/>
<path d="M125.465 51.9817V53.5739H113.323V36.1743H125.082V37.7665H115.138V43.9587H124.008V45.5146H115.138V51.9817H125.465Z" fill="white"/>
<path d="M144.488 36.1743V53.5739H142.62V45.5429H131.408V53.5739H129.513V36.1743H131.408V43.9513H142.62V36.1743H144.488Z" fill="white"/>
<path d="M150.154 36.1743H151.963V50.5927L163.065 36.1743H164.724V53.5739H162.915V39.1814L151.818 53.5739H150.154V36.1743Z" fill="white"/>
<path d="M182.938 51.9817V53.5739H170.796V36.1743H182.559V37.7665H172.612V43.9587H181.49V45.5146H172.612V51.9817H182.938Z" fill="white"/>
<path d="M193.461 36.1743H195.485V53.5739H193.461V36.1743Z" fill="white"/>
<path d="M204.481 37.766H198.318V36.1743H212.484V37.766H206.315V53.5739H204.46L204.481 37.766Z" fill="white"/>
<path d="M213.293 51.5507L216.833 46.9101L213.293 42.244H214.936L218.574 46.9101L214.936 51.5507H213.293ZM217.727 51.5507L221.266 46.9101L217.721 42.244H219.369L223.007 46.9101L219.369 51.5507H217.727Z" fill="white"/>
<path d="M144.412 4.47322C144.412 2.50014 146.178 0.9959 148.126 1.30993L165.235 4.06803C174.052 5.4894 182.998 5.93642 191.913 5.40101L266.604 0.915148C268.445 0.804531 270 2.26839 270 4.11352V26.9368C270 28.8379 268.354 30.3209 266.463 30.1236L243.132 27.6896C237.263 27.0773 231.357 26.8925 225.461 27.1366L147.749 30.3544C145.929 30.4298 144.412 28.9746 144.412 27.153V4.47322Z" fill="white"/>
<path d="M151.718 19.2439V18.1609H153.358V13.2014H153.985L151.88 14.4565V13.2217L153.732 12.1083H154.664V18.1609H156.202V19.2439H151.718ZM159.589 19.3452C159.096 19.3452 158.624 19.2743 158.172 19.1326C157.72 18.9842 157.349 18.7817 157.058 18.5253L157.483 17.5435C157.801 17.7865 158.128 17.9653 158.465 18.08C158.809 18.1947 159.17 18.252 159.548 18.252C160.007 18.252 160.355 18.1609 160.591 17.9788C160.827 17.7966 160.945 17.53 160.945 17.1792C160.945 16.8418 160.827 16.5887 160.591 16.4201C160.361 16.2446 160.024 16.1569 159.579 16.1569H158.425V15.1144H159.467C159.852 15.1144 160.159 15.0199 160.388 14.831C160.618 14.642 160.732 14.3823 160.732 14.0516C160.732 13.7412 160.625 13.5051 160.409 13.3431C160.199 13.1812 159.896 13.1002 159.498 13.1002C158.782 13.1002 158.152 13.3431 157.605 13.829L157.18 12.8573C157.47 12.5874 157.828 12.3782 158.253 12.2298C158.685 12.0813 159.137 12.0071 159.609 12.0071C160.351 12.0071 160.932 12.1758 161.35 12.5132C161.775 12.8438 161.988 13.306 161.988 13.8998C161.988 14.3249 161.866 14.6927 161.623 15.003C161.387 15.3067 161.06 15.5091 160.641 15.6103V15.4889C161.134 15.5698 161.515 15.7723 161.785 16.0962C162.062 16.4133 162.2 16.8114 162.2 17.2905C162.2 17.9248 161.967 18.4275 161.502 18.7986C161.036 19.163 160.398 19.3452 159.589 19.3452ZM168.243 19.3452C167.798 19.3452 167.406 19.2406 167.069 19.0314C166.731 18.8155 166.468 18.5084 166.279 18.1103C166.09 17.7122 165.996 17.2365 165.996 16.6832C165.996 16.1299 166.09 15.6576 166.279 15.2662C166.468 14.8681 166.731 14.5645 167.069 14.3553C167.406 14.1393 167.798 14.0314 168.243 14.0314C168.675 14.0314 169.053 14.1393 169.376 14.3553C169.707 14.5645 169.926 14.8479 170.034 15.2055H169.923L170.034 14.1326H171.249C171.229 14.3418 171.208 14.5543 171.188 14.7703C171.175 14.9862 171.168 15.1987 171.168 15.4079V19.2439H169.913L169.903 18.1913H170.024C169.916 18.5422 169.697 18.8222 169.366 19.0314C169.036 19.2406 168.661 19.3452 168.243 19.3452ZM168.597 18.3735C168.995 18.3735 169.316 18.2352 169.559 17.9585C169.802 17.6751 169.923 17.25 169.923 16.6832C169.923 16.1164 169.802 15.6947 169.559 15.418C169.316 15.1414 168.995 15.003 168.597 15.003C168.199 15.003 167.878 15.1414 167.636 15.418C167.393 15.6947 167.271 16.1164 167.271 16.6832C167.271 17.25 167.389 17.6751 167.625 17.9585C167.868 18.2352 168.192 18.3735 168.597 18.3735ZM172.644 19.2439V14.1326H177.431V19.2439H176.176V15.1043H173.899V19.2439H172.644ZM178.911 21.4302V15.4079C178.911 15.1987 178.904 14.9862 178.891 14.7703C178.877 14.5543 178.857 14.3418 178.83 14.1326H180.055L180.166 15.2055H180.055C180.156 14.8479 180.369 14.5645 180.692 14.3553C181.023 14.1393 181.404 14.0314 181.836 14.0314C182.288 14.0314 182.683 14.1393 183.02 14.3553C183.358 14.5645 183.621 14.8681 183.81 15.2662C183.999 15.6576 184.093 16.1299 184.093 16.6832C184.093 17.2365 183.999 17.7122 183.81 18.1103C183.621 18.5084 183.358 18.8155 183.02 19.0314C182.683 19.2406 182.288 19.3452 181.836 19.3452C181.411 19.3452 181.037 19.2406 180.713 19.0314C180.389 18.8222 180.173 18.5422 180.065 18.1913H180.176V21.4302H178.911ZM181.482 18.3735C181.887 18.3735 182.211 18.2352 182.454 17.9585C182.697 17.6751 182.818 17.25 182.818 16.6832C182.818 16.1164 182.697 15.6947 182.454 15.418C182.211 15.1414 181.887 15.003 181.482 15.003C181.084 15.003 180.763 15.1414 180.52 15.418C180.278 15.6947 180.156 16.1164 180.156 16.6832C180.156 17.25 180.278 17.6751 180.52 17.9585C180.763 18.2352 181.084 18.3735 181.482 18.3735ZM187.796 19.3452C186.939 19.3452 186.267 19.109 185.781 18.6367C185.296 18.1643 185.053 17.5165 185.053 16.6933C185.053 16.1603 185.157 15.6947 185.366 15.2966C185.576 14.8985 185.866 14.5881 186.237 14.3654C186.615 14.1427 187.053 14.0314 187.553 14.0314C188.045 14.0314 188.457 14.136 188.788 14.3452C189.118 14.5543 189.368 14.8479 189.537 15.2257C189.712 15.6036 189.8 16.0456 189.8 16.5516V16.8856H186.075V16.2176H188.899L188.727 16.3593C188.727 15.887 188.626 15.526 188.423 15.2763C188.227 15.0267 187.941 14.9018 187.563 14.9018C187.144 14.9018 186.821 15.0503 186.591 15.3472C186.368 15.6441 186.257 16.0591 186.257 16.5921V16.7237C186.257 17.277 186.392 17.692 186.662 17.9686C186.939 18.2385 187.327 18.3735 187.826 18.3735C188.116 18.3735 188.386 18.3364 188.636 18.2622C188.892 18.1812 189.135 18.053 189.364 17.8775L189.739 18.7277C189.496 18.9234 189.206 19.0753 188.868 19.1832C188.531 19.2912 188.173 19.3452 187.796 19.3452ZM190.837 19.3856L190.443 18.3937C190.665 18.3128 190.851 18.2082 190.999 18.08C191.154 17.945 191.276 17.7763 191.364 17.5739C191.458 17.3647 191.526 17.1083 191.566 16.8047C191.607 16.4943 191.627 16.1265 191.627 15.7014V14.1326H195.696V19.2439H194.441V15.1043H192.781V15.7419C192.781 16.4774 192.713 17.0948 192.578 17.5941C192.443 18.0867 192.234 18.4781 191.951 18.7682C191.667 19.0584 191.296 19.2642 190.837 19.3856ZM196.712 19.2439L197.491 17.8978C197.626 17.6684 197.791 17.4862 197.987 17.3512C198.189 17.2095 198.399 17.1387 198.614 17.1387H198.837L198.827 17.25C198.226 17.25 197.764 17.1184 197.44 16.8553C197.116 16.5921 196.955 16.2075 196.955 15.7014C196.955 15.2021 197.12 14.8175 197.45 14.5476C197.788 14.2709 198.28 14.1326 198.928 14.1326H201.469V19.2439H200.315V17.4423H199.738C199.529 17.4423 199.343 17.4997 199.181 17.6144C199.026 17.7291 198.894 17.8775 198.787 18.0597L198.118 19.2439H196.712ZM199.171 16.6225H200.315V14.9524H199.171C198.827 14.9524 198.567 15.0267 198.392 15.1751C198.223 15.3236 198.139 15.526 198.139 15.7824C198.139 16.0523 198.223 16.2615 198.392 16.4099C198.567 16.5516 198.827 16.6225 199.171 16.6225ZM205.646 16.9565V15.9545H208.723V16.9565H205.646ZM213.307 19.2439V18.1609H214.947V13.2014H215.574L213.469 14.4565V13.2217L215.321 12.1083H216.252V18.1609H217.791V19.2439H213.307ZM221.339 19.3452C221.029 19.3452 220.719 19.3114 220.408 19.2439C220.105 19.1765 219.818 19.082 219.548 18.9605C219.285 18.8391 219.059 18.694 218.87 18.5253L219.295 17.5435C219.612 17.7797 219.936 17.9585 220.267 18.08C220.604 18.1947 220.955 18.252 221.319 18.252C221.758 18.252 222.099 18.1441 222.341 17.9282C222.591 17.7055 222.716 17.4086 222.716 17.0375C222.716 16.6596 222.598 16.356 222.362 16.1265C222.126 15.8904 221.802 15.7723 221.39 15.7723C221.1 15.7723 220.833 15.8296 220.59 15.9443C220.354 16.0523 220.142 16.221 219.953 16.4504H219.092V12.1083H223.526V13.1812H220.327V15.4484H220.014C220.189 15.2122 220.422 15.03 220.712 14.9018C221.009 14.7736 221.339 14.7095 221.704 14.7095C222.163 14.7095 222.561 14.804 222.898 14.9929C223.236 15.1819 223.499 15.4484 223.688 15.7925C223.877 16.1299 223.971 16.528 223.971 16.9869C223.971 17.4524 223.863 17.864 223.647 18.2217C223.438 18.5726 223.134 18.8492 222.736 19.0516C222.345 19.2473 221.879 19.3452 221.339 19.3452ZM229.832 19.3452C229.386 19.3452 228.995 19.2406 228.657 19.0314C228.32 18.8155 228.057 18.5084 227.868 18.1103C227.679 17.7122 227.585 17.2365 227.585 16.6832C227.585 16.1299 227.679 15.6576 227.868 15.2662C228.057 14.8681 228.32 14.5645 228.657 14.3553C228.995 14.1393 229.386 14.0314 229.832 14.0314C230.263 14.0314 230.641 14.1393 230.965 14.3553C231.296 14.5645 231.515 14.8479 231.623 15.2055H231.512L231.623 14.1326H232.838C232.817 14.3418 232.797 14.5543 232.777 14.7703C232.763 14.9862 232.757 15.1987 232.757 15.4079V19.2439H231.502L231.491 18.1913H231.613C231.505 18.5422 231.286 18.8222 230.955 19.0314C230.624 19.2406 230.25 19.3452 229.832 19.3452ZM230.186 18.3735C230.584 18.3735 230.904 18.2352 231.147 17.9585C231.39 17.6751 231.512 17.25 231.512 16.6832C231.512 16.1164 231.39 15.6947 231.147 15.418C230.904 15.1414 230.584 15.003 230.186 15.003C229.788 15.003 229.467 15.1414 229.224 15.418C228.981 15.6947 228.86 16.1164 228.86 16.6832C228.86 17.25 228.978 17.6751 229.214 17.9585C229.457 18.2352 229.781 18.3735 230.186 18.3735ZM234.232 19.2439V14.1326H239.02V19.2439H237.765V15.1043H235.487V19.2439H234.232ZM240.5 21.4302V15.4079C240.5 15.1987 240.493 14.9862 240.48 14.7703C240.466 14.5543 240.446 14.3418 240.419 14.1326H241.644L241.755 15.2055H241.644C241.745 14.8479 241.957 14.5645 242.281 14.3553C242.612 14.1393 242.993 14.0314 243.425 14.0314C243.877 14.0314 244.272 14.1393 244.609 14.3553C244.947 14.5645 245.21 14.8681 245.399 15.2662C245.588 15.6576 245.682 16.1299 245.682 16.6832C245.682 17.2365 245.588 17.7122 245.399 18.1103C245.21 18.5084 244.947 18.8155 244.609 19.0314C244.272 19.2406 243.877 19.3452 243.425 19.3452C243 19.3452 242.625 19.2406 242.301 19.0314C241.978 18.8222 241.762 18.5422 241.654 18.1913H241.765V21.4302H240.5ZM243.071 18.3735C243.476 18.3735 243.799 18.2352 244.042 17.9585C244.285 17.6751 244.407 17.25 244.407 16.6832C244.407 16.1164 244.285 15.6947 244.042 15.418C243.799 15.1414 243.476 15.003 243.071 15.003C242.673 15.003 242.352 15.1414 242.109 15.418C241.866 15.6947 241.745 16.1164 241.745 16.6832C241.745 17.25 241.866 17.6751 242.109 17.9585C242.352 18.2352 242.673 18.3735 243.071 18.3735ZM249.384 19.3452C248.527 19.3452 247.856 19.109 247.37 18.6367C246.884 18.1643 246.641 17.5165 246.641 16.6933C246.641 16.1603 246.746 15.6947 246.955 15.2966C247.164 14.8985 247.455 14.5881 247.826 14.3654C248.204 14.1427 248.642 14.0314 249.141 14.0314C249.634 14.0314 250.046 14.136 250.376 14.3452C250.707 14.5543 250.957 14.8479 251.125 15.2257C251.301 15.6036 251.388 16.0456 251.388 16.5516V16.8856H247.664V16.2176H250.488L250.316 16.3593C250.316 15.887 250.214 15.526 250.012 15.2763C249.816 15.0267 249.529 14.9018 249.152 14.9018C248.733 14.9018 248.409 15.0503 248.18 15.3472C247.957 15.6441 247.846 16.0591 247.846 16.5921V16.7237C247.846 17.277 247.981 17.692 248.251 17.9686C248.527 18.2385 248.915 18.3735 249.415 18.3735C249.705 18.3735 249.975 18.3364 250.224 18.2622C250.481 18.1812 250.724 18.053 250.953 17.8775L251.328 18.7277C251.085 18.9234 250.795 19.0753 250.457 19.1832C250.12 19.2912 249.762 19.3452 249.384 19.3452ZM252.426 19.3856L252.031 18.3937C252.254 18.3128 252.44 18.2082 252.588 18.08C252.743 17.945 252.865 17.7763 252.952 17.5739C253.047 17.3647 253.114 17.1083 253.155 16.8047C253.195 16.4943 253.216 16.1265 253.216 15.7014V14.1326H257.284V19.2439H256.029V15.1043H254.369V15.7419C254.369 16.4774 254.302 17.0948 254.167 17.5941C254.032 18.0867 253.823 18.4781 253.539 18.7682C253.256 19.0584 252.885 19.2642 252.426 19.3856ZM258.3 19.2439L259.08 17.8978C259.215 17.6684 259.38 17.4862 259.576 17.3512C259.778 17.2095 259.987 17.1387 260.203 17.1387H260.426L260.416 17.25C259.815 17.25 259.353 17.1184 259.029 16.8553C258.705 16.5921 258.543 16.2075 258.543 15.7014C258.543 15.2021 258.709 14.8175 259.039 14.5476C259.377 14.2709 259.869 14.1326 260.517 14.1326H263.057V19.2439H261.904V17.4423H261.327C261.117 17.4423 260.932 17.4997 260.77 17.6144C260.615 17.7291 260.483 17.8775 260.375 18.0597L259.707 19.2439H258.3ZM260.76 16.6225H261.904V14.9524H260.76C260.416 14.9524 260.156 15.0267 259.98 15.1751C259.812 15.3236 259.727 15.526 259.727 15.7824C259.727 16.0523 259.812 16.2615 259.98 16.4099C260.156 16.5516 260.416 16.6225 260.76 16.6225Z" fill="black"/>
</svg>
