<svg width="481" height="95" viewBox="0 0 481 95" fill="none" xmlns="http://www.w3.org/2000/svg">
<path d="M21.0692 29.5393L32.8903 50.8473H25.4615L17.3641 36.2375L9.31309 50.8751H1.88428L13.7054 29.5671L1.88428 8.35181H9.31309L17.3641 22.9246L25.4522 8.35181H32.881L21.0692 29.5393Z" fill="white"/>
<path d="M61.7713 8.39822C63.9144 8.39822 65.396 8.94589 66.2439 10.0598C67.0919 11.1737 67.5019 12.9003 67.5019 15.258V50.8751H60.7836V31.0662H46.0614V50.8287H39.3804V15.2116C39.375 14.1993 39.4435 13.1879 39.5854 12.1855C39.6553 11.4124 39.911 10.6673 40.3309 10.0134C40.3309 9.92056 40.4147 9.82773 40.5731 9.74419C41.2999 8.81593 42.7877 8.35181 45.0364 8.35181L61.7713 8.39822ZM60.7836 25.2739V14.6639H46.0614V25.2275L60.7836 25.2739Z" fill="white"/>
<path d="M95.5465 50.8287L81.1041 31.7893V50.8287H73.991V8.35181H81.1041V25.7304L93.4793 8.35181H101.664L86.742 28.2078L104.276 50.8751L95.5465 50.8287Z" fill="white"/>
<path d="M128.104 8.39822C130.249 8.39822 131.732 8.94589 132.581 10.0598C133.43 11.1737 133.84 12.9003 133.84 15.258V50.8751H127.171V31.0662H112.434V50.8287H105.719V15.2116C105.713 14.1993 105.782 13.1879 105.924 12.1855C105.998 11.4133 106.254 10.6693 106.67 10.0134C106.67 9.92056 106.754 9.82773 106.912 9.74419C107.64 8.81593 109.129 8.35181 111.38 8.35181L128.104 8.39822ZM127.171 25.2275V14.6639H112.434V25.2275H127.171Z" fill="white"/>
<path d="M156.019 14.5566V50.8751H149.093V14.5566H138.888V8.35181H166.288V14.603L156.019 14.5566Z" fill="white"/>
<path d="M201.599 44.4911C201.599 44.6211 201.599 44.9557 201.525 45.4947C201.451 46.0336 201.414 46.5819 201.321 47.158C201.246 47.6887 201.121 48.2113 200.95 48.7192C200.793 49.1838 200.607 49.4162 200.413 49.4162C199.573 50.3888 198.068 50.8751 195.899 50.8751H179.217C176.931 50.8751 175.426 50.3888 174.703 49.4162C174.563 49.2485 174.439 49.0681 174.333 48.8772C173.702 47.4793 173.422 45.948 173.517 44.4167V14.7452C173.554 13.753 173.643 12.7635 173.786 11.7809C173.872 11.0403 174.197 10.3483 174.713 9.81081C175.528 8.83198 177.033 8.34567 179.226 8.35187H195.909C198.142 8.35187 199.616 8.83508 200.422 9.81081C200.58 9.94182 200.707 10.107 200.793 10.294C201.405 11.7173 201.684 13.2622 201.608 14.8103L201.599 44.4911ZM180.283 44.1844H194.963V14.6058H180.273L180.283 44.1844Z" fill="white"/>
<path d="M231.34 50.8287V32.9769H216.607V50.8287H209.552V8.35181H216.607V28.0222H231.34V8.35181H238.395V50.8751L231.34 50.8287Z" fill="white"/>
<path d="M0.442139 82.2499L6.87393 73.9386H9.79832L3.50533 82.2499L9.79832 90.5155H6.87393L0.442139 82.2499ZM8.33611 82.2499L14.8142 73.9386H17.7478L11.4456 82.2499L17.7478 90.5155H14.8142L8.33611 82.2499Z" fill="white"/>
<path d="M50.1961 63.1276V94.1192H46.9788V65.9626H27.4548V94.1192H24.2375V63.1276H50.1961Z" fill="white"/>
<path d="M58.1277 78.263C58.1277 69.1785 65.1681 62.4069 74.7405 62.4069C84.3129 62.4069 91.2969 69.132 91.2969 78.263C91.2969 87.394 84.2094 94.1192 74.7405 94.1192C65.2717 94.1192 58.1277 87.3476 58.1277 78.263ZM87.9555 78.263C87.9555 70.8319 82.3081 65.3514 74.7782 65.3514C67.2483 65.3514 61.4596 70.8226 61.4596 78.263C61.4596 85.7034 67.1071 91.1746 74.7782 91.1746C82.4493 91.1746 87.9555 85.7034 87.9555 78.263Z" fill="white"/>
<path d="M108.896 79.907H101.728V94.1192H98.5078V63.1276H101.728V76.9796H108.896L119.499 63.1276H123.073L111.444 78.1801L123.745 94.1192H119.947L108.896 79.907Z" fill="white"/>
<path d="M125.908 78.263C125.908 69.1785 132.948 62.4069 142.511 62.4069C152.074 62.4069 159.077 69.132 159.077 78.263C159.077 87.394 151.99 94.1192 142.511 94.1192C133.033 94.1192 125.908 87.3476 125.908 78.263ZM155.736 78.263C155.736 70.8319 150.088 65.3514 142.558 65.3514C135.029 65.3514 129.249 70.8226 129.249 78.263C129.249 85.7034 134.897 91.1746 142.558 91.1746C150.22 91.1746 155.736 85.7034 155.736 78.263Z" fill="white"/>
<path d="M190.083 63.1276V93.8083H186.873V65.9342H172.016L171.659 76.1916C171.219 88.4602 169.283 94.1192 163.698 94.1192C162.869 94.1156 162.044 94.0112 161.24 93.8083L161.506 90.9195C161.981 91.0355 162.467 91.0938 162.955 91.0931C166.871 91.0931 168.366 86.6227 168.761 76.2739L169.201 63.1276H190.083Z" fill="white"/>
<path d="M222.532 91.2833V94.1192H200.9V63.1276H221.849V65.9635H204.133V76.993H219.936V79.7642H204.133V91.2833H222.532Z" fill="white"/>
<path d="M256.422 63.1276V94.1192H253.093V79.8147H233.119V94.1192H229.742V63.1276H233.119V76.9796H253.093V63.1276H256.422Z" fill="white"/>
<path d="M266.517 63.1276H269.74V88.8092L289.52 63.1276H292.476V94.1192H289.253V68.4837L269.482 94.1192H266.517V63.1276Z" fill="white"/>
<path d="M324.924 91.2833V94.1192H303.292V63.1276H324.249V65.9635H306.526V76.993H322.345V79.7642H306.526V91.2833H324.924Z" fill="white"/>
<path d="M343.671 63.1276H347.277V94.1192H343.671V63.1276Z" fill="white"/>
<path d="M363.304 65.9626H352.325V63.1276H377.562V65.9626H366.573V94.1192H363.267L363.304 65.9626Z" fill="white"/>
<path d="M379.004 90.5155L385.31 82.2499L379.004 73.9386H381.93L388.411 82.2499L381.93 90.5155H379.004ZM386.902 90.5155L393.208 82.2499L386.893 73.9386H389.828L396.31 82.2499L389.828 90.5155H386.902Z" fill="white"/>
<path d="M256.284 6.70244C256.284 3.18722 259.43 0.507267 262.901 1.06674L293.381 5.98056C309.089 8.51287 325.028 9.30927 340.911 8.3554L473.98 0.363399C477.261 0.166324 480.03 2.77433 480.03 6.0616V46.7235C480.03 50.1105 477.098 52.7526 473.729 52.4011L432.163 48.0647C421.707 46.9738 411.185 46.6445 400.68 47.0795L262.228 52.8123C258.986 52.9466 256.284 50.3541 256.284 47.1087V6.70244Z" fill="white"/>
<path d="M269.299 33.202V31.2725H272.221V22.4367H273.339L269.588 24.6727V22.4727L272.888 20.4892H274.547V31.2725H277.288V33.202H269.299ZM284.53 33.202V30.7135H278.85V29.0906L284.89 20.4892H286.766V28.9463H288.587V30.7135H286.766V33.202H284.53ZM284.53 28.9463V23.2301H284.963L280.581 29.4873V28.9463H284.53ZM298.74 33.3823C297.946 33.3823 297.249 33.196 296.648 32.8233C296.047 32.4386 295.578 31.8916 295.241 31.1824C294.905 30.4731 294.736 29.6256 294.736 28.6398C294.736 27.654 294.905 26.8125 295.241 26.1153C295.578 25.406 296.047 24.865 296.648 24.4923C297.249 24.1077 297.946 23.9153 298.74 23.9153C299.509 23.9153 300.182 24.1077 300.759 24.4923C301.348 24.865 301.739 25.3699 301.931 26.0071H301.733L301.931 24.0956H304.095C304.059 24.4683 304.023 24.847 303.987 25.2317C303.963 25.6164 303.951 25.995 303.951 26.3677V33.202H301.715L301.697 31.3266H301.913C301.721 31.9517 301.33 32.4506 300.741 32.8233C300.152 33.196 299.485 33.3823 298.74 33.3823ZM299.371 31.6512C300.08 31.6512 300.651 31.4048 301.084 30.9119C301.517 30.407 301.733 29.6496 301.733 28.6398C301.733 27.63 301.517 26.8786 301.084 26.3857C300.651 25.8929 300.08 25.6464 299.371 25.6464C298.662 25.6464 298.091 25.8929 297.658 26.3857C297.225 26.8786 297.009 27.63 297.009 28.6398C297.009 29.6496 297.219 30.407 297.64 30.9119C298.072 31.4048 298.65 31.6512 299.371 31.6512ZM306.58 33.202V24.0956H315.109V33.202H312.873V25.8267H308.816V33.202H306.58ZM317.746 37.097V26.3677C317.746 25.995 317.734 25.6164 317.71 25.2317C317.686 24.847 317.65 24.4683 317.602 24.0956H319.784L319.982 26.0071H319.784C319.964 25.3699 320.343 24.865 320.92 24.4923C321.509 24.1077 322.188 23.9153 322.958 23.9153C323.763 23.9153 324.466 24.1077 325.067 24.4923C325.668 24.865 326.137 25.406 326.474 26.1153C326.81 26.8125 326.979 27.654 326.979 28.6398C326.979 29.6256 326.81 30.4731 326.474 31.1824C326.137 31.8916 325.668 32.4386 325.067 32.8233C324.466 33.196 323.763 33.3823 322.958 33.3823C322.2 33.3823 321.533 33.196 320.956 32.8233C320.379 32.4506 319.994 31.9517 319.802 31.3266H320V37.097H317.746ZM322.326 31.6512C323.048 31.6512 323.625 31.4048 324.058 30.9119C324.49 30.407 324.707 29.6496 324.707 28.6398C324.707 27.63 324.49 26.8786 324.058 26.3857C323.625 25.8929 323.048 25.6464 322.326 25.6464C321.617 25.6464 321.046 25.8929 320.613 26.3857C320.181 26.8786 319.964 27.63 319.964 28.6398C319.964 29.6496 320.181 30.407 320.613 30.9119C321.046 31.4048 321.617 31.6512 322.326 31.6512ZM333.575 33.3823C332.048 33.3823 330.852 32.9615 329.986 32.12C329.121 31.2785 328.688 30.1245 328.688 28.6578C328.688 27.7081 328.874 26.8786 329.247 26.1694C329.62 25.4601 330.137 24.9071 330.798 24.5104C331.471 24.1137 332.252 23.9153 333.142 23.9153C334.02 23.9153 334.753 24.1016 335.342 24.4743C335.931 24.847 336.376 25.3699 336.676 26.0431C336.989 26.7163 337.145 27.5038 337.145 28.4054V29.0004H330.509V27.8103H335.54L335.234 28.0628C335.234 27.2212 335.053 26.5781 334.693 26.1333C334.344 25.6885 333.833 25.4661 333.16 25.4661C332.415 25.4661 331.838 25.7306 331.429 26.2595C331.032 26.7885 330.834 27.5278 330.834 28.4775V28.7119C330.834 29.6977 331.074 30.437 331.555 30.9299C332.048 31.4108 332.739 31.6512 333.629 31.6512C334.146 31.6512 334.627 31.5851 335.072 31.4528C335.528 31.3086 335.961 31.0802 336.37 30.7676L337.037 32.2823C336.604 32.631 336.087 32.9014 335.486 33.0938C334.885 33.2861 334.248 33.3823 333.575 33.3823ZM338.994 33.4544L338.291 31.6873C338.687 31.543 339.018 31.3567 339.282 31.1283C339.559 30.8878 339.775 30.5873 339.932 30.2266C340.1 29.854 340.22 29.3972 340.292 28.8562C340.364 28.3032 340.4 27.648 340.4 26.8907V24.0956H347.65V33.202H345.413V25.8267H342.456V26.9628C342.456 28.2731 342.336 29.3731 342.096 30.2627C341.855 31.1403 341.482 31.8375 340.978 32.3545C340.473 32.8714 339.811 33.238 338.994 33.4544ZM349.46 33.202L350.848 30.8037C351.088 30.3949 351.383 30.0704 351.732 29.8299C352.092 29.5775 352.465 29.4512 352.85 29.4512H353.246L353.228 29.6496C352.158 29.6496 351.335 29.4152 350.758 28.9463C350.181 28.4775 349.892 27.7923 349.892 26.8907C349.892 26.0011 350.187 25.3158 350.776 24.835C351.377 24.3421 352.255 24.0956 353.409 24.0956H357.935V33.202H355.879V29.9922H354.851C354.479 29.9922 354.148 30.0944 353.859 30.2988C353.583 30.5031 353.348 30.7676 353.156 31.0922L351.966 33.202H349.46ZM353.841 28.5316H355.879V25.5563H353.841C353.228 25.5563 352.765 25.6885 352.453 25.953C352.152 26.2174 352.002 26.5781 352.002 27.0349C352.002 27.5158 352.152 27.8884 352.453 28.1529C352.765 28.4054 353.228 28.5316 353.841 28.5316ZM365.377 29.1267V27.3415H370.859V29.1267H365.377ZM379.026 33.202V31.2725H381.947V22.4367H383.065L379.314 24.6727V22.4727L382.614 20.4892H384.273V31.2725H387.014V33.202H379.026ZM393.336 33.3823C392.783 33.3823 392.23 33.3222 391.677 33.202C391.136 33.0818 390.625 32.9135 390.145 32.6971C389.676 32.4807 389.273 32.2222 388.936 31.9217L389.694 30.1725C390.259 30.5933 390.836 30.9119 391.425 31.1283C392.026 31.3326 392.651 31.4348 393.3 31.4348C394.082 31.4348 394.689 31.2425 395.122 30.8578C395.566 30.4611 395.789 29.9321 395.789 29.2709C395.789 28.5977 395.578 28.0567 395.158 27.648C394.737 27.2273 394.16 27.0169 393.427 27.0169C392.91 27.0169 392.435 27.1191 392.002 27.3234C391.581 27.5158 391.203 27.8163 390.866 28.225H389.333V20.4892H397.231V22.4006H391.533V26.4398H390.974C391.287 26.0191 391.701 25.6945 392.218 25.4661C392.747 25.2377 393.336 25.1235 393.986 25.1235C394.803 25.1235 395.512 25.2918 396.113 25.6284C396.714 25.965 397.183 26.4398 397.52 27.0529C397.856 27.654 398.025 28.3633 398.025 29.1808C398.025 30.0103 397.832 30.7436 397.448 31.3807C397.075 32.0058 396.534 32.4987 395.825 32.8594C395.128 33.208 394.298 33.3823 393.336 33.3823ZM408.466 33.3823C407.672 33.3823 406.975 33.196 406.374 32.8233C405.773 32.4386 405.304 31.8916 404.968 31.1824C404.631 30.4731 404.463 29.6256 404.463 28.6398C404.463 27.654 404.631 26.8125 404.968 26.1153C405.304 25.406 405.773 24.865 406.374 24.4923C406.975 24.1077 407.672 23.9153 408.466 23.9153C409.235 23.9153 409.909 24.1077 410.486 24.4923C411.075 24.865 411.465 25.3699 411.658 26.0071H411.459L411.658 24.0956H413.822C413.785 24.4683 413.749 24.847 413.713 25.2317C413.689 25.6164 413.677 25.995 413.677 26.3677V33.202H411.441L411.423 31.3266H411.64C411.447 31.9517 411.057 32.4506 410.468 32.8233C409.878 33.196 409.211 33.3823 408.466 33.3823ZM409.097 31.6512C409.806 31.6512 410.377 31.4048 410.81 30.9119C411.243 30.407 411.459 29.6496 411.459 28.6398C411.459 27.63 411.243 26.8786 410.81 26.3857C410.377 25.8929 409.806 25.6464 409.097 25.6464C408.388 25.6464 407.817 25.8929 407.384 26.3857C406.951 26.8786 406.735 27.63 406.735 28.6398C406.735 29.6496 406.945 30.407 407.366 30.9119C407.799 31.4048 408.376 31.6512 409.097 31.6512ZM416.306 33.202V24.0956H424.836V33.202H422.599V25.8267H418.542V33.202H416.306ZM427.472 37.097V26.3677C427.472 25.995 427.46 25.6164 427.436 25.2317C427.412 24.847 427.376 24.4683 427.328 24.0956H429.51L429.708 26.0071H429.51C429.69 25.3699 430.069 24.865 430.646 24.4923C431.235 24.1077 431.914 23.9153 432.684 23.9153C433.489 23.9153 434.193 24.1077 434.794 24.4923C435.395 24.865 435.864 25.406 436.2 26.1153C436.537 26.8125 436.705 27.654 436.705 28.6398C436.705 29.6256 436.537 30.4731 436.2 31.1824C435.864 31.8916 435.395 32.4386 434.794 32.8233C434.193 33.196 433.489 33.3823 432.684 33.3823C431.926 33.3823 431.259 33.196 430.682 32.8233C430.105 32.4506 429.72 31.9517 429.528 31.3266H429.726V37.097H427.472ZM432.053 31.6512C432.774 31.6512 433.351 31.4048 433.784 30.9119C434.217 30.407 434.433 29.6496 434.433 28.6398C434.433 27.63 434.217 26.8786 433.784 26.3857C433.351 25.8929 432.774 25.6464 432.053 25.6464C431.343 25.6464 430.772 25.8929 430.34 26.3857C429.907 26.8786 429.69 27.63 429.69 28.6398C429.69 29.6496 429.907 30.407 430.34 30.9119C430.772 31.4048 431.343 31.6512 432.053 31.6512ZM443.301 33.3823C441.774 33.3823 440.578 32.9615 439.713 32.12C438.847 31.2785 438.414 30.1245 438.414 28.6578C438.414 27.7081 438.601 26.8786 438.973 26.1694C439.346 25.4601 439.863 24.9071 440.524 24.5104C441.197 24.1137 441.979 23.9153 442.868 23.9153C443.746 23.9153 444.479 24.1016 445.068 24.4743C445.657 24.847 446.102 25.3699 446.403 26.0431C446.715 26.7163 446.871 27.5038 446.871 28.4054V29.0004H440.236V27.8103H445.267L444.96 28.0628C444.96 27.2212 444.78 26.5781 444.419 26.1333C444.07 25.6885 443.56 25.4661 442.886 25.4661C442.141 25.4661 441.564 25.7306 441.155 26.2595C440.759 26.7885 440.56 27.5278 440.56 28.4775V28.7119C440.56 29.6977 440.801 30.437 441.281 30.9299C441.774 31.4108 442.466 31.6512 443.355 31.6512C443.872 31.6512 444.353 31.5851 444.798 31.4528C445.255 31.3086 445.687 31.0802 446.096 30.7676L446.763 32.2823C446.331 32.631 445.814 32.9014 445.213 33.0938C444.611 33.2861 443.974 33.3823 443.301 33.3823ZM448.72 33.4544L448.017 31.6873C448.414 31.543 448.744 31.3567 449.009 31.1283C449.285 30.8878 449.502 30.5873 449.658 30.2266C449.826 29.854 449.946 29.3972 450.019 28.8562C450.091 28.3032 450.127 27.648 450.127 26.8907V24.0956H457.376V33.202H455.14V25.8267H452.182V26.9628C452.182 28.2731 452.062 29.3731 451.822 30.2627C451.581 31.1403 451.209 31.8375 450.704 32.3545C450.199 32.8714 449.538 33.238 448.72 33.4544ZM459.186 33.202L460.574 30.8037C460.815 30.3949 461.109 30.0704 461.458 29.8299C461.818 29.5775 462.191 29.4512 462.576 29.4512H462.973L462.955 29.6496C461.885 29.6496 461.061 29.4152 460.484 28.9463C459.907 28.4775 459.619 27.7923 459.619 26.8907C459.619 26.0011 459.913 25.3158 460.502 24.835C461.103 24.3421 461.981 24.0956 463.135 24.0956H467.661V33.202H465.605V29.9922H464.577C464.205 29.9922 463.874 30.0944 463.586 30.2988C463.309 30.5031 463.075 30.7676 462.882 31.0922L461.692 33.202H459.186ZM463.568 28.5316H465.605V25.5563H463.568C462.955 25.5563 462.492 25.6885 462.179 25.953C461.879 26.2174 461.728 26.5781 461.728 27.0349C461.728 27.5158 461.879 27.8884 462.179 28.1529C462.492 28.4054 462.955 28.5316 463.568 28.5316Z" fill="black"/>
</svg>
