<svg width="397" height="114" viewBox="0 0 397 114" fill="none" xmlns="http://www.w3.org/2000/svg">
<path d="M18.2434 24.3795L27.9988 41.9639H21.8682L15.1858 29.9071L8.54175 41.9868H2.41113L12.1665 24.4024L2.41113 6.89452H8.54175L15.1858 18.9207L21.8605 6.89452H27.9911L18.2434 24.3795Z" fill="white"/>
<path d="M51.8328 6.93283C53.6014 6.93283 54.8241 7.38479 55.5238 8.30403C56.2236 9.22328 56.5619 10.6481 56.5619 12.5939V41.9868H51.0177V25.6395H38.8682V41.9485H33.3547V12.5556C33.3502 11.7201 33.4068 10.8855 33.5239 10.0583C33.5816 9.42024 33.7926 8.80541 34.1391 8.26574C34.1391 8.18914 34.2083 8.11253 34.339 8.04358C34.9388 7.27754 36.1666 6.89452 38.0223 6.89452L51.8328 6.93283ZM51.0177 20.8594V12.1036H38.8682V20.8211L51.0177 20.8594Z" fill="white"/>
<path d="M79.7057 41.9485L67.7871 26.2362V41.9485H61.917V6.89452H67.7871V21.2362L77.9997 6.89452H84.7539L72.4398 23.2806L86.9096 41.9868L79.7057 41.9485Z" fill="white"/>
<path d="M106.573 6.93283C108.344 6.93283 109.568 7.38479 110.268 8.30403C110.969 9.22328 111.307 10.6481 111.307 12.5939V41.9868H105.804V25.6395H93.6421V41.9485H88.1001V12.5556C88.0956 11.7201 88.1522 10.8855 88.2694 10.0583C88.3309 9.42104 88.5418 8.80707 88.8852 8.26574C88.8852 8.18914 88.9545 8.11253 89.0853 8.04358C89.6857 7.27754 90.9147 6.89452 92.7723 6.89452L106.573 6.93283ZM105.804 20.8211V12.1036H93.6421V20.8211H105.804Z" fill="white"/>
<path d="M129.61 12.015V41.9868H123.894V12.015H115.473V6.89452H138.085V12.0533L129.61 12.015Z" fill="white"/>
<path d="M167.226 36.7184C167.226 36.8257 167.226 37.1018 167.165 37.5466C167.103 37.9914 167.073 38.4438 166.996 38.9193C166.934 39.3572 166.831 39.7885 166.69 40.2077C166.56 40.5911 166.407 40.7828 166.247 40.7828C165.553 41.5855 164.312 41.9868 162.522 41.9868H148.755C146.868 41.9868 145.626 41.5855 145.03 40.7828C144.914 40.6445 144.812 40.4955 144.724 40.338C144.203 39.1845 143.972 37.9207 144.051 36.657V12.1707C144.081 11.3518 144.155 10.5352 144.273 9.72435C144.344 9.11316 144.612 8.54209 145.038 8.09856C145.711 7.29079 146.952 6.88946 148.762 6.89457H162.53C164.373 6.89457 165.589 7.29334 166.254 8.09856C166.385 8.20668 166.49 8.343 166.56 8.49734C167.065 9.67192 167.296 10.9468 167.233 12.2244L167.226 36.7184ZM149.634 36.4653H161.749V12.0556H149.627L149.634 36.4653Z" fill="white"/>
<path d="M191.769 41.9485V27.2163H179.61V41.9485H173.789V6.89452H179.61V23.1275H191.769V6.89452H197.591V41.9868L191.769 41.9485Z" fill="white"/>
<path d="M1.22095 67.8788L6.52878 61.02H8.94212L3.74884 67.8788L8.94212 74.7H6.52878L1.22095 67.8788ZM7.73544 67.8788L13.0814 61.02H15.5024L10.3015 67.8788L15.5024 74.7H13.0814L7.73544 67.8788Z" fill="white"/>
<path d="M42.2801 52.0982V77.6739H39.6251V54.4378H23.5129V77.6739H20.8579V52.0982H42.2801Z" fill="white"/>
<path d="M48.8257 64.5887C48.8257 57.0917 54.6358 51.5034 62.5354 51.5034C70.435 51.5034 76.1985 57.0533 76.1985 64.5887C76.1985 72.124 70.3496 77.6739 62.5354 77.6739C54.7212 77.6739 48.8257 72.0857 48.8257 64.5887ZM73.4411 64.5887C73.4411 58.4561 68.7805 53.9334 62.5665 53.9334C56.3524 53.9334 51.5754 58.4485 51.5754 64.5887C51.5754 70.7288 56.2359 75.2439 62.5665 75.2439C68.897 75.2439 73.4411 70.7288 73.4411 64.5887Z" fill="white"/>
<path d="M90.7221 65.9454H84.8067V77.6739H82.1494V52.0982H84.8067V63.5295H90.7221L99.472 52.0982H102.422L92.8249 64.5203L102.977 77.6739H99.8417L90.7221 65.9454Z" fill="white"/>
<path d="M104.761 64.5887C104.761 57.0917 110.572 51.5034 118.463 51.5034C126.355 51.5034 132.134 57.0533 132.134 64.5887C132.134 72.124 126.285 77.6739 118.463 77.6739C110.642 77.6739 104.761 72.0857 104.761 64.5887ZM129.377 64.5887C129.377 58.4561 124.716 53.9334 118.502 53.9334C112.288 53.9334 107.519 58.4485 107.519 64.5887C107.519 70.7288 112.179 75.2439 118.502 75.2439C124.825 75.2439 129.377 70.7288 129.377 64.5887Z" fill="white"/>
<path d="M157.722 52.0982V77.4174H155.073V54.4143H142.812L142.517 62.8792C142.154 73.0039 140.557 77.6739 135.948 77.6739C135.264 77.671 134.583 77.5848 133.919 77.4174L134.139 75.0334C134.53 75.1291 134.932 75.1772 135.335 75.1767C138.566 75.1767 139.8 71.4874 140.125 62.9471L140.489 52.0982H157.722Z" fill="white"/>
<path d="M184.5 75.3336V77.6739H166.648V52.0982H183.936V54.4385H169.317V63.5406H182.358V65.8275H169.317V75.3336H184.5Z" fill="white"/>
<path d="M212.468 52.0982V77.6739H209.721V65.8691H193.237V77.6739H190.451V52.0982H193.237V63.5295H209.721V52.0982H212.468Z" fill="white"/>
<path d="M220.799 52.0982H223.459V73.2919L239.782 52.0982H242.221V77.6739H239.561V56.5183L223.246 77.6739H220.799V52.0982Z" fill="white"/>
<path d="M268.999 75.3336V77.6739H251.147V52.0982H268.442V54.4385H253.817V63.5406H266.871V65.8275H253.817V75.3336H268.999Z" fill="white"/>
<path d="M284.47 52.0982H287.446V77.6739H284.47V52.0982Z" fill="white"/>
<path d="M300.672 54.4378H291.611V52.0982H312.438V54.4378H303.37V77.6739H300.642L300.672 54.4378Z" fill="white"/>
<path d="M313.628 74.7L318.832 67.8788L313.628 61.02H316.043L321.392 67.8788L316.043 74.7H313.628ZM320.146 74.7L325.35 67.8788L320.139 61.02H322.561L327.91 67.8788L322.561 74.7H320.146Z" fill="white"/>
<path d="M0.0307617 108.321L2.47227 105.034H3.5807L1.1916 108.321L3.5807 111.577H2.47227L0.0307617 108.321ZM3.0265 108.321L5.46801 105.034H6.57644L4.18734 108.321L6.57644 111.577H5.46801L3.0265 108.321Z" fill="white"/>
<path d="M22.0478 100.871V112.766H20.8242V103.251L16.0979 111.255H15.4937L10.7675 103.304V112.766H9.55151V100.871H10.5992L15.8302 109.69L21.0001 100.871H22.0478Z" fill="white"/>
<path d="M33.5986 109.584H27.1077L25.7163 112.766H24.4285L29.7574 100.871H31.0082L36.3297 112.766H35.0345L33.5986 109.584ZM33.1472 108.564L30.3569 102.178L27.5592 108.564H33.1472Z" fill="white"/>
<path d="M48.2309 104.944C48.2309 107.471 46.353 108.995 43.2618 108.995H39.9928V112.766H38.71V100.871H43.2309C46.3221 100.871 48.2309 102.402 48.2309 104.944ZM46.9481 104.944C46.9481 103.043 45.6575 101.927 43.2309 101.927H39.9928V107.863H43.2309C45.6575 107.893 46.9481 106.807 46.9481 104.944Z" fill="white"/>
<path d="M57.8897 109.584H51.0529L49.5796 112.766H48.231L53.8438 100.871H55.1222L60.7273 112.766H59.363L57.8897 109.584ZM57.4141 108.564L54.4674 102.178L51.5207 108.594L57.4141 108.564Z" fill="white"/>
<path d="M69.062 112.098V113.361H67.8563V112.098C63.7492 111.958 61.3223 110.049 61.3223 106.791C61.3223 103.533 63.7492 101.624 67.8563 101.484V100.276H69.062V101.507C73.1535 101.647 75.6037 103.572 75.6037 106.814C75.6037 110.057 73.1924 111.966 69.062 112.098ZM67.8563 111.062V102.536C64.4882 102.676 62.5591 104.165 62.5591 106.791C62.5591 109.417 64.5504 110.906 67.8718 111.062H67.8563ZM74.3592 106.791C74.3592 104.165 72.4067 102.653 69.062 102.536V111.062C72.4379 110.922 74.3747 109.417 74.3747 106.791H74.3592Z" fill="white"/>
<path d="M77.3918 106.714C77.3526 105.473 77.6852 104.248 78.3468 103.196C79.0085 102.144 79.9692 101.314 81.106 100.811C82.2428 100.308 83.504 100.155 84.7283 100.372C85.9525 100.589 87.0841 101.166 87.9783 102.029C88.8725 102.892 89.4886 104.002 89.7477 105.217C90.0069 106.432 89.8974 107.696 89.4331 108.849C88.9689 110.001 88.171 110.989 87.1417 111.685C86.1124 112.382 84.8984 112.756 83.655 112.76C82.8406 112.797 82.0271 112.668 81.2644 112.38C80.5018 112.092 79.8059 111.651 79.2196 111.085C78.6333 110.519 78.1687 109.84 77.8544 109.088C77.5401 108.337 77.3827 107.529 77.3918 106.714V106.714ZM88.6324 106.714C88.6459 105.723 88.3636 104.749 87.8214 103.919C87.2793 103.088 86.5019 102.437 85.5882 102.049C84.6745 101.661 83.6659 101.554 82.6909 101.741C81.7159 101.927 80.8187 102.4 80.1135 103.098C79.4083 103.796 78.9271 104.688 78.7312 105.66C78.5352 106.633 78.6334 107.641 79.0133 108.558C79.3931 109.474 80.0374 110.257 80.8641 110.806C81.6907 111.355 82.6623 111.646 83.655 111.642C84.3104 111.662 84.9632 111.549 85.5734 111.31C86.1837 111.07 86.7386 110.708 87.2044 110.247C87.6702 109.786 88.037 109.235 88.2826 108.628C88.5281 108.02 88.6471 107.369 88.6324 106.714V106.714Z" fill="white"/>
<path d="M102.976 100.871V112.759H101.789V107.283H94.6645V112.766H93.4553V100.871H94.6645V106.158H101.789V100.871H102.976Z" fill="white"/>
<path d="M122.018 100.871V112.729H120.769V101.993H113.152V112.766H111.902V100.871H122.018Z" fill="white"/>
<path d="M135.11 104.944C135.11 107.471 133.355 108.995 130.455 108.995H127.388V112.766H126.184V100.871H130.455C133.355 100.871 135.11 102.402 135.11 104.944ZM133.906 104.944C133.906 103.043 132.703 101.927 130.419 101.927H127.388V107.863H130.419C132.703 107.893 133.906 106.807 133.906 104.944V104.944Z" fill="white"/>
<path d="M136.898 106.714C136.857 105.473 137.205 104.248 137.899 103.196C138.592 102.144 139.598 101.314 140.789 100.811C141.98 100.308 143.301 100.155 144.584 100.372C145.866 100.589 147.052 101.166 147.989 102.029C148.925 102.892 149.571 104.002 149.842 105.217C150.114 106.432 149.999 107.696 149.513 108.849C149.026 110.001 148.191 110.989 147.112 111.685C146.034 112.382 144.762 112.756 143.46 112.76C142.606 112.797 141.754 112.668 140.955 112.38C140.156 112.092 139.427 111.651 138.813 111.085C138.199 110.519 137.712 109.84 137.383 109.088C137.053 108.337 136.889 107.529 136.898 106.714V106.714ZM148.674 106.714C148.688 105.723 148.392 104.749 147.824 103.919C147.256 103.088 146.442 102.437 145.485 102.049C144.528 101.661 143.471 101.554 142.45 101.741C141.428 101.927 140.488 102.4 139.749 103.098C139.011 103.796 138.506 104.688 138.301 105.66C138.096 106.633 138.199 107.641 138.597 108.558C138.995 109.474 139.67 110.257 140.536 110.806C141.402 111.355 142.42 111.646 143.46 111.642C144.146 111.662 144.83 111.549 145.469 111.31C146.109 111.07 146.69 110.708 147.178 110.247C147.666 109.786 148.05 109.235 148.307 108.628C148.565 108.02 148.689 107.369 148.674 106.714V106.714Z" fill="white"/>
<path d="M160.697 101.993H154.215V112.766H152.962V100.871H160.697V101.993Z" fill="white"/>
<path d="M172.004 104.944C172.004 107.471 170.126 108.995 167.034 108.995H163.766V112.766H162.483V100.871H167.034C170.126 100.871 172.004 102.402 172.004 104.944ZM170.713 104.944C170.713 103.043 169.43 101.927 166.996 101.927H163.766V107.863H166.996C169.43 107.893 170.713 106.807 170.713 104.944Z" fill="white"/>
<path d="M181.786 109.554H175.283L173.881 112.736H172.599L177.945 100.871H179.161L184.5 112.766H183.195L181.786 109.554ZM181.334 108.534L178.531 102.148L175.72 108.564L181.334 108.534Z" fill="white"/>
<path d="M199.376 100.871V112.766H198.153V103.251L193.427 111.255H192.822L188.096 103.304V112.766H186.88V100.871H187.928L193.128 109.69L198.306 100.871H199.376Z" fill="white"/>
<path d="M216.038 100.871V112.766H214.825V103.251L210.08 111.255H209.477L204.763 103.304V112.766H203.542V100.871H204.587L209.805 109.69L214.963 100.871H216.038Z" fill="white"/>
<path d="M220.204 100.871H221.46V110.695L229.171 100.871H230.32V112.766H229.064V102.941L221.352 112.766H220.204V100.871Z" fill="white"/>
<path d="M233.296 106.834C233.283 106.032 233.44 105.237 233.755 104.496C234.07 103.756 234.538 103.086 235.129 102.528C235.72 101.97 236.423 101.536 237.193 101.252C237.963 100.968 238.784 100.84 239.607 100.877C240.422 100.845 241.235 100.98 241.993 101.274C242.751 101.567 243.437 102.013 244.006 102.582L243.195 103.371C242.734 102.911 242.18 102.55 241.567 102.31C240.955 102.07 240.298 101.958 239.638 101.979C238.952 101.926 238.262 102.013 237.612 102.232C236.963 102.451 236.366 102.799 235.861 103.254C235.356 103.709 234.953 104.26 234.677 104.873C234.402 105.487 234.259 106.149 234.259 106.819C234.259 107.488 234.402 108.151 234.677 108.764C234.953 109.378 235.356 109.929 235.861 110.383C236.366 110.838 236.963 111.186 237.612 111.405C238.262 111.625 238.952 111.711 239.638 111.659C240.299 111.681 240.958 111.567 241.571 111.324C242.184 111.082 242.737 110.716 243.195 110.251L244.006 111.041C243.434 111.611 242.746 112.059 241.986 112.355C241.226 112.652 240.41 112.79 239.592 112.761C238.773 112.795 237.956 112.667 237.189 112.384C236.423 112.101 235.724 111.669 235.135 111.114C234.546 110.56 234.079 109.894 233.763 109.158C233.447 108.422 233.288 107.631 233.296 106.834V106.834Z" fill="white"/>
<path d="M254.122 101.959H249.977V112.766H248.747V101.959H244.601V100.871H254.122V101.959Z" fill="white"/>
<path d="M255.316 106.714C255.276 105.472 255.609 104.247 256.271 103.195C256.933 102.143 257.894 101.313 259.032 100.81C260.169 100.307 261.43 100.155 262.655 100.372C263.879 100.59 265.011 101.168 265.905 102.031C266.799 102.895 267.414 104.006 267.673 105.221C267.931 106.437 267.82 107.702 267.355 108.854C266.889 110.006 266.09 110.993 265.06 111.689C264.03 112.385 262.815 112.758 261.571 112.76C260.757 112.797 259.944 112.668 259.182 112.38C258.419 112.092 257.724 111.651 257.138 111.085C256.553 110.519 256.089 109.839 255.775 109.088C255.462 108.336 255.305 107.528 255.316 106.714V106.714ZM266.549 106.714C266.562 105.723 266.28 104.749 265.738 103.919C265.196 103.088 264.418 102.437 263.504 102.049C262.591 101.661 261.582 101.554 260.607 101.741C259.632 101.927 258.735 102.4 258.03 103.098C257.325 103.796 256.843 104.688 256.647 105.66C256.451 106.633 256.55 107.641 256.929 108.558C257.309 109.474 257.954 110.257 258.78 110.806C259.607 111.355 260.579 111.646 261.571 111.642C262.227 111.662 262.879 111.549 263.49 111.31C264.1 111.07 264.655 110.708 265.121 110.247C265.586 109.786 265.953 109.235 266.199 108.628C266.444 108.02 266.563 107.369 266.549 106.714Z" fill="white"/>
<path d="M280.305 109.554C280.305 111.595 278.874 112.766 276.028 112.766H270.784V100.871H275.683C278.155 100.871 279.691 101.929 279.691 103.894C279.713 104.497 279.536 105.091 279.187 105.582C278.839 106.073 278.339 106.433 277.766 106.607C279.451 106.97 280.305 107.975 280.305 109.554ZM272.065 106.259H275.668C277.466 106.259 278.492 105.503 278.492 104.067C278.492 102.631 277.466 101.876 275.668 101.876H272.065V106.259ZM279.099 109.471C279.099 107.922 278.043 107.204 276.05 107.204H272.065V111.738H276.05C278.02 111.761 279.077 111.066 279.077 109.471H279.099Z" fill="white"/>
<path d="M282.686 111.577L285.072 108.321L282.686 105.034H283.8L286.239 108.321L283.8 111.577H282.686ZM285.678 111.577L288.072 108.321L285.678 105.034H286.792L289.231 108.321L286.792 111.577H285.678Z" fill="white"/>
<path d="M212.354 5.5334C212.354 2.63247 214.95 0.420834 217.814 0.882535L242.969 4.93766C255.932 7.02744 269.085 7.68468 282.192 6.8975L392.007 0.302108C394.715 0.139471 397 2.29172 397 5.00454V38.5607C397 41.3558 394.581 43.5362 391.801 43.2462L357.498 39.6675C348.869 38.7673 340.186 38.4955 331.517 38.8545L217.26 43.5855C214.584 43.6963 212.354 41.5569 212.354 38.8786V5.5334Z" fill="white"/>
<path d="M223.095 27.5476V25.9553H225.506V18.6636H226.428L223.333 20.5088V18.6933L226.056 17.0564H227.425V25.9553H229.687V27.5476H223.095ZM234.667 27.6964C233.942 27.6964 233.248 27.5923 232.583 27.3839C231.919 27.1657 231.373 26.868 230.946 26.4911L231.571 25.0476C232.038 25.4047 232.519 25.6676 233.015 25.8363C233.521 26.0049 234.052 26.0893 234.607 26.0893C235.282 26.0893 235.793 25.9553 236.14 25.6875C236.487 25.4196 236.661 25.0277 236.661 24.5119C236.661 24.0158 236.487 23.6438 236.14 23.3958C235.803 23.1378 235.307 23.0089 234.652 23.0089H232.955V21.4761H234.488C235.054 21.4761 235.505 21.3372 235.842 21.0594C236.18 20.7816 236.348 20.3997 236.348 19.9136C236.348 19.4572 236.19 19.11 235.872 18.8719C235.565 18.6338 235.118 18.5147 234.533 18.5147C233.481 18.5147 232.554 18.8719 231.75 19.5862L231.125 18.1576C231.552 17.7608 232.077 17.4532 232.702 17.235C233.337 17.0167 234.002 16.9076 234.696 16.9076C235.788 16.9076 236.641 17.1556 237.256 17.6516C237.881 18.1378 238.194 18.8173 238.194 19.6904C238.194 20.3154 238.015 20.8561 237.658 21.3124C237.311 21.7588 236.829 22.0565 236.214 22.2053V22.0267C236.939 22.1458 237.499 22.4434 237.896 22.9196C238.303 23.3859 238.506 23.9712 238.506 24.6756C238.506 25.6081 238.164 26.3472 237.479 26.8929C236.795 27.4286 235.857 27.6964 234.667 27.6964ZM247.39 27.6964C246.736 27.6964 246.16 27.5427 245.664 27.2351C245.168 26.9177 244.781 26.4663 244.503 25.8809C244.226 25.2956 244.087 24.5962 244.087 23.7827C244.087 22.9692 244.226 22.2747 244.503 21.6993C244.781 21.114 245.168 20.6676 245.664 20.36C246.16 20.0425 246.736 19.8838 247.39 19.8838C248.025 19.8838 248.581 20.0425 249.057 20.36C249.543 20.6676 249.866 21.0842 250.024 21.61H249.861L250.024 20.0326H251.81C251.78 20.3402 251.751 20.6527 251.721 20.9701C251.701 21.2876 251.691 21.6001 251.691 21.9077V27.5476H249.846L249.831 26H250.01C249.851 26.5159 249.528 26.9276 249.042 27.2351C248.556 27.5427 248.006 27.6964 247.39 27.6964ZM247.911 26.2678C248.497 26.2678 248.968 26.0645 249.325 25.6577C249.682 25.241 249.861 24.616 249.861 23.7827C249.861 22.9493 249.682 22.3293 249.325 21.9225C248.968 21.5158 248.497 21.3124 247.911 21.3124C247.326 21.3124 246.855 21.5158 246.498 21.9225C246.14 22.3293 245.962 22.9493 245.962 23.7827C245.962 24.616 246.135 25.241 246.483 25.6577C246.84 26.0645 247.316 26.2678 247.911 26.2678ZM253.861 27.5476V20.0326H260.899V27.5476H259.054V21.4612H255.706V27.5476H253.861ZM263.076 30.762V21.9077C263.076 21.6001 263.066 21.2876 263.046 20.9701C263.026 20.6527 262.996 20.3402 262.957 20.0326H264.757L264.921 21.61H264.757C264.906 21.0842 265.218 20.6676 265.695 20.36C266.181 20.0425 266.741 19.8838 267.376 19.8838C268.041 19.8838 268.621 20.0425 269.117 20.36C269.613 20.6676 270 21.114 270.278 21.6993C270.556 22.2747 270.695 22.9692 270.695 23.7827C270.695 24.5962 270.556 25.2956 270.278 25.8809C270 26.4663 269.613 26.9177 269.117 27.2351C268.621 27.5427 268.041 27.6964 267.376 27.6964C266.751 27.6964 266.201 27.5427 265.724 27.2351C265.248 26.9276 264.931 26.5159 264.772 26H264.936V30.762H263.076ZM266.855 26.2678C267.451 26.2678 267.927 26.0645 268.284 25.6577C268.641 25.241 268.82 24.616 268.82 23.7827C268.82 22.9493 268.641 22.3293 268.284 21.9225C267.927 21.5158 267.451 21.3124 266.855 21.3124C266.27 21.3124 265.799 21.5158 265.442 21.9225C265.085 22.3293 264.906 22.9493 264.906 23.7827C264.906 24.616 265.085 25.241 265.442 25.6577C265.799 26.0645 266.27 26.2678 266.855 26.2678ZM276.138 27.6964C274.878 27.6964 273.891 27.3492 273.177 26.6548C272.462 25.9603 272.105 25.0079 272.105 23.7976C272.105 23.0138 272.259 22.3293 272.567 21.744C272.874 21.1586 273.301 20.7023 273.846 20.3749C274.402 20.0475 275.047 19.8838 275.781 19.8838C276.505 19.8838 277.11 20.0376 277.596 20.3451C278.083 20.6527 278.45 21.0842 278.698 21.6398C278.956 22.1954 279.085 22.8452 279.085 23.5892V24.0803H273.608V23.0981H277.76L277.507 23.3065C277.507 22.612 277.358 22.0813 277.061 21.7142C276.773 21.3471 276.351 21.1636 275.796 21.1636C275.181 21.1636 274.705 21.3819 274.367 21.8184C274.04 22.2549 273.876 22.865 273.876 23.6488V23.8422C273.876 24.6557 274.075 25.2658 274.471 25.6726C274.878 26.0694 275.449 26.2678 276.183 26.2678C276.609 26.2678 277.006 26.2133 277.373 26.1041C277.75 25.9851 278.107 25.7966 278.445 25.5387L278.995 26.7887C278.638 27.0764 278.212 27.2996 277.715 27.4583C277.219 27.6171 276.694 27.6964 276.138 27.6964ZM280.61 27.756L280.03 26.2976C280.357 26.1786 280.63 26.0248 280.848 25.8363C281.077 25.6379 281.255 25.3899 281.384 25.0922C281.523 24.7847 281.622 24.4077 281.682 23.9613C281.741 23.5049 281.771 22.9642 281.771 22.3392V20.0326H287.753V27.5476H285.908V21.4612H283.467V22.3987C283.467 23.4801 283.368 24.3879 283.17 25.122C282.971 25.8462 282.664 26.4216 282.247 26.8482C281.83 27.2748 281.285 27.5774 280.61 27.756ZM289.247 27.5476L290.393 25.5684C290.591 25.2311 290.834 24.9633 291.122 24.7648C291.42 24.5565 291.727 24.4523 292.045 24.4523H292.372L292.357 24.616C291.474 24.616 290.795 24.4226 290.318 24.0357C289.842 23.6488 289.604 23.0833 289.604 22.3392C289.604 21.6051 289.847 21.0396 290.333 20.6428C290.829 20.236 291.553 20.0326 292.506 20.0326H296.241V27.5476H294.545V24.8988H293.696C293.389 24.8988 293.116 24.9831 292.878 25.1518C292.65 25.3204 292.456 25.5387 292.298 25.8065L291.315 27.5476H289.247ZM292.863 23.6934H294.545V21.238H292.863C292.357 21.238 291.975 21.3471 291.717 21.5654C291.469 21.7836 291.345 22.0813 291.345 22.4583C291.345 22.8551 291.469 23.1626 291.717 23.3809C291.975 23.5892 292.357 23.6934 292.863 23.6934ZM302.383 24.1845V22.7112H306.907V24.1845H302.383ZM313.646 27.5476V25.9553H316.057V18.6636H316.98L313.884 20.5088V18.6933L316.608 17.0564H317.977V25.9553H320.239V27.5476H313.646ZM325.456 27.6964C325 27.6964 324.543 27.6468 324.087 27.5476C323.641 27.4484 323.219 27.3095 322.822 27.1309C322.435 26.9524 322.103 26.7391 321.825 26.4911L322.45 25.0476C322.916 25.3948 323.393 25.6577 323.879 25.8363C324.375 26.0049 324.891 26.0893 325.426 26.0893C326.071 26.0893 326.572 25.9305 326.929 25.6131C327.296 25.2857 327.48 24.8492 327.48 24.3035C327.48 23.748 327.306 23.3015 326.959 22.9642C326.612 22.617 326.136 22.4434 325.531 22.4434C325.104 22.4434 324.712 22.5277 324.355 22.6964C324.008 22.8551 323.695 23.1031 323.417 23.4404H322.153V17.0564H328.671V18.6338H323.968V21.9672H323.507C323.765 21.62 324.107 21.3521 324.534 21.1636C324.97 20.9751 325.456 20.8809 325.992 20.8809C326.667 20.8809 327.252 21.0197 327.748 21.2975C328.244 21.5753 328.631 21.9672 328.909 22.4731C329.186 22.9692 329.325 23.5545 329.325 24.2291C329.325 24.9137 329.167 25.5188 328.849 26.0446C328.542 26.5605 328.095 26.9673 327.51 27.2649C326.934 27.5526 326.25 27.6964 325.456 27.6964ZM337.942 27.6964C337.287 27.6964 336.712 27.5427 336.216 27.2351C335.72 26.9177 335.333 26.4663 335.055 25.8809C334.777 25.2956 334.638 24.5962 334.638 23.7827C334.638 22.9692 334.777 22.2747 335.055 21.6993C335.333 21.114 335.72 20.6676 336.216 20.36C336.712 20.0425 337.287 19.8838 337.942 19.8838C338.577 19.8838 339.132 20.0425 339.609 20.36C340.095 20.6676 340.417 21.0842 340.576 21.61H340.412L340.576 20.0326H342.362C342.332 20.3402 342.302 20.6527 342.272 20.9701C342.252 21.2876 342.243 21.6001 342.243 21.9077V27.5476H340.397L340.382 26H340.561C340.402 26.5159 340.08 26.9276 339.594 27.2351C339.108 27.5427 338.557 27.6964 337.942 27.6964ZM338.463 26.2678C339.048 26.2678 339.519 26.0645 339.876 25.6577C340.234 25.241 340.412 24.616 340.412 23.7827C340.412 22.9493 340.234 22.3293 339.876 21.9225C339.519 21.5158 339.048 21.3124 338.463 21.3124C337.877 21.3124 337.406 21.5158 337.049 21.9225C336.692 22.3293 336.513 22.9493 336.513 23.7827C336.513 24.616 336.687 25.241 337.034 25.6577C337.391 26.0645 337.867 26.2678 338.463 26.2678ZM344.412 27.5476V20.0326H351.451V27.5476H349.606V21.4612H346.257V27.5476H344.412ZM353.627 30.762V21.9077C353.627 21.6001 353.617 21.2876 353.597 20.9701C353.577 20.6527 353.548 20.3402 353.508 20.0326H355.309L355.472 21.61H355.309C355.457 21.0842 355.77 20.6676 356.246 20.36C356.732 20.0425 357.293 19.8838 357.928 19.8838C358.592 19.8838 359.173 20.0425 359.669 20.36C360.165 20.6676 360.552 21.114 360.829 21.6993C361.107 22.2747 361.246 22.9692 361.246 23.7827C361.246 24.5962 361.107 25.2956 360.829 25.8809C360.552 26.4663 360.165 26.9177 359.669 27.2351C359.173 27.5427 358.592 27.6964 357.928 27.6964C357.303 27.6964 356.752 27.5427 356.276 27.2351C355.8 26.9276 355.482 26.5159 355.323 26H355.487V30.762H353.627ZM357.407 26.2678C358.002 26.2678 358.478 26.0645 358.835 25.6577C359.193 25.241 359.371 24.616 359.371 23.7827C359.371 22.9493 359.193 22.3293 358.835 21.9225C358.478 21.5158 358.002 21.3124 357.407 21.3124C356.821 21.3124 356.35 21.5158 355.993 21.9225C355.636 22.3293 355.457 22.9493 355.457 23.7827C355.457 24.616 355.636 25.241 355.993 25.6577C356.35 26.0645 356.821 26.2678 357.407 26.2678ZM366.69 27.6964C365.43 27.6964 364.442 27.3492 363.728 26.6548C363.014 25.9603 362.657 25.0079 362.657 23.7976C362.657 23.0138 362.81 22.3293 363.118 21.744C363.426 21.1586 363.852 20.7023 364.398 20.3749C364.953 20.0475 365.598 19.8838 366.332 19.8838C367.057 19.8838 367.662 20.0376 368.148 20.3451C368.634 20.6527 369.001 21.0842 369.249 21.6398C369.507 22.1954 369.636 22.8452 369.636 23.5892V24.0803H364.16V23.0981H368.312L368.059 23.3065C368.059 22.612 367.91 22.0813 367.612 21.7142C367.324 21.3471 366.903 21.1636 366.347 21.1636C365.732 21.1636 365.256 21.3819 364.919 21.8184C364.591 22.2549 364.428 22.865 364.428 23.6488V23.8422C364.428 24.6557 364.626 25.2658 365.023 25.6726C365.43 26.0694 366 26.2678 366.734 26.2678C367.161 26.2678 367.558 26.2133 367.925 26.1041C368.302 25.9851 368.659 25.7966 368.996 25.5387L369.547 26.7887C369.19 27.0764 368.763 27.2996 368.267 27.4583C367.771 27.6171 367.245 27.6964 366.69 27.6964ZM371.162 27.756L370.581 26.2976C370.909 26.1786 371.181 26.0248 371.4 25.8363C371.628 25.6379 371.806 25.3899 371.935 25.0922C372.074 24.7847 372.174 24.4077 372.233 23.9613C372.293 23.5049 372.322 22.9642 372.322 22.3392V20.0326H378.305V27.5476H376.459V21.4612H374.019V22.3987C374.019 23.4801 373.92 24.3879 373.721 25.122C373.523 25.8462 373.215 26.4216 372.799 26.8482C372.382 27.2748 371.836 27.5774 371.162 27.756ZM379.798 27.5476L380.944 25.5684C381.143 25.2311 381.386 24.9633 381.673 24.7648C381.971 24.5565 382.279 24.4523 382.596 24.4523H382.923L382.908 24.616C382.026 24.616 381.346 24.4226 380.87 24.0357C380.394 23.6488 380.155 23.0833 380.155 22.3392C380.155 21.6051 380.399 21.0396 380.885 20.6428C381.381 20.236 382.105 20.0326 383.057 20.0326H386.792V27.5476H385.096V24.8988H384.248C383.94 24.8988 383.667 24.9831 383.429 25.1518C383.201 25.3204 383.008 25.5387 382.849 25.8065L381.867 27.5476H379.798ZM383.414 23.6934H385.096V21.238H383.414C382.908 21.238 382.527 21.3471 382.269 21.5654C382.021 21.7836 381.897 22.0813 381.897 22.4583C381.897 22.8551 382.021 23.1626 382.269 23.3809C382.527 23.5892 382.908 23.6934 383.414 23.6934Z" fill="black"/>
</svg>
