<svg width="959" height="189" viewBox="0 0 959 189" fill="none" xmlns="http://www.w3.org/2000/svg">
<path d="M42.0897 59.0136L65.7059 101.583H50.8646L34.6876 72.395L18.6035 101.638H3.76221L27.3783 59.0691L3.76221 16.6852H18.6035L34.6876 45.7987L50.8461 16.6852H65.6873L42.0897 59.0136Z" fill="white"/>
<path d="M123.404 16.7779C127.686 16.7779 130.646 17.872 132.34 20.0974C134.034 22.3228 134.853 25.7721 134.853 30.4824V101.638H121.431V62.0639H92.0189V101.545H78.6717V30.3897C78.6609 28.3673 78.7977 26.3468 79.0813 24.3441C79.2209 22.7995 79.7317 21.3111 80.5705 20.0047C80.5705 19.8193 80.738 19.6338 81.0545 19.4669C82.5065 17.6124 85.4787 16.6852 89.9712 16.6852L123.404 16.7779ZM121.431 50.492V29.2955H92.0189V50.3993L121.431 50.492Z" fill="white"/>
<path d="M190.881 101.545L162.028 63.5084V101.545H147.817V16.6852H162.028V51.4041L186.751 16.6852H203.102L173.291 56.3533L208.32 101.638L190.881 101.545Z" fill="white"/>
<path d="M255.923 16.7779C260.209 16.7779 263.172 17.872 264.867 20.0974C266.563 22.3228 267.383 25.7721 267.383 30.4824V101.638H254.06V62.0639H224.618V101.545H211.202V30.3897C211.191 28.3673 211.328 26.3468 211.612 24.3441C211.761 22.8015 212.271 21.3152 213.103 20.0047C213.103 19.8193 213.27 19.6338 213.587 19.4669C215.041 17.6124 218.016 16.6852 222.513 16.6852L255.923 16.7779ZM254.06 50.3993V29.2955H224.618V50.3993H254.06Z" fill="white"/>
<path d="M311.692 29.0811V101.638H297.854V29.0811H277.467V16.6852H332.208V29.1739L311.692 29.0811Z" fill="white"/>
<path d="M402.752 88.884C402.752 89.1439 402.752 89.8123 402.604 90.889C402.456 91.9658 402.382 93.0611 402.197 94.2121C402.046 95.2723 401.798 96.3164 401.456 97.3311C401.141 98.2593 400.771 98.7234 400.382 98.7234C398.703 100.667 395.698 101.638 391.365 101.638H358.037C353.469 101.638 350.464 100.667 349.02 98.7234C348.74 98.3885 348.492 98.028 348.279 97.6467C347.019 94.854 346.46 91.7947 346.65 88.7355V29.4579C346.723 27.4756 346.902 25.4988 347.186 23.5357C347.358 22.0562 348.008 20.6737 349.038 19.6C350.667 17.6445 353.673 16.6729 358.055 16.6853H391.384C395.846 16.6853 398.79 17.6507 400.401 19.6C400.717 19.8617 400.97 20.1917 401.141 20.5654C402.364 23.4088 402.921 26.4951 402.771 29.5879L402.752 88.884ZM360.166 88.2714H389.495V29.1795H360.147L360.166 88.2714Z" fill="white"/>
<path d="M462.169 101.545V65.8811H432.734V101.545H418.641V16.6852H432.734V55.9826H462.169V16.6852H476.263V101.638L462.169 101.545Z" fill="white"/>
<path d="M0.881592 164.318L13.731 147.714H19.5733L7.00123 164.318L19.5733 180.832H13.731L0.881592 164.318ZM16.6521 164.318L29.594 147.714H35.4548L22.8643 164.318L35.4548 180.832H29.594L16.6521 164.318Z" fill="white"/>
<path d="M100.279 126.116V188.031H93.8519V131.78H54.8468V188.031H48.4194V126.116H100.279Z" fill="white"/>
<path d="M116.125 156.354C116.125 138.204 130.191 124.676 149.314 124.676C168.438 124.676 182.391 138.112 182.391 156.354C182.391 174.595 168.231 188.031 149.314 188.031C130.397 188.031 116.125 174.503 116.125 156.354ZM175.715 156.354C175.715 141.508 164.433 130.559 149.39 130.559C134.346 130.559 122.782 141.489 122.782 156.354C122.782 171.218 134.064 182.148 149.39 182.148C164.715 182.148 175.715 171.218 175.715 156.354Z" fill="white"/>
<path d="M217.55 159.638H203.229V188.031H196.796V126.116H203.229V153.79H217.55L238.732 126.116H245.873L222.64 156.188L247.216 188.031H239.627L217.55 159.638Z" fill="white"/>
<path d="M251.537 156.354C251.537 138.204 265.602 124.676 284.707 124.676C303.812 124.676 317.802 138.112 317.802 156.354C317.802 174.595 303.643 188.031 284.707 188.031C265.772 188.031 251.537 174.503 251.537 156.354ZM311.127 156.354C311.127 141.508 299.844 130.559 284.801 130.559C269.758 130.559 258.212 141.489 258.212 156.354C258.212 171.218 269.495 182.148 284.801 182.148C300.108 182.148 311.127 171.218 311.127 156.354Z" fill="white"/>
<path d="M379.746 126.116V187.41H373.333V131.723H343.652L342.938 152.215C342.058 176.725 338.192 188.031 327.034 188.031C325.378 188.024 323.729 187.815 322.124 187.41L322.655 181.639C323.603 181.87 324.575 181.987 325.55 181.985C333.374 181.985 336.36 173.054 337.148 152.38L338.027 126.116H379.746Z" fill="white"/>
<path d="M444.571 182.365V188.031H401.354V126.116H443.206V131.782H407.814V153.816H439.385V159.353H407.814V182.365H444.571Z" fill="white"/>
<path d="M512.277 126.116V188.031H505.626V159.453H465.722V188.031H458.976V126.116H465.722V153.79H505.626V126.116H512.277Z" fill="white"/>
<path d="M532.444 126.116H538.883V177.423L578.399 126.116H584.304V188.031H577.865V136.817L538.368 188.031H532.444V126.116Z" fill="white"/>
<path d="M649.129 182.365V188.031H605.912V126.116H647.782V131.782H612.375V153.816H643.977V159.353H612.375V182.365H649.129Z" fill="white"/>
<path d="M686.583 126.116H693.786V188.031H686.583V126.116Z" fill="white"/>
<path d="M725.806 131.78H703.871V126.116H754.29V131.78H732.336V188.031H725.731L725.806 131.78Z" fill="white"/>
<path d="M757.17 180.832L769.768 164.318L757.17 147.714H763.016L775.965 164.318L763.016 180.832H757.17ZM772.949 180.832L785.547 164.318L772.931 147.714H778.795L791.744 164.318L778.795 180.832H772.949Z" fill="white"/>
<path d="M512 13.3901C512 6.36743 518.286 1.01342 525.219 2.13112L586.114 11.9479C617.495 17.007 649.338 18.598 681.067 16.6924L946.912 0.725998C953.467 0.332281 959 5.54254 959 12.1098V93.344C959 100.111 953.142 105.389 946.412 104.687L863.372 96.0234C842.482 93.844 821.461 93.1862 800.475 94.0551L523.876 105.508C517.398 105.776 512 100.597 512 94.1136V13.3901Z" fill="white"/>
<path d="M538.003 66.3705V62.5158H543.839V44.8635H546.073L538.58 49.3306V44.9356L545.172 40.9728H548.487V62.5158H553.962V66.3705H538.003ZM568.43 66.3705V61.399H557.083V58.1568L569.151 40.9728H572.898V57.8686H576.536V61.399H572.898V66.3705H568.43ZM568.43 57.8686V46.4486H569.295L560.541 58.9493V57.8686H568.43ZM596.819 66.7307C595.234 66.7307 593.841 66.3585 592.64 65.6139C591.439 64.8454 590.503 63.7526 589.83 62.3357C589.158 60.9187 588.821 59.2255 588.821 57.2561C588.821 55.2868 589.158 53.6056 589.83 52.2126C590.503 50.7957 591.439 49.7149 592.64 48.9704C593.841 48.2019 595.234 47.8176 596.819 47.8176C598.356 47.8176 599.701 48.2019 600.854 48.9704C602.031 49.7149 602.811 50.7236 603.195 51.9965H602.799L603.195 48.1778H607.518C607.446 48.9224 607.374 49.6789 607.302 50.4474C607.254 51.2159 607.23 51.9725 607.23 52.717V66.3705H602.763L602.727 62.6239H603.159C602.775 63.8727 601.995 64.8694 600.818 65.6139C599.641 66.3585 598.308 66.7307 596.819 66.7307ZM598.08 63.2723C599.497 63.2723 600.638 62.78 601.502 61.7953C602.367 60.7866 602.799 59.2735 602.799 57.2561C602.799 55.2387 602.367 53.7377 601.502 52.753C600.638 51.7683 599.497 51.276 598.08 51.276C596.663 51.276 595.522 51.7683 594.657 52.753C593.793 53.7377 593.361 55.2387 593.361 57.2561C593.361 59.2735 593.781 60.7866 594.621 61.7953C595.486 62.78 596.639 63.2723 598.08 63.2723ZM612.482 66.3705V48.1778H629.522V66.3705H625.055V51.6362H616.949V66.3705H612.482ZM634.79 74.1519V52.717C634.79 51.9725 634.766 51.2159 634.718 50.4474C634.67 49.6789 634.598 48.9224 634.502 48.1778H638.861L639.257 51.9965H638.861C639.221 50.7236 639.978 49.7149 641.131 48.9704C642.307 48.2019 643.664 47.8176 645.201 47.8176C646.811 47.8176 648.215 48.2019 649.416 48.9704C650.617 49.7149 651.554 50.7957 652.226 52.2126C652.899 53.6056 653.235 55.2868 653.235 57.2561C653.235 59.2255 652.899 60.9187 652.226 62.3357C651.554 63.7526 650.617 64.8454 649.416 65.6139C648.215 66.3585 646.811 66.7307 645.201 66.7307C643.688 66.7307 642.355 66.3585 641.203 65.6139C640.05 64.8694 639.281 63.8727 638.897 62.6239H639.293V74.1519H634.79ZM643.941 63.2723C645.382 63.2723 646.534 62.78 647.399 61.7953C648.264 60.7866 648.696 59.2735 648.696 57.2561C648.696 55.2387 648.264 53.7377 647.399 52.753C646.534 51.7683 645.382 51.276 643.941 51.276C642.524 51.276 641.383 51.7683 640.518 52.753C639.654 53.7377 639.221 55.2387 639.221 57.2561C639.221 59.2735 639.654 60.7866 640.518 61.7953C641.383 62.78 642.524 63.2723 643.941 63.2723ZM666.413 66.7307C663.362 66.7307 660.973 65.8901 659.244 64.209C657.514 62.5278 656.65 60.2222 656.65 57.2922C656.65 55.3948 657.022 53.7377 657.767 52.3207C658.511 50.9037 659.544 49.799 660.865 49.0064C662.21 48.2139 663.771 47.8176 665.548 47.8176C667.301 47.8176 668.766 48.1898 669.943 48.9344C671.12 49.6789 672.008 50.7236 672.609 52.0685C673.233 53.4135 673.545 54.9866 673.545 56.7878V57.9766H660.288V55.599H670.339L669.727 56.1033C669.727 54.4222 669.367 53.1373 668.646 52.2487C667.95 51.36 666.929 50.9157 665.584 50.9157C664.095 50.9157 662.942 51.4441 662.126 52.5008C661.333 53.5576 660.937 55.0346 660.937 56.9319V57.4002C660.937 59.3696 661.417 60.8466 662.378 61.8313C663.362 62.792 664.743 63.2723 666.521 63.2723C667.553 63.2723 668.514 63.1402 669.403 62.876C670.315 62.5878 671.18 62.1315 671.996 61.5071L673.329 64.5332C672.465 65.2297 671.432 65.77 670.231 66.1543C669.03 66.5386 667.757 66.7307 666.413 66.7307ZM677.239 66.8748L675.834 63.3444C676.626 63.0562 677.287 62.6839 677.815 62.2276C678.368 61.7473 678.8 61.1468 679.112 60.4263C679.448 59.6818 679.689 58.7692 679.833 57.6884C679.977 56.5837 680.049 55.2748 680.049 53.7617V48.1778H694.531V66.3705H690.064V51.6362H684.156V53.9058C684.156 56.5236 683.915 58.7212 683.435 60.4984C682.955 62.2516 682.21 63.6446 681.202 64.6773C680.193 65.71 678.872 66.4425 677.239 66.8748ZM698.147 66.3705L700.921 61.5791C701.401 60.7626 701.99 60.1141 702.686 59.6338C703.407 59.1294 704.151 58.8773 704.92 58.8773H705.712L705.676 59.2735C703.539 59.2735 701.893 58.8052 700.741 57.8686C699.588 56.9319 699.011 55.563 699.011 53.7617C699.011 51.9845 699.6 50.6155 700.777 49.6549C701.978 48.6702 703.731 48.1778 706.036 48.1778H715.079V66.3705H710.972V59.958H708.918C708.174 59.958 707.513 60.1622 706.937 60.5704C706.385 60.9787 705.916 61.5071 705.532 62.1555L703.154 66.3705H698.147ZM706.901 57.04H710.972V51.0959H706.901C705.676 51.0959 704.751 51.36 704.127 51.8884C703.527 52.4168 703.226 53.1373 703.226 54.0499C703.226 55.0106 703.527 55.7551 704.127 56.2835C704.751 56.7878 705.676 57.04 706.901 57.04ZM729.947 58.2288V54.6623H740.899V58.2288H729.947ZM757.214 66.3705V62.5158H763.05V44.8635H765.284L757.79 49.3306V44.9356L764.383 40.9728H767.697V62.5158H773.173V66.3705H757.214ZM785.804 66.7307C784.699 66.7307 783.594 66.6106 782.49 66.3705C781.409 66.1303 780.388 65.7941 779.427 65.3618C778.491 64.9295 777.686 64.4131 777.014 63.8127L778.527 60.3183C779.656 61.1588 780.808 61.7953 781.985 62.2276C783.186 62.6359 784.435 62.84 785.732 62.84C787.293 62.84 788.506 62.4557 789.37 61.6872C790.259 60.8947 790.703 59.8379 790.703 58.517C790.703 57.1721 790.283 56.0913 789.442 55.2748C788.602 54.4342 787.449 54.0139 785.984 54.0139C784.951 54.0139 784.003 54.218 783.138 54.6263C782.297 55.0106 781.541 55.611 780.868 56.4276H777.806V40.9728H793.585V44.7915H782.201V52.8611H781.085C781.709 52.0205 782.538 51.3721 783.57 50.9157C784.627 50.4594 785.804 50.2313 787.101 50.2313C788.734 50.2313 790.151 50.5675 791.352 51.24C792.552 51.9124 793.489 52.8611 794.162 54.0859C794.834 55.2868 795.17 56.7038 795.17 58.3369C795.17 59.994 794.786 61.4591 794.018 62.7319C793.273 63.9808 792.192 64.9655 790.775 65.686C789.382 66.3825 787.725 66.7307 785.804 66.7307ZM816.03 66.7307C814.445 66.7307 813.052 66.3585 811.851 65.6139C810.65 64.8454 809.713 63.7526 809.041 62.3357C808.368 60.9187 808.032 59.2255 808.032 57.2561C808.032 55.2868 808.368 53.6056 809.041 52.2126C809.713 50.7957 810.65 49.7149 811.851 48.9704C813.052 48.2019 814.445 47.8176 816.03 47.8176C817.567 47.8176 818.912 48.2019 820.064 48.9704C821.241 49.7149 822.022 50.7236 822.406 51.9965H822.01L822.406 48.1778H826.729C826.657 48.9224 826.585 49.6789 826.513 50.4474C826.465 51.2159 826.441 51.9725 826.441 52.717V66.3705H821.974L821.938 62.6239H822.37C821.986 63.8727 821.205 64.8694 820.028 65.6139C818.852 66.3585 817.519 66.7307 816.03 66.7307ZM817.291 63.2723C818.707 63.2723 819.848 62.78 820.713 61.7953C821.577 60.7866 822.01 59.2735 822.01 57.2561C822.01 55.2387 821.577 53.7377 820.713 52.753C819.848 51.7683 818.707 51.276 817.291 51.276C815.874 51.276 814.733 51.7683 813.868 52.753C813.004 53.7377 812.571 55.2387 812.571 57.2561C812.571 59.2735 812.992 60.7866 813.832 61.7953C814.697 62.78 815.85 63.2723 817.291 63.2723ZM831.693 66.3705V48.1778H848.733V66.3705H844.266V51.6362H836.16V66.3705H831.693ZM854.001 74.1519V52.717C854.001 51.9725 853.977 51.2159 853.929 50.4474C853.881 49.6789 853.809 48.9224 853.713 48.1778H858.072L858.468 51.9965H858.072C858.432 50.7236 859.188 49.7149 860.341 48.9704C861.518 48.2019 862.875 47.8176 864.412 47.8176C866.021 47.8176 867.426 48.2019 868.627 48.9704C869.828 49.7149 870.764 50.7957 871.437 52.2126C872.109 53.6056 872.446 55.2868 872.446 57.2561C872.446 59.2255 872.109 60.9187 871.437 62.3357C870.764 63.7526 869.828 64.8454 868.627 65.6139C867.426 66.3585 866.021 66.7307 864.412 66.7307C862.899 66.7307 861.566 66.3585 860.413 65.6139C859.26 64.8694 858.492 63.8727 858.108 62.6239H858.504V74.1519H854.001ZM863.151 63.2723C864.592 63.2723 865.745 62.78 866.61 61.7953C867.474 60.7866 867.906 59.2735 867.906 57.2561C867.906 55.2387 867.474 53.7377 866.61 52.753C865.745 51.7683 864.592 51.276 863.151 51.276C861.734 51.276 860.593 51.7683 859.729 52.753C858.864 53.7377 858.432 55.2387 858.432 57.2561C858.432 59.2735 858.864 60.7866 859.729 61.7953C860.593 62.78 861.734 63.2723 863.151 63.2723ZM885.623 66.7307C882.573 66.7307 880.183 65.8901 878.454 64.209C876.725 62.5278 875.86 60.2222 875.86 57.2922C875.86 55.3948 876.233 53.7377 876.977 52.3207C877.722 50.9037 878.754 49.799 880.075 49.0064C881.42 48.2139 882.981 47.8176 884.759 47.8176C886.512 47.8176 887.977 48.1898 889.154 48.9344C890.33 49.6789 891.219 50.7236 891.819 52.0685C892.444 53.4135 892.756 54.9866 892.756 56.7878V57.9766H879.499V55.599H889.55L888.937 56.1033C888.937 54.4222 888.577 53.1373 887.857 52.2487C887.16 51.36 886.139 50.9157 884.795 50.9157C883.306 50.9157 882.153 51.4441 881.336 52.5008C880.544 53.5576 880.147 55.0346 880.147 56.9319V57.4002C880.147 59.3696 880.628 60.8466 881.588 61.8313C882.573 62.792 883.954 63.2723 885.731 63.2723C886.764 63.2723 887.725 63.1402 888.613 62.876C889.526 62.5878 890.39 62.1315 891.207 61.5071L892.54 64.5332C891.675 65.2297 890.643 65.77 889.442 66.1543C888.241 66.5386 886.968 66.7307 885.623 66.7307ZM896.449 66.8748L895.045 63.3444C895.837 63.0562 896.498 62.6839 897.026 62.2276C897.578 61.7473 898.011 61.1468 898.323 60.4263C898.659 59.6818 898.899 58.7692 899.043 57.6884C899.187 56.5837 899.259 55.2748 899.259 53.7617V48.1778H913.741V66.3705H909.274V51.6362H903.366V53.9058C903.366 56.5236 903.126 58.7212 902.646 60.4984C902.165 62.2516 901.421 63.6446 900.412 64.6773C899.404 65.71 898.083 66.4425 896.449 66.8748ZM917.357 66.3705L920.131 61.5791C920.612 60.7626 921.2 60.1141 921.897 59.6338C922.617 59.1294 923.362 58.8773 924.13 58.8773H924.923L924.887 59.2735C922.749 59.2735 921.104 58.8052 919.951 57.8686C918.798 56.9319 918.222 55.563 918.222 53.7617C918.222 51.9845 918.811 50.6155 919.987 49.6549C921.188 48.6702 922.941 48.1778 925.247 48.1778H934.289V66.3705H930.182V59.958H928.129C927.384 59.958 926.724 60.1622 926.148 60.5704C925.595 60.9787 925.127 61.5071 924.743 62.1555L922.365 66.3705H917.357ZM926.112 57.04H930.182V51.0959H926.112C924.887 51.0959 923.962 51.36 923.338 51.8884C922.737 52.4168 922.437 53.1373 922.437 54.0499C922.437 55.0106 922.737 55.7551 923.338 56.2835C923.962 56.7878 924.887 57.04 926.112 57.04Z" fill="black"/>
</svg>
