<svg width="371" height="209" viewBox="0 0 371 209" fill="none" xmlns="http://www.w3.org/2000/svg">
<path d="M1 119.743C40.0655 119.444 126.554 127.964 128.973 168.688C131.667 214.04 73.7427 203.712 78.682 173.178C85.2993 132.271 144.839 96.8429 171.182 73.4934" stroke="#F9D5FF" stroke-width="18"/>
<rect x="164.447" y="0.295654" width="206.553" height="127.536" rx="17" fill="#F9D5FF"/>
<path fill-rule="evenodd" clip-rule="evenodd" d="M262.723 64.0722C253.441 83.0682 245.759 98.7855 245.653 98.9995C245.565 99.1779 245.696 99.3867 245.895 99.3851L250.062 99.3516C252.882 99.3288 255.447 97.7135 256.685 95.1801L271.693 64.4821C281.059 45.3243 288.723 29.6238 288.723 29.5919C288.723 29.5601 286.67 29.5341 284.162 29.5341C281.37 29.5341 278.823 31.1245 277.598 33.6323L262.723 64.0722ZM295.117 55.111C295.14 57.9017 296.808 60.4157 299.371 61.5205L307.098 64.8517C313.667 67.6834 319.069 70.0212 319.101 70.0465C319.134 70.0719 319.122 70.1305 319.076 70.1767C319.029 70.223 313.628 72.531 307.073 75.3056L299.25 78.6169C296.763 79.6693 295.139 82.0979 295.117 84.7979C295.096 87.2439 295.128 89.2432 295.188 89.241C295.247 89.2386 302.642 85.7979 311.621 81.5947L324.211 75.7015C326.491 74.6344 327.947 72.3447 327.947 69.8277C327.947 67.3129 326.485 65.0277 324.202 63.9739L312.116 58.396C303.409 54.3773 296.014 50.9611 295.682 50.8043C295.403 50.6724 295.083 50.8774 295.085 51.1859L295.117 55.111ZM222.397 58.3774L209.745 64.2248C207.484 65.2694 206.037 67.5321 206.036 70.0222C206.035 72.5117 207.482 74.7745 209.743 75.8179L222.289 81.6098C231.229 85.7368 238.64 89.1502 238.758 89.1952C238.946 89.2672 238.967 88.7482 238.934 84.8049C238.912 82.0867 237.287 79.638 234.791 78.5606L227.026 75.2083C220.497 72.3898 215.106 70.0341 215.045 69.9737C214.985 69.9134 220.326 67.5806 226.916 64.79L234.791 61.4547C237.284 60.3991 238.912 57.9642 238.934 55.2575C238.955 52.8054 238.923 50.8031 238.864 50.8078C238.804 50.8126 231.394 54.219 222.397 58.3774Z" fill="#5E41F4"/>
</svg>
