<svg width="413" height="232" viewBox="0 0 413 232" fill="none" xmlns="http://www.w3.org/2000/svg">
<path d="M1 134C44.5 133.667 140.806 143.154 143.5 188.5C146.5 239 82 227.5 87.5 193.5C94.8684 147.95 161.167 108.5 190.5 82.5" stroke="#F9D5FF" stroke-width="18"/>
<rect x="183" y="0.993286" width="230" height="142.013" rx="17" fill="#F9D5FF"/>
<path fill-rule="evenodd" clip-rule="evenodd" d="M292.432 72.0093C282.096 93.1617 273.543 110.663 273.425 110.901V110.901C273.326 111.1 273.472 111.333 273.694 111.331L278.334 111.293V111.293C281.474 111.268 284.33 109.469 285.709 106.648L302.421 72.4658C312.85 51.1333 321.383 33.6505 321.383 33.6151C321.383 33.5797 319.098 33.5507 316.304 33.5507V33.5507C313.196 33.5507 310.36 35.3216 308.995 38.1141L292.432 72.0093ZM328.503 62.0309V62.0309C328.528 65.1384 330.386 67.9378 333.24 69.168L341.844 72.8773C349.159 76.0305 355.174 78.6336 355.21 78.6618C355.246 78.6901 355.233 78.7553 355.181 78.8067C355.13 78.8583 349.115 81.4284 341.816 84.5179L333.105 88.205C330.337 89.377 328.528 92.0813 328.503 95.0877V95.0877C328.48 97.8114 328.516 100.038 328.582 100.035C328.648 100.032 336.883 96.2012 346.881 91.5209L360.9 84.9587C363.439 83.7705 365.06 81.2209 365.06 78.4182V78.4182V78.4182C365.06 75.618 363.432 73.0733 360.89 71.8999L347.432 65.6888C337.736 61.2139 329.502 57.4099 329.133 57.2354V57.2354C328.822 57.0885 328.465 57.3168 328.468 57.6602L328.503 62.0309ZM247.528 65.6681L233.44 72.1792C230.923 73.3425 229.311 75.862 229.31 78.6347V78.6347V78.6347C229.309 81.4069 230.921 83.9265 233.438 85.0883L247.409 91.5377C257.364 96.1331 265.616 99.934 265.747 99.9842C265.957 100.064 265.98 99.4864 265.943 95.0955V95.0955C265.918 92.0687 264.109 89.342 261.33 88.1423L252.683 84.4096C245.413 81.2711 239.41 78.648 239.342 78.5808C239.275 78.5137 245.223 75.916 252.56 72.8086L261.33 69.0947C264.105 67.9193 265.918 65.208 265.943 62.194V62.194C265.966 59.4636 265.93 57.234 265.864 57.2393C265.798 57.2446 257.547 61.0377 247.528 65.6681Z" fill="#5E41F4"/>
</svg>
