<svg width="88" height="91" viewBox="0 0 88 91" fill="none" xmlns="http://www.w3.org/2000/svg">
<path d="M0.208001 91H-1.792V93H0.208001V91ZM0.208001 77.304V75.304H-1.792V77.304H0.208001ZM20.944 77.304V79.304H22.944V77.304H20.944ZM20.944 14.584V12.584H18.944V14.584H20.944ZM28.88 14.584L29.9041 16.3019L36.1406 12.584H28.88V14.584ZM2.256 30.456H0.256001V33.9767L3.28013 32.1739L2.256 30.456ZM2.256 14.84L1.22563 13.1258L0.256001 13.7087V14.84H2.256ZM25.68 0.759995V-1.24001H25.1252L24.6496 -0.954164L25.68 0.759995ZM37.456 0.759995H39.456V-1.24001H37.456V0.759995ZM37.456 77.304H35.456V79.304H37.456V77.304ZM56.912 77.304H58.912V75.304H56.912V77.304ZM56.912 91V93H58.912V91H56.912ZM2.208 91V77.304H-1.792V91H2.208ZM0.208001 79.304H20.944V75.304H0.208001V79.304ZM22.944 77.304V14.584H18.944V77.304H22.944ZM20.944 16.584H28.88V12.584H20.944V16.584ZM27.8559 12.8661L1.23187 28.7381L3.28013 32.1739L29.9041 16.3019L27.8559 12.8661ZM4.256 30.456V14.84H0.256001V30.456H4.256ZM3.28637 16.5542L26.7104 2.47415L24.6496 -0.954164L1.22563 13.1258L3.28637 16.5542ZM25.68 2.75999H37.456V-1.24001H25.68V2.75999ZM35.456 0.759995V77.304H39.456V0.759995H35.456ZM37.456 79.304H56.912V75.304H37.456V79.304ZM54.912 77.304V91H58.912V77.304H54.912ZM56.912 89H0.208001V93H56.912V89ZM69.662 91H67.662V93H69.662V91ZM69.662 73.208V71.208H67.662V73.208H69.662ZM87.582 73.208H89.582V71.208H87.582V73.208ZM87.582 91V93H89.582V91H87.582ZM71.662 91V73.208H67.662V91H71.662ZM69.662 75.208H87.582V71.208H69.662V75.208ZM85.582 73.208V91H89.582V73.208H85.582ZM87.582 89H69.662V93H87.582V89Z" fill="#F9D5FF"/>
</svg>
