<svg width="961" height="275" viewBox="0 0 961 275" fill="none" xmlns="http://www.w3.org/2000/svg">
<path d="M44.0897 59.0136L67.7059 101.583H52.8646L36.6876 72.395L20.6035 101.638H5.76221L29.3783 59.0691L5.76221 16.6852H20.6035L36.6876 45.7987L52.8461 16.6852H67.6873L44.0897 59.0136Z" fill="white"/>
<path d="M125.404 16.7779C129.686 16.7779 132.646 17.872 134.34 20.0974C136.034 22.3228 136.853 25.7721 136.853 30.4824V101.638H123.431V62.0639H94.0189V101.545H80.6717V30.3897C80.6609 28.3673 80.7977 26.3467 81.0813 24.3441C81.2209 22.7995 81.7317 21.3111 82.5705 20.0047C82.5705 19.8193 82.738 19.6338 83.0545 19.4669C84.5065 17.6124 87.4787 16.6852 91.9712 16.6852L125.404 16.7779ZM123.431 50.492V29.2955H94.0189V50.3993L123.431 50.492Z" fill="white"/>
<path d="M192.881 101.545L164.028 63.5084V101.545H149.817V16.6852H164.028V51.4041L188.751 16.6852H205.102L175.291 56.3533L210.32 101.638L192.881 101.545Z" fill="white"/>
<path d="M257.923 16.7779C262.209 16.7779 265.172 17.872 266.867 20.0974C268.563 22.3228 269.383 25.7721 269.383 30.4824V101.638H256.06V62.0639H226.618V101.545H213.202V30.3897C213.191 28.3673 213.328 26.3467 213.612 24.3441C213.761 22.8015 214.271 21.3152 215.103 20.0047C215.103 19.8193 215.27 19.6338 215.587 19.4669C217.041 17.6124 220.016 16.6852 224.513 16.6852L257.923 16.7779ZM256.06 50.3993V29.2955H226.618V50.3993H256.06Z" fill="white"/>
<path d="M313.692 29.0811V101.638H299.854V29.0811H279.467V16.6852H334.208V29.1739L313.692 29.0811Z" fill="white"/>
<path d="M404.752 88.884C404.752 89.1439 404.752 89.8123 404.604 90.889C404.456 91.9658 404.382 93.0611 404.197 94.2121C404.046 95.2723 403.798 96.3164 403.456 97.3311C403.141 98.2593 402.771 98.7234 402.382 98.7234C400.703 100.667 397.698 101.638 393.365 101.638H360.037C355.469 101.638 352.464 100.667 351.02 98.7234C350.74 98.3885 350.492 98.028 350.279 97.6467C349.019 94.854 348.46 91.7947 348.65 88.7355V29.4579C348.723 27.4756 348.902 25.4988 349.186 23.5357C349.358 22.0562 350.008 20.6737 351.038 19.6C352.667 17.6445 355.673 16.6729 360.055 16.6853H393.384C397.846 16.6853 400.79 17.6507 402.401 19.6C402.717 19.8617 402.97 20.1917 403.141 20.5654C404.364 23.4088 404.921 26.4951 404.771 29.5879L404.752 88.884ZM362.166 88.2714H391.495V29.1795H362.147L362.166 88.2714Z" fill="white"/>
<path d="M464.169 101.545V65.8811H434.734V101.545H420.641V16.6852H434.734V55.9826H464.169V16.6852H478.263V101.638L464.169 101.545Z" fill="white"/>
<path d="M2.88159 164.318L15.731 147.714H21.5733L9.00123 164.318L21.5733 180.832H15.731L2.88159 164.318ZM18.6521 164.318L31.594 147.714H37.4548L24.8643 164.318L37.4548 180.832H31.594L18.6521 164.318Z" fill="white"/>
<path d="M102.279 126.116V188.031H95.8519V131.78H56.8468V188.031H50.4194V126.116H102.279Z" fill="white"/>
<path d="M118.125 156.354C118.125 138.204 132.191 124.676 151.314 124.676C170.438 124.676 184.391 138.112 184.391 156.354C184.391 174.595 170.231 188.031 151.314 188.031C132.397 188.031 118.125 174.503 118.125 156.354ZM177.715 156.354C177.715 141.508 166.433 130.559 151.39 130.559C136.346 130.559 124.782 141.489 124.782 156.354C124.782 171.218 136.064 182.148 151.39 182.148C166.715 182.148 177.715 171.218 177.715 156.354Z" fill="white"/>
<path d="M219.55 159.638H205.229V188.031H198.796V126.116H205.229V153.79H219.55L240.732 126.116H247.873L224.64 156.188L249.216 188.031H241.627L219.55 159.638Z" fill="white"/>
<path d="M253.537 156.354C253.537 138.204 267.602 124.676 286.707 124.676C305.812 124.676 319.802 138.112 319.802 156.354C319.802 174.595 305.643 188.031 286.707 188.031C267.772 188.031 253.537 174.503 253.537 156.354ZM313.127 156.354C313.127 141.508 301.844 130.559 286.801 130.559C271.758 130.559 260.212 141.489 260.212 156.354C260.212 171.218 271.495 182.148 286.801 182.148C302.108 182.148 313.127 171.218 313.127 156.354Z" fill="white"/>
<path d="M381.746 126.116V187.41H375.333V131.723H345.652L344.938 152.215C344.058 176.725 340.192 188.031 329.034 188.031C327.378 188.024 325.729 187.815 324.124 187.41L324.655 181.639C325.603 181.87 326.575 181.987 327.55 181.985C335.374 181.985 338.36 173.054 339.148 152.38L340.027 126.116H381.746Z" fill="white"/>
<path d="M446.571 182.365V188.031H403.354V126.116H445.206V131.782H409.814V153.816H441.385V159.353H409.814V182.365H446.571Z" fill="white"/>
<path d="M514.277 126.116V188.031H507.626V159.453H467.722V188.031H460.976V126.116H467.722V153.79H507.626V126.116H514.277Z" fill="white"/>
<path d="M534.444 126.116H540.883V177.423L580.399 126.116H586.304V188.031H579.865V136.817L540.368 188.031H534.444V126.116Z" fill="white"/>
<path d="M651.129 182.365V188.031H607.912V126.116H649.782V131.782H614.375V153.816H645.977V159.353H614.375V182.365H651.129Z" fill="white"/>
<path d="M688.583 126.116H695.786V188.031H688.583V126.116Z" fill="white"/>
<path d="M727.806 131.78H705.871V126.116H756.29V131.78H734.336V188.031H727.731L727.806 131.78Z" fill="white"/>
<path d="M759.17 180.832L771.768 164.318L759.17 147.714H765.016L777.965 164.318L765.016 180.832H759.17ZM774.949 180.832L787.547 164.318L774.931 147.714H780.795L793.744 164.318L780.795 180.832H774.949Z" fill="white"/>
<path d="M0 262.222L5.91051 254.265H8.59385L2.81021 262.222L8.59385 270.104H5.91051L0 262.222ZM7.25221 262.222L13.1627 254.265H15.8461L10.0624 262.222L15.8461 270.104H13.1627L7.25221 262.222Z" fill="white"/>
<path d="M53.3001 244.186V272.984H50.3379V249.95L38.8964 269.325H37.4338L25.9923 250.078V272.984H23.0486V244.186H25.585L38.2484 265.538L50.7638 244.186H53.3001Z" fill="white"/>
<path d="M81.262 265.281H65.5486L62.1801 272.984H59.0625L71.963 244.186H74.991L87.8735 272.984H84.738L81.262 265.281ZM80.1691 262.811L73.4143 247.352L66.6415 262.811H80.1691Z" fill="white"/>
<path d="M116.685 254.047C116.685 260.165 112.139 263.853 104.655 263.853H96.7416V272.984H93.636V244.186H104.58C112.064 244.186 116.685 247.893 116.685 254.047ZM113.579 254.047C113.579 249.445 110.455 246.743 104.58 246.743H96.7416V261.114H104.58C110.455 261.187 113.579 258.558 113.579 254.047Z" fill="white"/>
<path d="M140.067 265.281H123.516L119.95 272.984H116.685L130.273 244.186H133.368L146.936 272.984H143.634L140.067 265.281ZM138.916 262.811L131.782 247.352L124.649 262.885L138.916 262.811Z" fill="white"/>
<path d="M167.113 271.367V274.424H164.195V271.367C154.252 271.028 148.377 266.405 148.377 258.519C148.377 250.633 154.252 246.01 164.195 245.671V242.746H167.113V245.727C177.018 246.067 182.95 250.727 182.95 258.576C182.95 266.424 177.112 271.047 167.113 271.367ZM164.195 268.858V248.218C156.041 248.557 151.371 252.161 151.371 258.519C151.371 264.877 156.191 268.481 164.232 268.858H164.195ZM179.937 258.519C179.937 252.161 175.21 248.501 167.113 248.218V268.858C175.286 268.518 179.975 264.877 179.975 258.519H179.937Z" fill="white"/>
<path d="M187.279 258.333C187.184 255.328 187.989 252.362 189.591 249.816C191.193 247.27 193.519 245.26 196.271 244.042C199.023 242.823 202.076 242.453 205.039 242.979C208.003 243.504 210.743 244.901 212.907 246.99C215.072 249.08 216.563 251.767 217.191 254.708C217.818 257.649 217.553 260.71 216.429 263.5C215.305 266.289 213.374 268.681 210.882 270.367C208.39 272.054 205.451 272.96 202.441 272.969C200.47 273.059 198.5 272.745 196.654 272.048C194.808 271.351 193.123 270.285 191.704 268.915C190.284 267.545 189.16 265.899 188.399 264.08C187.638 262.26 187.257 260.305 187.279 258.333V258.333ZM214.491 258.333C214.523 255.932 213.84 253.576 212.528 251.565C211.215 249.554 209.333 247.978 207.121 247.039C204.909 246.1 202.468 245.84 200.107 246.293C197.747 246.745 195.575 247.889 193.868 249.579C192.161 251.269 190.996 253.428 190.521 255.782C190.047 258.136 190.285 260.577 191.204 262.796C192.124 265.014 193.684 266.908 195.685 268.238C197.686 269.568 200.038 270.272 202.441 270.261C204.028 270.311 205.608 270.038 207.085 269.458C208.563 268.877 209.906 268.002 211.034 266.886C212.161 265.77 213.05 264.436 213.644 262.965C214.238 261.495 214.526 259.919 214.491 258.333V258.333Z" fill="white"/>
<path d="M249.215 244.186V272.966H246.341V259.71H229.093V272.984H226.166V244.186H229.093V256.985H246.341V244.186H249.215Z" fill="white"/>
<path d="M295.313 244.186V272.893H292.288V246.904H273.848V272.984H270.823V244.186H295.313Z" fill="white"/>
<path d="M327.005 254.047C327.005 260.165 322.757 263.853 315.736 263.853H308.311V272.984H305.397V244.186H315.736C322.757 244.186 327.005 247.893 327.005 254.047ZM324.091 254.047C324.091 249.445 321.177 246.743 315.648 246.743H308.311V261.114H315.648C321.177 261.187 324.091 258.558 324.091 254.047V254.047Z" fill="white"/>
<path d="M331.335 258.333C331.236 255.328 332.079 252.362 333.757 249.816C335.435 247.27 337.871 245.26 340.754 244.042C343.638 242.823 346.836 242.453 349.941 242.979C353.046 243.504 355.916 244.901 358.183 246.99C360.451 249.08 362.014 251.767 362.671 254.708C363.328 257.649 363.05 260.71 361.873 263.5C360.696 266.289 358.672 268.681 356.062 270.367C353.451 272.054 350.372 272.96 347.219 272.969C345.154 273.059 343.091 272.745 341.156 272.048C339.222 271.351 337.457 270.285 335.97 268.915C334.483 267.545 333.305 265.899 332.508 264.08C331.711 262.26 331.312 260.305 331.335 258.333V258.333ZM359.842 258.333C359.877 255.932 359.161 253.576 357.786 251.565C356.411 249.554 354.439 247.978 352.122 247.039C349.805 246.1 347.247 245.84 344.774 246.293C342.301 246.745 340.026 247.889 338.237 249.579C336.449 251.269 335.229 253.428 334.732 255.782C334.235 258.136 334.484 260.577 335.447 262.796C336.41 265.014 338.044 266.908 340.141 268.238C342.237 269.568 344.701 270.272 347.219 270.261C348.881 270.311 350.537 270.038 352.084 269.458C353.632 268.877 355.04 268.002 356.221 266.886C357.402 265.77 358.332 264.436 358.955 262.965C359.578 261.495 359.88 259.919 359.842 258.333V258.333Z" fill="white"/>
<path d="M388.949 246.904H373.255V272.984H370.221V244.186H388.949V246.904Z" fill="white"/>
<path d="M416.319 254.047C416.319 260.165 411.773 263.853 404.289 263.853H396.376V272.984H393.27V244.186H404.289C411.773 244.186 416.319 247.893 416.319 254.047ZM413.194 254.047C413.194 249.445 410.089 246.743 404.196 246.743H396.376V261.114H404.196C410.089 261.187 413.194 258.558 413.194 254.047Z" fill="white"/>
<path d="M440.001 265.208H424.258L420.865 272.911H417.76L430.702 244.186H433.646L446.571 272.984H443.411L440.001 265.208ZM438.906 262.738L432.12 247.278L425.317 262.811L438.906 262.738Z" fill="white"/>
<path d="M482.585 244.186V272.984H479.623V249.95L468.181 269.325H466.718L455.277 250.078V272.984H452.333V244.186H454.87L467.459 265.538L479.993 244.186H482.585Z" fill="white"/>
<path d="M522.92 244.186V272.984H519.983V249.95L508.496 269.325H507.037L495.623 250.078V272.984H492.668V244.186H495.198L507.831 265.538L520.316 244.186H522.92Z" fill="white"/>
<path d="M533.004 244.186H536.044V267.971L554.712 244.186H557.493V272.984H554.453V249.199L535.784 272.984H533.004V244.186Z" fill="white"/>
<path d="M564.697 258.622C564.667 256.682 565.046 254.756 565.809 252.964C566.572 251.171 567.704 249.549 569.136 248.198C570.567 246.848 572.267 245.796 574.131 245.109C575.996 244.421 577.985 244.112 579.976 244.201C581.95 244.124 583.918 244.451 585.752 245.162C587.587 245.873 589.247 246.953 590.625 248.329L588.662 250.24C587.546 249.127 586.204 248.252 584.721 247.671C583.239 247.091 581.648 246.818 580.051 246.869C578.39 246.742 576.721 246.951 575.148 247.482C573.574 248.014 572.131 248.856 570.908 249.956C569.685 251.057 568.709 252.391 568.042 253.876C567.375 255.362 567.03 256.965 567.03 258.586C567.03 260.207 567.375 261.81 568.042 263.295C568.709 264.781 569.685 266.115 570.908 267.216C572.131 268.316 573.574 269.158 575.148 269.69C576.721 270.221 578.39 270.43 580.051 270.303C581.651 270.356 583.246 270.08 584.73 269.493C586.214 268.906 587.554 268.021 588.662 266.896L590.625 268.807C589.241 270.188 587.576 271.272 585.735 271.989C583.895 272.707 581.921 273.041 579.939 272.971C577.957 273.054 575.978 272.744 574.123 272.058C572.268 271.373 570.576 270.327 569.15 268.985C567.724 267.642 566.594 266.031 565.828 264.249C565.063 262.468 564.678 260.553 564.697 258.622V258.622Z" fill="white"/>
<path d="M615.115 246.821H605.079V272.984H602.103V246.821H592.066V244.186H615.115V246.821Z" fill="white"/>
<path d="M618.004 258.333C617.909 255.327 618.715 252.361 620.317 249.814C621.92 247.268 624.246 245.257 627 244.04C629.753 242.822 632.807 242.453 635.771 242.98C638.735 243.507 641.475 244.905 643.639 246.997C645.803 249.088 647.293 251.777 647.918 254.719C648.543 257.661 648.276 260.723 647.149 263.512C646.022 266.302 644.088 268.692 641.594 270.376C639.099 272.061 636.159 272.964 633.148 272.969C631.177 273.059 629.209 272.745 627.363 272.048C625.518 271.351 623.835 270.284 622.417 268.914C620.999 267.543 619.876 265.898 619.117 264.079C618.358 262.259 617.979 260.304 618.004 258.333V258.333ZM645.197 258.333C645.23 255.932 644.547 253.576 643.234 251.565C641.922 249.554 640.04 247.978 637.828 247.039C635.616 246.1 633.174 245.84 630.814 246.293C628.454 246.745 626.282 247.889 624.574 249.579C622.867 251.269 621.702 253.428 621.228 255.782C620.754 258.136 620.991 260.577 621.911 262.796C622.83 265.014 624.39 266.908 626.391 268.238C628.393 269.568 630.745 270.272 633.148 270.261C634.734 270.311 636.315 270.038 637.792 269.458C639.269 268.877 640.613 268.002 641.74 266.886C642.868 265.77 643.756 264.436 644.35 262.965C644.945 261.495 645.233 259.919 645.197 258.333Z" fill="white"/>
<path d="M678.499 265.208C678.499 270.148 675.036 272.984 668.144 272.984H655.45V244.186H667.31C673.295 244.186 677.012 246.748 677.012 251.505C677.065 252.965 676.637 254.403 675.793 255.591C674.95 256.78 673.739 257.653 672.352 258.073C676.432 258.951 678.499 261.384 678.499 265.208ZM658.551 257.231H667.274C671.626 257.231 674.111 255.402 674.111 251.925C674.111 248.449 671.626 246.62 667.274 246.62H658.551V257.231ZM675.58 265.007C675.58 261.256 673.023 259.518 668.199 259.518H658.551V270.496H668.199C672.968 270.551 675.525 268.867 675.525 265.007H675.58Z" fill="white"/>
<path d="M684.261 270.104L690.038 262.222L684.261 254.265H686.96L692.864 262.222L686.96 270.104H684.261ZM691.505 270.104L697.301 262.222L691.505 254.265H694.204L700.108 262.222L694.204 270.104H691.505Z" fill="white"/>
<path d="M514 13.3901C514 6.36743 520.286 1.01342 527.219 2.13112L588.114 11.9479C619.495 17.007 651.338 18.598 683.067 16.6924L948.912 0.725998C955.467 0.332281 961 5.54254 961 12.1098V93.344C961 100.111 955.142 105.389 948.412 104.687L865.372 96.0234C844.482 93.844 823.461 93.1862 802.475 94.0551L525.876 105.508C519.398 105.776 514 100.597 514 94.1136V13.3901Z" fill="white"/>
<path d="M540.003 66.3705V62.5158H545.839V44.8635H548.073L540.58 49.3306V44.9356L547.172 40.9728H550.487V62.5158H555.962V66.3705H540.003ZM568.017 66.7307C566.264 66.7307 564.582 66.4785 562.973 65.9742C561.364 65.4458 560.043 64.7253 559.011 63.8127L560.524 60.3183C561.652 61.1829 562.817 61.8193 564.018 62.2276C565.243 62.6359 566.528 62.84 567.873 62.84C569.506 62.84 570.743 62.5158 571.583 61.8673C572.424 61.2189 572.844 60.2702 572.844 59.0214C572.844 57.8205 572.424 56.9199 571.583 56.3195C570.767 55.6951 569.566 55.3828 567.981 55.3828H563.874V51.6723H567.584C568.953 51.6723 570.046 51.336 570.863 50.6636C571.679 49.9911 572.088 49.0665 572.088 47.8896C572.088 46.7849 571.703 45.9443 570.935 45.3679C570.19 44.7915 569.11 44.5033 567.693 44.5033C565.147 44.5033 562.901 45.3679 560.956 47.0971L559.443 43.6387C560.476 42.678 561.748 41.9335 563.261 41.4051C564.799 40.8768 566.408 40.6126 568.089 40.6126C570.731 40.6126 572.796 41.213 574.285 42.4138C575.798 43.5907 576.555 45.2358 576.555 47.3493C576.555 48.8623 576.122 50.1712 575.258 51.276C574.417 52.3567 573.252 53.0772 571.763 53.4375V53.0052C573.517 53.2934 574.874 54.0139 575.834 55.1667C576.819 56.2955 577.311 57.7125 577.311 59.4176C577.311 61.6752 576.483 63.4644 574.826 64.7854C573.168 66.0823 570.899 66.7307 568.017 66.7307ZM598.819 66.7307C597.234 66.7307 595.841 66.3585 594.64 65.6139C593.439 64.8454 592.503 63.7526 591.83 62.3357C591.158 60.9187 590.821 59.2255 590.821 57.2561C590.821 55.2868 591.158 53.6056 591.83 52.2126C592.503 50.7957 593.439 49.7149 594.64 48.9704C595.841 48.2019 597.234 47.8176 598.819 47.8176C600.356 47.8176 601.701 48.2019 602.854 48.9704C604.031 49.7149 604.811 50.7236 605.195 51.9965H604.799L605.195 48.1778H609.518C609.446 48.9224 609.374 49.6789 609.302 50.4474C609.254 51.2159 609.23 51.9725 609.23 52.717V66.3705H604.763L604.727 62.6239H605.159C604.775 63.8727 603.995 64.8694 602.818 65.6139C601.641 66.3585 600.308 66.7307 598.819 66.7307ZM600.08 63.2723C601.497 63.2723 602.638 62.78 603.502 61.7953C604.367 60.7866 604.799 59.2735 604.799 57.2561C604.799 55.2387 604.367 53.7377 603.502 52.753C602.638 51.7683 601.497 51.276 600.08 51.276C598.663 51.276 597.522 51.7683 596.657 52.753C595.793 53.7377 595.361 55.2387 595.361 57.2561C595.361 59.2735 595.781 60.7866 596.621 61.7953C597.486 62.78 598.639 63.2723 600.08 63.2723ZM614.482 66.3705V48.1778H631.522V66.3705H627.055V51.6362H618.949V66.3705H614.482ZM636.79 74.1519V52.717C636.79 51.9725 636.766 51.2159 636.718 50.4474C636.67 49.6789 636.598 48.9224 636.502 48.1778H640.861L641.257 51.9965H640.861C641.221 50.7236 641.978 49.7149 643.131 48.9704C644.307 48.2019 645.664 47.8176 647.201 47.8176C648.811 47.8176 650.215 48.2019 651.416 48.9704C652.617 49.7149 653.554 50.7957 654.226 52.2126C654.899 53.6056 655.235 55.2868 655.235 57.2561C655.235 59.2255 654.899 60.9187 654.226 62.3357C653.554 63.7526 652.617 64.8454 651.416 65.6139C650.215 66.3585 648.811 66.7307 647.201 66.7307C645.688 66.7307 644.355 66.3585 643.203 65.6139C642.05 64.8694 641.281 63.8727 640.897 62.6239H641.293V74.1519H636.79ZM645.941 63.2723C647.382 63.2723 648.534 62.78 649.399 61.7953C650.264 60.7866 650.696 59.2735 650.696 57.2561C650.696 55.2387 650.264 53.7377 649.399 52.753C648.534 51.7683 647.382 51.276 645.941 51.276C644.524 51.276 643.383 51.7683 642.518 52.753C641.654 53.7377 641.221 55.2387 641.221 57.2561C641.221 59.2735 641.654 60.7866 642.518 61.7953C643.383 62.78 644.524 63.2723 645.941 63.2723ZM668.413 66.7307C665.362 66.7307 662.973 65.8901 661.244 64.209C659.514 62.5278 658.65 60.2222 658.65 57.2922C658.65 55.3948 659.022 53.7377 659.767 52.3207C660.511 50.9037 661.544 49.799 662.865 49.0064C664.21 48.2139 665.771 47.8176 667.548 47.8176C669.301 47.8176 670.766 48.1898 671.943 48.9344C673.12 49.6789 674.008 50.7236 674.609 52.0685C675.233 53.4135 675.545 54.9866 675.545 56.7878V57.9766H662.288V55.599H672.339L671.727 56.1033C671.727 54.4222 671.367 53.1373 670.646 52.2487C669.95 51.36 668.929 50.9157 667.584 50.9157C666.095 50.9157 664.942 51.4441 664.126 52.5008C663.333 53.5576 662.937 55.0346 662.937 56.9319V57.4002C662.937 59.3696 663.417 60.8466 664.378 61.8313C665.362 62.792 666.743 63.2723 668.521 63.2723C669.553 63.2723 670.514 63.1402 671.403 62.876C672.315 62.5878 673.18 62.1315 673.996 61.5071L675.329 64.5332C674.465 65.2297 673.432 65.77 672.231 66.1543C671.03 66.5386 669.757 66.7307 668.413 66.7307ZM679.239 66.8748L677.834 63.3444C678.626 63.0562 679.287 62.6839 679.815 62.2276C680.368 61.7473 680.8 61.1468 681.112 60.4263C681.448 59.6818 681.689 58.7692 681.833 57.6884C681.977 56.5837 682.049 55.2748 682.049 53.7617V48.1778H696.531V66.3705H692.064V51.6362H686.156V53.9058C686.156 56.5236 685.915 58.7212 685.435 60.4984C684.955 62.2516 684.21 63.6446 683.202 64.6773C682.193 65.71 680.872 66.4425 679.239 66.8748ZM700.147 66.3705L702.921 61.5791C703.401 60.7626 703.99 60.1141 704.686 59.6338C705.407 59.1294 706.151 58.8773 706.92 58.8773H707.712L707.676 59.2735C705.539 59.2735 703.893 58.8052 702.741 57.8686C701.588 56.9319 701.011 55.563 701.011 53.7617C701.011 51.9845 701.6 50.6155 702.777 49.6549C703.978 48.6702 705.731 48.1778 708.036 48.1778H717.079V66.3705H712.972V59.958H710.918C710.174 59.958 709.513 60.1622 708.937 60.5704C708.385 60.9787 707.916 61.5071 707.532 62.1555L705.154 66.3705H700.147ZM708.901 57.04H712.972V51.0959H708.901C707.676 51.0959 706.751 51.36 706.127 51.8884C705.527 52.4168 705.226 53.1373 705.226 54.0499C705.226 55.0106 705.527 55.7551 706.127 56.2835C706.751 56.7878 707.676 57.04 708.901 57.04ZM731.947 58.2288V54.6623H742.899V58.2288H731.947ZM759.214 66.3705V62.5158H765.05V44.8635H767.284L759.79 49.3306V44.9356L766.383 40.9728H769.697V62.5158H775.173V66.3705H759.214ZM787.804 66.7307C786.699 66.7307 785.594 66.6106 784.49 66.3705C783.409 66.1303 782.388 65.7941 781.427 65.3618C780.491 64.9295 779.686 64.4131 779.014 63.8127L780.527 60.3183C781.656 61.1588 782.808 61.7953 783.985 62.2276C785.186 62.6359 786.435 62.84 787.732 62.84C789.293 62.84 790.506 62.4557 791.37 61.6872C792.259 60.8947 792.703 59.8379 792.703 58.517C792.703 57.1721 792.283 56.0913 791.442 55.2748C790.602 54.4342 789.449 54.0139 787.984 54.0139C786.951 54.0139 786.003 54.218 785.138 54.6263C784.297 55.0106 783.541 55.611 782.868 56.4276H779.806V40.9728H795.585V44.7915H784.201V52.8611H783.085C783.709 52.0205 784.538 51.3721 785.57 50.9157C786.627 50.4594 787.804 50.2313 789.101 50.2313C790.734 50.2313 792.151 50.5675 793.352 51.24C794.552 51.9124 795.489 52.8611 796.162 54.0859C796.834 55.2868 797.17 56.7038 797.17 58.3369C797.17 59.994 796.786 61.4591 796.018 62.7319C795.273 63.9808 794.192 64.9655 792.775 65.686C791.382 66.3825 789.725 66.7307 787.804 66.7307ZM818.03 66.7307C816.445 66.7307 815.052 66.3585 813.851 65.6139C812.65 64.8454 811.713 63.7526 811.041 62.3357C810.368 60.9187 810.032 59.2255 810.032 57.2561C810.032 55.2868 810.368 53.6056 811.041 52.2126C811.713 50.7957 812.65 49.7149 813.851 48.9704C815.052 48.2019 816.445 47.8176 818.03 47.8176C819.567 47.8176 820.912 48.2019 822.064 48.9704C823.241 49.7149 824.022 50.7236 824.406 51.9965H824.01L824.406 48.1778H828.729C828.657 48.9224 828.585 49.6789 828.513 50.4474C828.465 51.2159 828.441 51.9725 828.441 52.717V66.3705H823.974L823.938 62.6239H824.37C823.986 63.8727 823.205 64.8694 822.028 65.6139C820.852 66.3585 819.519 66.7307 818.03 66.7307ZM819.291 63.2723C820.707 63.2723 821.848 62.78 822.713 61.7953C823.577 60.7866 824.01 59.2735 824.01 57.2561C824.01 55.2387 823.577 53.7377 822.713 52.753C821.848 51.7683 820.707 51.276 819.291 51.276C817.874 51.276 816.733 51.7683 815.868 52.753C815.004 53.7377 814.571 55.2387 814.571 57.2561C814.571 59.2735 814.992 60.7866 815.832 61.7953C816.697 62.78 817.85 63.2723 819.291 63.2723ZM833.693 66.3705V48.1778H850.733V66.3705H846.266V51.6362H838.16V66.3705H833.693ZM856.001 74.1519V52.717C856.001 51.9725 855.977 51.2159 855.929 50.4474C855.881 49.6789 855.809 48.9224 855.713 48.1778H860.072L860.468 51.9965H860.072C860.432 50.7236 861.188 49.7149 862.341 48.9704C863.518 48.2019 864.875 47.8176 866.412 47.8176C868.021 47.8176 869.426 48.2019 870.627 48.9704C871.828 49.7149 872.764 50.7957 873.437 52.2126C874.109 53.6056 874.446 55.2868 874.446 57.2561C874.446 59.2255 874.109 60.9187 873.437 62.3357C872.764 63.7526 871.828 64.8454 870.627 65.6139C869.426 66.3585 868.021 66.7307 866.412 66.7307C864.899 66.7307 863.566 66.3585 862.413 65.6139C861.26 64.8694 860.492 63.8727 860.108 62.6239H860.504V74.1519H856.001ZM865.151 63.2723C866.592 63.2723 867.745 62.78 868.61 61.7953C869.474 60.7866 869.906 59.2735 869.906 57.2561C869.906 55.2387 869.474 53.7377 868.61 52.753C867.745 51.7683 866.592 51.276 865.151 51.276C863.734 51.276 862.593 51.7683 861.729 52.753C860.864 53.7377 860.432 55.2387 860.432 57.2561C860.432 59.2735 860.864 60.7866 861.729 61.7953C862.593 62.78 863.734 63.2723 865.151 63.2723ZM887.623 66.7307C884.573 66.7307 882.183 65.8901 880.454 64.209C878.725 62.5278 877.86 60.2222 877.86 57.2922C877.86 55.3948 878.233 53.7377 878.977 52.3207C879.722 50.9037 880.754 49.799 882.075 49.0064C883.42 48.2139 884.981 47.8176 886.759 47.8176C888.512 47.8176 889.977 48.1898 891.154 48.9344C892.33 49.6789 893.219 50.7236 893.819 52.0685C894.444 53.4135 894.756 54.9866 894.756 56.7878V57.9766H881.499V55.599H891.55L890.937 56.1033C890.937 54.4222 890.577 53.1373 889.857 52.2487C889.16 51.36 888.139 50.9157 886.795 50.9157C885.306 50.9157 884.153 51.4441 883.336 52.5008C882.544 53.5576 882.147 55.0346 882.147 56.9319V57.4002C882.147 59.3696 882.628 60.8466 883.588 61.8313C884.573 62.792 885.954 63.2723 887.731 63.2723C888.764 63.2723 889.725 63.1402 890.613 62.876C891.526 62.5878 892.39 62.1315 893.207 61.5071L894.54 64.5332C893.675 65.2297 892.643 65.77 891.442 66.1543C890.241 66.5386 888.968 66.7307 887.623 66.7307ZM898.449 66.8748L897.045 63.3444C897.837 63.0562 898.498 62.6839 899.026 62.2276C899.578 61.7473 900.011 61.1468 900.323 60.4263C900.659 59.6818 900.899 58.7692 901.043 57.6884C901.187 56.5837 901.259 55.2748 901.259 53.7617V48.1778H915.741V66.3705H911.274V51.6362H905.366V53.9058C905.366 56.5236 905.126 58.7212 904.646 60.4984C904.165 62.2516 903.421 63.6446 902.412 64.6773C901.404 65.71 900.083 66.4425 898.449 66.8748ZM919.357 66.3705L922.131 61.5791C922.612 60.7626 923.2 60.1141 923.897 59.6338C924.617 59.1294 925.362 58.8773 926.13 58.8773H926.923L926.887 59.2735C924.749 59.2735 923.104 58.8052 921.951 57.8686C920.798 56.9319 920.222 55.563 920.222 53.7617C920.222 51.9845 920.811 50.6155 921.987 49.6549C923.188 48.6702 924.941 48.1778 927.247 48.1778H936.289V66.3705H932.182V59.958H930.129C929.384 59.958 928.724 60.1622 928.148 60.5704C927.595 60.9787 927.127 61.5071 926.743 62.1555L924.365 66.3705H919.357ZM928.112 57.04H932.182V51.0959H928.112C926.887 51.0959 925.962 51.36 925.338 51.8884C924.737 52.4168 924.437 53.1373 924.437 54.0499C924.437 55.0106 924.737 55.7551 925.338 56.2835C925.962 56.7878 926.887 57.04 928.112 57.04Z" fill="black"/>
</svg>
